<?xml version="1.0" encoding="UTF-8" standalone="no"?><svg xmlns="http://www.w3.org/2000/svg" xmlns:xlink="http://www.w3.org/1999/xlink" contentScriptType="application/ecmascript" contentStyleType="text/css" height="1172px" preserveAspectRatio="none" style="width:1165px;height:1172px;background:#FFFFFF;" version="1.1" viewBox="0 0 1165 1172" width="1165px" zoomAndPan="magnify"><defs><filter height="300%" id="f1vsqsqnzhj6hv" width="300%" x="-1" y="-1"><feGaussianBlur result="blurOut" stdDeviation="2.0"/><feColorMatrix in="blurOut" result="blurOut2" type="matrix" values="0 0 0 0 0 0 0 0 0 0 0 0 0 0 0 0 0 0 .4 0"/><feOffset dx="4.0" dy="4.0" in="blurOut2" result="blurOut3"/><feBlend in="SourceGraphic" in2="blurOut3" mode="normal"/></filter></defs><g><!--MD5=[9dd4eaa2771a2ff8dbee15cc1e732cab]
class Patient--><rect codeLine="3" fill="#FEFECE" filter="url(#f1vsqsqnzhj6hv)" height="125.7305" id="Patient" style="stroke:#A80036;stroke-width:1.5;" width="227" x="365" y="7"/><ellipse cx="454.75" cy="23" fill="#ADD1B2" rx="11" ry="11" style="stroke:#A80036;stroke-width:1.0;"/><path d="M457.2231,29.1431 Q456.6421,29.4419 456.0029,29.5913 Q455.3638,29.7407 454.6582,29.7407 Q452.1514,29.7407 450.8315,28.0889 Q449.5117,26.437 449.5117,23.3159 Q449.5117,20.1865 450.8315,18.5347 Q452.1514,16.8828 454.6582,16.8828 Q455.3638,16.8828 456.0112,17.0322 Q456.6587,17.1816 457.2231,17.4805 L457.2231,20.2031 Q456.5923,19.6221 455.9988,19.3523 Q455.4053,19.0825 454.7744,19.0825 Q453.4297,19.0825 452.7449,20.1492 Q452.0601,21.2158 452.0601,23.3159 Q452.0601,25.4077 452.7449,26.4744 Q453.4297,27.541 454.7744,27.541 Q455.4053,27.541 455.9988,27.2712 Q456.5923,27.0015 457.2231,26.4204 Z " fill="#000000"/><text fill="#000000" font-family="sans-serif" font-size="12" lengthAdjust="spacing" textLength="39" x="475.25" y="27.5352">Patient</text><line style="stroke:#A80036;stroke-width:1.5;" x1="366" x2="591" y1="39" y2="39"/><text fill="#000000" font-family="sans-serif" font-size="11" lengthAdjust="spacing" textLength="104" x="371" y="53.6348">Name: HumanName</text><text fill="#000000" font-family="sans-serif" font-size="11" lengthAdjust="spacing" textLength="163" x="371" y="66.5898">GeschlechtAdministrativ: code</text><text fill="#000000" font-family="sans-serif" font-size="11" lengthAdjust="spacing" textLength="106" x="371" y="79.5449">Geburtsdatum: date</text><text fill="#000000" font-family="sans-serif" font-size="11" lengthAdjust="spacing" textLength="95" x="371" y="92.5">Adresse: Address</text><text fill="#000000" font-family="sans-serif" font-size="11" lengthAdjust="spacing" textLength="151" x="371" y="105.4551">Ethnizität: CodeableConcept</text><text fill="#000000" font-family="sans-serif" font-size="11" lengthAdjust="spacing" textLength="215" x="371" y="118.4102">GeschlechtBiologisch: CodeableConcept</text><line style="stroke:#A80036;stroke-width:1.5;" x1="366" x2="591" y1="124.7305" y2="124.7305"/><!--MD5=[01e663d8f9ca83c938e6ef4d7dcd96a1]
class Vitalstatus--><rect codeLine="12" fill="#FEFECE" filter="url(#f1vsqsqnzhj6hv)" height="86.8652" id="Vitalstatus" style="stroke:#A80036;stroke-width:1.5;" width="189" x="7" y="220"/><ellipse cx="67.75" cy="236" fill="#ADD1B2" rx="11" ry="11" style="stroke:#A80036;stroke-width:1.0;"/><path d="M70.2231,242.1431 Q69.6421,242.4419 69.0029,242.5913 Q68.3638,242.7407 67.6582,242.7407 Q65.1514,242.7407 63.8315,241.0889 Q62.5117,239.437 62.5117,236.3159 Q62.5117,233.1865 63.8315,231.5347 Q65.1514,229.8828 67.6582,229.8828 Q68.3638,229.8828 69.0112,230.0322 Q69.6587,230.1816 70.2231,230.4805 L70.2231,233.2031 Q69.5923,232.6221 68.9988,232.3523 Q68.4053,232.0825 67.7744,232.0825 Q66.4297,232.0825 65.7449,233.1492 Q65.0601,234.2158 65.0601,236.3159 Q65.0601,238.4077 65.7449,239.4744 Q66.4297,240.541 67.7744,240.541 Q68.4053,240.541 68.9988,240.2712 Q69.5923,240.0015 70.2231,239.4204 Z " fill="#000000"/><text fill="#000000" font-family="sans-serif" font-size="12" lengthAdjust="spacing" textLength="59" x="88.25" y="240.5352">Vitalstatus</text><line style="stroke:#A80036;stroke-width:1.5;" x1="8" x2="195" y1="252" y2="252"/><text fill="#000000" font-family="sans-serif" font-size="11" lengthAdjust="spacing" textLength="109" x="13" y="266.6348">Verstorben: boolean</text><text fill="#000000" font-family="sans-serif" font-size="11" lengthAdjust="spacing" textLength="138" x="13" y="279.5898">Todeszeitpunkt: dateTime</text><text fill="#000000" font-family="sans-serif" font-size="11" lengthAdjust="spacing" textLength="177" x="13" y="292.5449">Todesursache: CodeableConcept</text><line style="stroke:#A80036;stroke-width:1.5;" x1="8" x2="195" y1="298.8652" y2="298.8652"/><!--MD5=[1bf4b45528ec36675780c817bfa04d69]
class Körpermaße--><rect codeLine="20" fill="#FEFECE" filter="url(#f1vsqsqnzhj6hv)" height="48" id="Körpermaße" style="stroke:#A80036;stroke-width:1.5;" width="104" x="231.5" y="239.5"/><ellipse cx="246.5" cy="255.5" fill="#A9DCDF" rx="11" ry="11" style="stroke:#A80036;stroke-width:1.0;"/><path d="M246.3633,250.8481 L245.2095,255.9199 L247.5254,255.9199 Z M244.8691,248.6069 L247.8657,248.6069 L251.2109,261 L248.7622,261 L247.9985,257.937 L244.7197,257.937 L243.9727,261 L241.5239,261 Z " fill="#000000"/><text fill="#000000" font-family="sans-serif" font-size="12" font-style="italic" lengthAdjust="spacing" textLength="72" x="260.5" y="260.0352">Körpermaße</text><line style="stroke:#A80036;stroke-width:1.5;" x1="232.5" x2="334.5" y1="271.5" y2="271.5"/><line style="stroke:#A80036;stroke-width:1.5;" x1="232.5" x2="334.5" y1="279.5" y2="279.5"/><!--MD5=[0b1f4f2301101f37c63a7c8ed0ac373e]
class Körpergröße--><rect codeLine="26" fill="#FEFECE" filter="url(#f1vsqsqnzhj6hv)" height="73.9102" id="Körpergröße" style="stroke:#A80036;stroke-width:1.5;" width="144" x="51.5" y="423"/><ellipse cx="84.05" cy="439" fill="#ADD1B2" rx="11" ry="11" style="stroke:#A80036;stroke-width:1.0;"/><path d="M86.5231,445.1431 Q85.9421,445.4419 85.3029,445.5913 Q84.6638,445.7407 83.9582,445.7407 Q81.4514,445.7407 80.1315,444.0889 Q78.8117,442.437 78.8117,439.3159 Q78.8117,436.1865 80.1315,434.5347 Q81.4514,432.8828 83.9582,432.8828 Q84.6638,432.8828 85.3112,433.0322 Q85.9587,433.1816 86.5231,433.4805 L86.5231,436.2031 Q85.8923,435.6221 85.2988,435.3523 Q84.7053,435.0825 84.0744,435.0825 Q82.7297,435.0825 82.0449,436.1492 Q81.3601,437.2158 81.3601,439.3159 Q81.3601,441.4077 82.0449,442.4744 Q82.7297,443.541 84.0744,443.541 Q84.7053,443.541 85.2988,443.2712 Q85.8923,443.0015 86.5231,442.4204 Z " fill="#000000"/><text fill="#000000" font-family="sans-serif" font-size="12" lengthAdjust="spacing" textLength="73" x="101.95" y="443.5352">Körpergröße</text><line style="stroke:#A80036;stroke-width:1.5;" x1="52.5" x2="194.5" y1="455" y2="455"/><text fill="#000000" font-family="sans-serif" font-size="11" lengthAdjust="spacing" textLength="132" x="57.5" y="469.6348">Messzeitpunkt: dateTime</text><text fill="#000000" font-family="sans-serif" font-size="11" lengthAdjust="spacing" textLength="102" x="57.5" y="482.5898">Messwert: Quantity</text><line style="stroke:#A80036;stroke-width:1.5;" x1="52.5" x2="194.5" y1="488.9102" y2="488.9102"/><!--MD5=[51d5f656a11cfe87112ab5039c5ee39b]
class Körpergewicht--><rect codeLine="33" fill="#FEFECE" filter="url(#f1vsqsqnzhj6hv)" height="73.9102" id="Körpergewicht" style="stroke:#A80036;stroke-width:1.5;" width="144" x="230.5" y="423"/><ellipse cx="258.55" cy="439" fill="#ADD1B2" rx="11" ry="11" style="stroke:#A80036;stroke-width:1.0;"/><path d="M261.0231,445.1431 Q260.4421,445.4419 259.8029,445.5913 Q259.1638,445.7407 258.4582,445.7407 Q255.9514,445.7407 254.6315,444.0889 Q253.3117,442.437 253.3117,439.3159 Q253.3117,436.1865 254.6315,434.5347 Q255.9514,432.8828 258.4582,432.8828 Q259.1638,432.8828 259.8112,433.0322 Q260.4587,433.1816 261.0231,433.4805 L261.0231,436.2031 Q260.3923,435.6221 259.7988,435.3523 Q259.2053,435.0825 258.5744,435.0825 Q257.2297,435.0825 256.5449,436.1492 Q255.8601,437.2158 255.8601,439.3159 Q255.8601,441.4077 256.5449,442.4744 Q257.2297,443.541 258.5744,443.541 Q259.2053,443.541 259.7988,443.2712 Q260.3923,443.0015 261.0231,442.4204 Z " fill="#000000"/><text fill="#000000" font-family="sans-serif" font-size="12" lengthAdjust="spacing" textLength="83" x="275.45" y="443.5352">Körpergewicht</text><line style="stroke:#A80036;stroke-width:1.5;" x1="231.5" x2="373.5" y1="455" y2="455"/><text fill="#000000" font-family="sans-serif" font-size="11" lengthAdjust="spacing" textLength="132" x="236.5" y="469.6348">Messzeitpunkt: dateTime</text><text fill="#000000" font-family="sans-serif" font-size="11" lengthAdjust="spacing" textLength="102" x="236.5" y="482.5898">Messwert: Quantity</text><line style="stroke:#A80036;stroke-width:1.5;" x1="231.5" x2="373.5" y1="488.9102" y2="488.9102"/><!--MD5=[450dfd0826dd03772001acab9490f358]
class Diagnose--><rect codeLine="40" fill="#FEFECE" filter="url(#f1vsqsqnzhj6hv)" height="138.6855" id="Diagnose" style="stroke:#A80036;stroke-width:1.5;" width="216" x="370.5" y="194"/><ellipse cx="447.75" cy="210" fill="#ADD1B2" rx="11" ry="11" style="stroke:#A80036;stroke-width:1.0;"/><path d="M450.2231,216.1431 Q449.6421,216.4419 449.0029,216.5913 Q448.3638,216.7407 447.6582,216.7407 Q445.1514,216.7407 443.8315,215.0889 Q442.5117,213.437 442.5117,210.3159 Q442.5117,207.1865 443.8315,205.5347 Q445.1514,203.8828 447.6582,203.8828 Q448.3638,203.8828 449.0112,204.0322 Q449.6587,204.1816 450.2231,204.4805 L450.2231,207.2031 Q449.5923,206.6221 448.9988,206.3523 Q448.4053,206.0825 447.7744,206.0825 Q446.4297,206.0825 445.7449,207.1492 Q445.0601,208.2158 445.0601,210.3159 Q445.0601,212.4077 445.7449,213.4744 Q446.4297,214.541 447.7744,214.541 Q448.4053,214.541 448.9988,214.2712 Q449.5923,214.0015 450.2231,213.4204 Z " fill="#000000"/><text fill="#000000" font-family="sans-serif" font-size="12" lengthAdjust="spacing" textLength="53" x="468.25" y="214.5352">Diagnose</text><line style="stroke:#A80036;stroke-width:1.5;" x1="371.5" x2="585.5" y1="226" y2="226"/><text fill="#000000" font-family="sans-serif" font-size="11" lengthAdjust="spacing" textLength="65" x="376.5" y="240.6348">ID: Identifier</text><text fill="#000000" font-family="sans-serif" font-size="11" lengthAdjust="spacing" textLength="187" x="376.5" y="253.5898">KlinischerStatus: CodeableConcept</text><text fill="#000000" font-family="sans-serif" font-size="11" lengthAdjust="spacing" textLength="204" x="376.5" y="266.5449">Diagnosesicherheit: CodeableConcept</text><text fill="#000000" font-family="sans-serif" font-size="11" lengthAdjust="spacing" textLength="177" x="376.5" y="279.5">Diagnosecode: CodeableConcept</text><text fill="#000000" font-family="sans-serif" font-size="11" lengthAdjust="spacing" textLength="186" x="376.5" y="292.4551">KlinischRelevanterZeitraum: Period</text><text fill="#000000" font-family="sans-serif" font-size="11" lengthAdjust="spacing" textLength="177" x="376.5" y="305.4102">Dokumentationsdatum: dateTime</text><text fill="#000000" font-family="sans-serif" font-size="11" lengthAdjust="spacing" textLength="173" x="376.5" y="318.3652">Manifestation: CodeableConcept</text><line style="stroke:#A80036;stroke-width:1.5;" x1="371.5" x2="585.5" y1="324.6855" y2="324.6855"/><!--MD5=[f2efd3b285b01053d1c0db079a7ec032]
class Laborbefund--><rect codeLine="52" fill="#FEFECE" filter="url(#f1vsqsqnzhj6hv)" height="60.9551" id="Laborbefund" style="stroke:#A80036;stroke-width:1.5;" width="106" x="621.5" y="233"/><ellipse cx="636.5" cy="249" fill="#ADD1B2" rx="11" ry="11" style="stroke:#A80036;stroke-width:1.0;"/><path d="M638.9731,255.1431 Q638.3921,255.4419 637.7529,255.5913 Q637.1138,255.7407 636.4082,255.7407 Q633.9014,255.7407 632.5815,254.0889 Q631.2617,252.437 631.2617,249.3159 Q631.2617,246.1865 632.5815,244.5347 Q633.9014,242.8828 636.4082,242.8828 Q637.1138,242.8828 637.7612,243.0322 Q638.4087,243.1816 638.9731,243.4805 L638.9731,246.2031 Q638.3423,245.6221 637.7488,245.3523 Q637.1553,245.0825 636.5244,245.0825 Q635.1797,245.0825 634.4949,246.1492 Q633.8101,247.2158 633.8101,249.3159 Q633.8101,251.4077 634.4949,252.4744 Q635.1797,253.541 636.5244,253.541 Q637.1553,253.541 637.7488,253.2712 Q638.3423,253.0015 638.9731,252.4204 Z " fill="#000000"/><text fill="#000000" font-family="sans-serif" font-size="12" lengthAdjust="spacing" textLength="74" x="650.5" y="253.5352">Laborbefund</text><line style="stroke:#A80036;stroke-width:1.5;" x1="622.5" x2="726.5" y1="265" y2="265"/><text fill="#000000" font-family="sans-serif" font-size="11" lengthAdjust="spacing" textLength="65" x="627.5" y="279.6348">ID: Identifier</text><line style="stroke:#A80036;stroke-width:1.5;" x1="622.5" x2="726.5" y1="285.9551" y2="285.9551"/><!--MD5=[ebd15861f3c033e5d7a77675d8f72c41]
class Laborparameter--><rect codeLine="58" fill="#FEFECE" filter="url(#f1vsqsqnzhj6hv)" height="99.8203" id="Laborparameter" style="stroke:#A80036;stroke-width:1.5;" width="151" x="590" y="540"/><ellipse cx="616.25" cy="556" fill="#ADD1B2" rx="11" ry="11" style="stroke:#A80036;stroke-width:1.0;"/><path d="M618.7231,562.1431 Q618.1421,562.4419 617.5029,562.5913 Q616.8638,562.7407 616.1582,562.7407 Q613.6514,562.7407 612.3315,561.0889 Q611.0117,559.437 611.0117,556.3159 Q611.0117,553.1865 612.3315,551.5347 Q613.6514,549.8828 616.1582,549.8828 Q616.8638,549.8828 617.5112,550.0322 Q618.1587,550.1816 618.7231,550.4805 L618.7231,553.2031 Q618.0923,552.6221 617.4988,552.3523 Q616.9053,552.0825 616.2744,552.0825 Q614.9297,552.0825 614.2449,553.1492 Q613.5601,554.2158 613.5601,556.3159 Q613.5601,558.4077 614.2449,559.4744 Q614.9297,560.541 616.2744,560.541 Q616.9053,560.541 617.4988,560.2712 Q618.0923,560.0015 618.7231,559.4204 Z " fill="#000000"/><text fill="#000000" font-family="sans-serif" font-size="12" lengthAdjust="spacing" textLength="94" x="632.75" y="560.5352">Laborparameter</text><line style="stroke:#A80036;stroke-width:1.5;" x1="591" x2="740" y1="572" y2="572"/><text fill="#000000" font-family="sans-serif" font-size="11" lengthAdjust="spacing" textLength="129" x="596" y="586.6348">Code: CodeableConcept</text><text fill="#000000" font-family="sans-serif" font-size="11" lengthAdjust="spacing" textLength="106" x="596" y="599.5898">Laborwert: Quantity</text><text fill="#000000" font-family="sans-serif" font-size="11" lengthAdjust="spacing" textLength="132" x="596" y="612.5449">Messzeitpunkt: dateTime</text><text fill="#000000" font-family="sans-serif" font-size="11" lengthAdjust="spacing" textLength="139" x="596" y="625.5">Referenzbereich: Quantity</text><line style="stroke:#A80036;stroke-width:1.5;" x1="591" x2="740" y1="631.8203" y2="631.8203"/><!--MD5=[07843a28108f8f9fb73050ea95a4c52b]
class Probe--><rect codeLine="65" fill="#FEFECE" filter="url(#f1vsqsqnzhj6hv)" height="86.8652" id="Probe" style="stroke:#A80036;stroke-width:1.5;" width="194" x="521.5" y="1072"/><ellipse cx="597.25" cy="1088" fill="#ADD1B2" rx="11" ry="11" style="stroke:#A80036;stroke-width:1.0;"/><path d="M599.7231,1094.1431 Q599.1421,1094.4419 598.5029,1094.5913 Q597.8638,1094.7407 597.1582,1094.7407 Q594.6514,1094.7407 593.3315,1093.0889 Q592.0117,1091.437 592.0117,1088.3159 Q592.0117,1085.1865 593.3315,1083.5347 Q594.6514,1081.8828 597.1582,1081.8828 Q597.8638,1081.8828 598.5112,1082.0322 Q599.1587,1082.1816 599.7231,1082.4805 L599.7231,1085.2031 Q599.0923,1084.6221 598.4988,1084.3523 Q597.9053,1084.0825 597.2744,1084.0825 Q595.9297,1084.0825 595.2449,1085.1492 Q594.5601,1086.2158 594.5601,1088.3159 Q594.5601,1090.4077 595.2449,1091.4744 Q595.9297,1092.541 597.2744,1092.541 Q597.9053,1092.541 598.4988,1092.2712 Q599.0923,1092.0015 599.7231,1091.4204 Z " fill="#000000"/><text fill="#000000" font-family="sans-serif" font-size="12" lengthAdjust="spacing" textLength="34" x="617.75" y="1092.5352">Probe</text><line style="stroke:#A80036;stroke-width:1.5;" x1="522.5" x2="714.5" y1="1104" y2="1104"/><text fill="#000000" font-family="sans-serif" font-size="11" lengthAdjust="spacing" textLength="65" x="527.5" y="1118.6348">ID: Identifier</text><text fill="#000000" font-family="sans-serif" font-size="11" lengthAdjust="spacing" textLength="154" x="527.5" y="1131.5898">Probenart: CodeableConcept</text><text fill="#000000" font-family="sans-serif" font-size="11" lengthAdjust="spacing" textLength="182" x="527.5" y="1144.5449">Entnahmestelle: CodeableConcept</text><line style="stroke:#A80036;stroke-width:1.5;" x1="522.5" x2="714.5" y1="1150.8652" y2="1150.8652"/><!--MD5=[8d1280e58717f51acd6181606489346b]
class Assessment--><rect codeLine="74" fill="#FEFECE" filter="url(#f1vsqsqnzhj6hv)" height="48" id="Assessment" style="stroke:#A80036;stroke-width:1.5;" width="100" x="428.5" y="436"/><ellipse cx="443.5" cy="452" fill="#A9DCDF" rx="11" ry="11" style="stroke:#A80036;stroke-width:1.0;"/><path d="M443.3633,447.3481 L442.2095,452.4199 L444.5254,452.4199 Z M441.8691,445.1069 L444.8657,445.1069 L448.2109,457.5 L445.7622,457.5 L444.9985,454.437 L441.7197,454.437 L440.9727,457.5 L438.5239,457.5 Z " fill="#000000"/><text fill="#000000" font-family="sans-serif" font-size="12" font-style="italic" lengthAdjust="spacing" textLength="68" x="457.5" y="456.5352">Assessment</text><line style="stroke:#A80036;stroke-width:1.5;" x1="429.5" x2="527.5" y1="468" y2="468"/><line style="stroke:#A80036;stroke-width:1.5;" x1="429.5" x2="527.5" y1="476" y2="476"/><!--MD5=[f27bcd0bfaa041fdac22cb69ddc6ac63]
class Staging--><rect codeLine="78" fill="#FEFECE" filter="url(#f1vsqsqnzhj6hv)" height="48" id="Staging" style="stroke:#A80036;stroke-width:1.5;" width="73" x="322" y="670"/><ellipse cx="337" cy="686" fill="#A9DCDF" rx="11" ry="11" style="stroke:#A80036;stroke-width:1.0;"/><path d="M336.8633,681.3481 L335.7095,686.4199 L338.0254,686.4199 Z M335.3691,679.1069 L338.3657,679.1069 L341.7109,691.5 L339.2622,691.5 L338.4985,688.437 L335.2197,688.437 L334.4727,691.5 L332.0239,691.5 Z " fill="#000000"/><text fill="#000000" font-family="sans-serif" font-size="12" font-style="italic" lengthAdjust="spacing" textLength="41" x="351" y="690.5352">Staging</text><line style="stroke:#A80036;stroke-width:1.5;" x1="323" x2="394" y1="702" y2="702"/><line style="stroke:#A80036;stroke-width:1.5;" x1="323" x2="394" y1="710" y2="710"/><!--MD5=[922f99bd240fc9b7dcaee70950235b23]
class Grading--><rect codeLine="82" fill="#FEFECE" filter="url(#f1vsqsqnzhj6hv)" height="48" id="Grading" style="stroke:#A80036;stroke-width:1.5;" width="78" x="457.5" y="670"/><ellipse cx="472.5" cy="686" fill="#A9DCDF" rx="11" ry="11" style="stroke:#A80036;stroke-width:1.0;"/><path d="M472.3633,681.3481 L471.2095,686.4199 L473.5254,686.4199 Z M470.8691,679.1069 L473.8657,679.1069 L477.2109,691.5 L474.7622,691.5 L473.9985,688.437 L470.7197,688.437 L469.9727,691.5 L467.5239,691.5 Z " fill="#000000"/><text fill="#000000" font-family="sans-serif" font-size="12" font-style="italic" lengthAdjust="spacing" textLength="46" x="486.5" y="690.5352">Grading</text><line style="stroke:#A80036;stroke-width:1.5;" x1="458.5" x2="534.5" y1="702" y2="702"/><line style="stroke:#A80036;stroke-width:1.5;" x1="458.5" x2="534.5" y1="710" y2="710"/><!--MD5=[bb18fe156cacd98fdf663dd96613203a]
class TNM--><rect codeLine="86" fill="#FEFECE" filter="url(#f1vsqsqnzhj6hv)" height="216.416" id="TNM" style="stroke:#A80036;stroke-width:1.5;" width="205" x="180" y="779"/><ellipse cx="264.75" cy="795" fill="#ADD1B2" rx="11" ry="11" style="stroke:#A80036;stroke-width:1.0;"/><path d="M267.2231,801.1431 Q266.6421,801.4419 266.0029,801.5913 Q265.3638,801.7407 264.6582,801.7407 Q262.1514,801.7407 260.8315,800.0889 Q259.5117,798.437 259.5117,795.3159 Q259.5117,792.1865 260.8315,790.5347 Q262.1514,788.8828 264.6582,788.8828 Q265.3638,788.8828 266.0112,789.0322 Q266.6587,789.1816 267.2231,789.4805 L267.2231,792.2031 Q266.5923,791.6221 265.9988,791.3523 Q265.4053,791.0825 264.7744,791.0825 Q263.4297,791.0825 262.7449,792.1492 Q262.0601,793.2158 262.0601,795.3159 Q262.0601,797.4077 262.7449,798.4744 Q263.4297,799.541 264.7744,799.541 Q265.4053,799.541 265.9988,799.2712 Q266.5923,799.0015 267.2231,798.4204 Z " fill="#000000"/><text fill="#000000" font-family="sans-serif" font-size="12" lengthAdjust="spacing" textLength="27" x="285.25" y="799.5352">TNM</text><line style="stroke:#A80036;stroke-width:1.5;" x1="181" x2="384" y1="811" y2="811"/><text fill="#000000" font-family="sans-serif" font-size="11" lengthAdjust="spacing" textLength="107" x="186" y="825.6348">y: CodeableConcept</text><text fill="#000000" font-family="sans-serif" font-size="11" lengthAdjust="spacing" textLength="106" x="186" y="838.5898">r: CodeableConcept</text><text fill="#000000" font-family="sans-serif" font-size="11" lengthAdjust="spacing" textLength="107" x="186" y="851.5449">a: CodeableConcept</text><text fill="#000000" font-family="sans-serif" font-size="11" lengthAdjust="spacing" textLength="108" x="186" y="864.5">T: CodeableConcept</text><text fill="#000000" font-family="sans-serif" font-size="11" lengthAdjust="spacing" textLength="111" x="186" y="877.4551">m: CodeableConcept</text><text fill="#000000" font-family="sans-serif" font-size="11" lengthAdjust="spacing" textLength="109" x="186" y="890.4102">N: CodeableConcept</text><text fill="#000000" font-family="sans-serif" font-size="11" lengthAdjust="spacing" textLength="110" x="186" y="903.3652">M: CodeableConcept</text><text fill="#000000" font-family="sans-serif" font-size="11" lengthAdjust="spacing" textLength="107" x="186" y="916.3203">L: CodeableConcept</text><text fill="#000000" font-family="sans-serif" font-size="11" lengthAdjust="spacing" textLength="108" x="186" y="929.2754">V: CodeableConcept</text><text fill="#000000" font-family="sans-serif" font-size="11" lengthAdjust="spacing" textLength="114" x="186" y="942.2305">Pn: CodeableConcept</text><text fill="#000000" font-family="sans-serif" font-size="11" lengthAdjust="spacing" textLength="107" x="186" y="955.1855">S: CodeableConcept</text><text fill="#000000" font-family="sans-serif" font-size="11" lengthAdjust="spacing" textLength="186" x="186" y="968.1406">numberOfNodesAffected: Quantity</text><text fill="#000000" font-family="sans-serif" font-size="11" lengthAdjust="spacing" textLength="193" x="186" y="981.0957">numberOfNodesExamined: Quantity</text><line style="stroke:#A80036;stroke-width:1.5;" x1="181" x2="384" y1="987.416" y2="987.416"/><!--MD5=[16e9775567ff8f304c2991a8a0c4aed5]
class ResidualTumorClassification--><rect codeLine="102" fill="#FEFECE" filter="url(#f1vsqsqnzhj6hv)" height="60.9551" id="ResidualTumorClassification" style="stroke:#A80036;stroke-width:1.5;" width="193" x="186" y="1085"/><ellipse cx="201" cy="1101" fill="#ADD1B2" rx="11" ry="11" style="stroke:#A80036;stroke-width:1.0;"/><path d="M203.4731,1107.1431 Q202.8921,1107.4419 202.2529,1107.5913 Q201.6138,1107.7407 200.9082,1107.7407 Q198.4014,1107.7407 197.0815,1106.0889 Q195.7617,1104.437 195.7617,1101.3159 Q195.7617,1098.1865 197.0815,1096.5347 Q198.4014,1094.8828 200.9082,1094.8828 Q201.6138,1094.8828 202.2612,1095.0322 Q202.9087,1095.1816 203.4731,1095.4805 L203.4731,1098.2031 Q202.8423,1097.6221 202.2488,1097.3523 Q201.6553,1097.0825 201.0244,1097.0825 Q199.6797,1097.0825 198.9949,1098.1492 Q198.3101,1099.2158 198.3101,1101.3159 Q198.3101,1103.4077 198.9949,1104.4744 Q199.6797,1105.541 201.0244,1105.541 Q201.6553,1105.541 202.2488,1105.2712 Q202.8423,1105.0015 203.4731,1104.4204 Z " fill="#000000"/><text fill="#000000" font-family="sans-serif" font-size="12" lengthAdjust="spacing" textLength="161" x="215" y="1105.5352">ResidualTumorClassification</text><line style="stroke:#A80036;stroke-width:1.5;" x1="187" x2="378" y1="1117" y2="1117"/><text fill="#000000" font-family="sans-serif" font-size="11" lengthAdjust="spacing" textLength="108" x="192" y="1131.6348">R: CodeableConcept</text><line style="stroke:#A80036;stroke-width:1.5;" x1="187" x2="378" y1="1137.9551" y2="1137.9551"/><!--MD5=[81a5abd404470e1328f70bcb46211fff]
class HistopathologischesGrading--><rect codeLine="108" fill="#FEFECE" filter="url(#f1vsqsqnzhj6hv)" height="60.9551" id="HistopathologischesGrading" style="stroke:#A80036;stroke-width:1.5;" width="192" x="420.5" y="856.5"/><ellipse cx="435.5" cy="872.5" fill="#ADD1B2" rx="11" ry="11" style="stroke:#A80036;stroke-width:1.0;"/><path d="M437.9731,878.6431 Q437.3921,878.9419 436.7529,879.0913 Q436.1138,879.2407 435.4082,879.2407 Q432.9014,879.2407 431.5815,877.5889 Q430.2617,875.937 430.2617,872.8159 Q430.2617,869.6865 431.5815,868.0347 Q432.9014,866.3828 435.4082,866.3828 Q436.1138,866.3828 436.7612,866.5322 Q437.4087,866.6816 437.9731,866.9805 L437.9731,869.7031 Q437.3423,869.1221 436.7488,868.8523 Q436.1553,868.5825 435.5244,868.5825 Q434.1797,868.5825 433.4949,869.6492 Q432.8101,870.7158 432.8101,872.8159 Q432.8101,874.9077 433.4949,875.9744 Q434.1797,877.041 435.5244,877.041 Q436.1553,877.041 436.7488,876.7712 Q437.3423,876.5015 437.9731,875.9204 Z " fill="#000000"/><text fill="#000000" font-family="sans-serif" font-size="12" lengthAdjust="spacing" textLength="160" x="449.5" y="877.0352">HistopathologischesGrading</text><line style="stroke:#A80036;stroke-width:1.5;" x1="421.5" x2="611.5" y1="888.5" y2="888.5"/><text fill="#000000" font-family="sans-serif" font-size="11" lengthAdjust="spacing" textLength="133" x="426.5" y="903.1348">Grade: CodeableConcept</text><line style="stroke:#A80036;stroke-width:1.5;" x1="421.5" x2="611.5" y1="909.4551" y2="909.4551"/><!--MD5=[dbccef13054c92a74ecb76298de2f96e]
class Therapie--><rect codeLine="119" fill="#FEFECE" filter="url(#f1vsqsqnzhj6hv)" height="48" id="Therapie" style="stroke:#A80036;stroke-width:1.5;" width="84" x="771.5" y="239.5"/><ellipse cx="786.5" cy="255.5" fill="#A9DCDF" rx="11" ry="11" style="stroke:#A80036;stroke-width:1.0;"/><path d="M786.3633,250.8481 L785.2095,255.9199 L787.5254,255.9199 Z M784.8691,248.6069 L787.8657,248.6069 L791.2109,261 L788.7622,261 L787.9985,257.937 L784.7197,257.937 L783.9727,261 L781.5239,261 Z " fill="#000000"/><text fill="#000000" font-family="sans-serif" font-size="12" font-style="italic" lengthAdjust="spacing" textLength="52" x="800.5" y="260.0352">Therapie</text><line style="stroke:#A80036;stroke-width:1.5;" x1="772.5" x2="854.5" y1="271.5" y2="271.5"/><line style="stroke:#A80036;stroke-width:1.5;" x1="772.5" x2="854.5" y1="279.5" y2="279.5"/><!--MD5=[cd9f3ad88d2eade7181ed8fb48b0d0c6]
class Prozedur--><rect codeLine="123" fill="#FEFECE" filter="url(#f1vsqsqnzhj6hv)" height="99.8203" id="Prozedur" style="stroke:#A80036;stroke-width:1.5;" width="189" x="719" y="410"/><ellipse cx="782.75" cy="426" fill="#ADD1B2" rx="11" ry="11" style="stroke:#A80036;stroke-width:1.0;"/><path d="M785.2231,432.1431 Q784.6421,432.4419 784.0029,432.5913 Q783.3638,432.7407 782.6582,432.7407 Q780.1514,432.7407 778.8315,431.0889 Q777.5117,429.437 777.5117,426.3159 Q777.5117,423.1865 778.8315,421.5347 Q780.1514,419.8828 782.6582,419.8828 Q783.3638,419.8828 784.0112,420.0322 Q784.6587,420.1816 785.2231,420.4805 L785.2231,423.2031 Q784.5923,422.6221 783.9988,422.3523 Q783.4053,422.0825 782.7744,422.0825 Q781.4297,422.0825 780.7449,423.1492 Q780.0601,424.2158 780.0601,426.3159 Q780.0601,428.4077 780.7449,429.4744 Q781.4297,430.541 782.7744,430.541 Q783.4053,430.541 783.9988,430.2712 Q784.5923,430.0015 785.2231,429.4204 Z " fill="#000000"/><text fill="#000000" font-family="sans-serif" font-size="12" lengthAdjust="spacing" textLength="53" x="803.25" y="430.5352">Prozedur</text><line style="stroke:#A80036;stroke-width:1.5;" x1="720" x2="907" y1="442" y2="442"/><text fill="#000000" font-family="sans-serif" font-size="11" lengthAdjust="spacing" textLength="129" x="725" y="456.6348">Code: CodeableConcept</text><text fill="#000000" font-family="sans-serif" font-size="11" lengthAdjust="spacing" textLength="172" x="725" y="469.5898">Durchführungsdatum: dateTime</text><text fill="#000000" font-family="sans-serif" font-size="11" lengthAdjust="spacing" textLength="177" x="725" y="482.5449">Dokumentationsdatum: dateTime</text><text fill="#000000" font-family="sans-serif" font-size="11" lengthAdjust="spacing" textLength="166" x="725" y="495.5">Körperstelle: CodeableConcept</text><line style="stroke:#A80036;stroke-width:1.5;" x1="720" x2="907" y1="501.8203" y2="501.8203"/><!--MD5=[9feba865d30dc5777caa8664f24d4c03]
class MedikamentöseTherapie--><rect codeLine="132" fill="#FEFECE" filter="url(#f1vsqsqnzhj6hv)" height="99.8203" id="MedikamentöseTherapie" style="stroke:#A80036;stroke-width:1.5;" width="208" x="943.5" y="410"/><ellipse cx="973.35" cy="426" fill="#ADD1B2" rx="11" ry="11" style="stroke:#A80036;stroke-width:1.0;"/><path d="M975.8231,432.1431 Q975.2421,432.4419 974.6029,432.5913 Q973.9638,432.7407 973.2582,432.7407 Q970.7514,432.7407 969.4315,431.0889 Q968.1117,429.437 968.1117,426.3159 Q968.1117,423.1865 969.4315,421.5347 Q970.7514,419.8828 973.2582,419.8828 Q973.9638,419.8828 974.6112,420.0322 Q975.2587,420.1816 975.8231,420.4805 L975.8231,423.2031 Q975.1923,422.6221 974.5988,422.3523 Q974.0053,422.0825 973.3744,422.0825 Q972.0297,422.0825 971.3449,423.1492 Q970.6601,424.2158 970.6601,426.3159 Q970.6601,428.4077 971.3449,429.4744 Q972.0297,430.541 973.3744,430.541 Q974.0053,430.541 974.5988,430.2712 Q975.1923,430.0015 975.8231,429.4204 Z " fill="#000000"/><text fill="#000000" font-family="sans-serif" font-size="12" lengthAdjust="spacing" textLength="143" x="990.65" y="430.5352">MedikamentöseTherapie</text><line style="stroke:#A80036;stroke-width:1.5;" x1="944.5" x2="1150.5" y1="442" y2="442"/><text fill="#000000" font-family="sans-serif" font-size="11" lengthAdjust="spacing" textLength="149" x="949.5" y="456.6348">Wirkstoff: CodeableConcept</text><text fill="#000000" font-family="sans-serif" font-size="11" lengthAdjust="spacing" textLength="138" x="949.5" y="469.5898">TherapieBeginn: dateTime</text><text fill="#000000" font-family="sans-serif" font-size="11" lengthAdjust="spacing" textLength="128" x="949.5" y="482.5449">TherapieEnde: dateTime</text><text fill="#000000" font-family="sans-serif" font-size="11" lengthAdjust="spacing" textLength="196" x="949.5" y="495.5">TherapieIntention: CodeableConcept</text><line style="stroke:#A80036;stroke-width:1.5;" x1="944.5" x2="1150.5" y1="501.8203" y2="501.8203"/><!--MD5=[0c0eec3cddb9b1bde967053c98f4a44e]
reverse link Patient to Vitalstatus--><path codeLine="18" d="M360.17,122.42 C313.85,143.46 260.62,168.76 213.5,194 C198.63,201.96 183,211.05 168.29,219.94 " fill="none" id="Patient-backto-Vitalstatus" style="stroke:#A80036;stroke-width:1.0;"/><polygon fill="#A80036" points="364.92,120.27,355.0713,120.3271,360.3628,122.3272,358.3628,127.6187,364.92,120.27" style="stroke:#A80036;stroke-width:1.0;"/><!--MD5=[64ed3a846ee5eb45373fba01509908ae]
reverse link Patient to Körpermaße--><path codeLine="24" d="M410.86,136.82 C391.94,155.29 371.39,175.4 352.5,194 C337.22,209.04 320.12,226.02 306.77,239.3 " fill="none" id="Patient-backto-Körpermaße" style="stroke:#A80036;stroke-width:1.0;"/><polygon fill="#A80036" points="414.62,133.15,405.3855,136.5741,411.042,136.6425,410.9735,142.299,414.62,133.15" style="stroke:#A80036;stroke-width:1.0;"/><!--MD5=[50dbf76ba147acd0a476536e0eb53d80]
reverse link Körpermaße to Körpergröße--><path codeLine="31" d="M256.2,297.69 C227.61,332.44 182.85,386.86 153.34,422.72 " fill="none" id="Körpermaße-backto-Körpergröße" style="stroke:#A80036;stroke-width:1.0;"/><polygon fill="#A80036" points="264.52,287.58,257.6179,289.6684,256.8911,296.8428,263.7931,294.7544,264.52,287.58" style="stroke:#A80036;stroke-width:1.0;"/><!--MD5=[512e472ffa1aca4da35abbcea755677d]
reverse link Körpermaße to Körpergewicht--><path codeLine="38" d="M287.05,300.89 C290.46,335.71 295.56,387.94 298.96,422.72 " fill="none" id="Körpermaße-backto-Körpergewicht" style="stroke:#A80036;stroke-width:1.0;"/><polygon fill="#A80036" points="285.75,287.58,282.3557,293.9423,286.9232,299.5225,290.3174,293.1602,285.75,287.58" style="stroke:#A80036;stroke-width:1.0;"/><!--MD5=[f343e5ad7bd8826356d4a18a20815faa]
reverse link Patient to Diagnose--><path codeLine="50" d="M478.5,138.2 C478.5,156.17 478.5,175.62 478.5,193.68 " fill="none" id="Patient-backto-Diagnose" style="stroke:#A80036;stroke-width:1.0;"/><polygon fill="#A80036" points="478.5,133.17,474.5,142.17,478.5,138.17,482.5,142.17,478.5,133.17" style="stroke:#A80036;stroke-width:1.0;"/><!--MD5=[2d310f26ad94af3e1c904969977f4eb8]
reverse link Patient to Laborbefund--><path codeLine="56" d="M545.77,136.72 C579.18,169.37 617.89,207.19 644.07,232.77 " fill="none" id="Patient-backto-Laborbefund" style="stroke:#A80036;stroke-width:1.0;"/><polygon fill="#A80036" points="542.14,133.17,545.7869,142.3188,545.7182,136.6623,551.3746,136.5936,542.14,133.17" style="stroke:#A80036;stroke-width:1.0;"/><!--MD5=[d3bbef92fade7981909f345006d4c514]
reverse link Laborbefund to Laborparameter--><path codeLine="71" d="M673.31,307.27 C671.65,367.38 668.62,476.6 666.86,539.94 " fill="none" id="Laborbefund-backto-Laborparameter" style="stroke:#A80036;stroke-width:1.0;"/><polygon fill="#A80036" points="673.68,294.16,669.5167,300.0479,673.3505,306.1555,677.5137,300.2676,673.68,294.16" style="stroke:#A80036;stroke-width:1.0;"/><text fill="#000000" font-family="sans-serif" font-size="13" lengthAdjust="spacing" textLength="44" x="673.5" y="376.5684">enthält</text><!--MD5=[11ebcbbda5b5785f5dc054d70ad60c18]
link Laborparameter to Probe--><path codeLine="72" d="M661.17,640.13 C654.45,716.19 641.09,867.01 629.5,995 C627.36,1018.63 624.95,1044.88 622.93,1066.75 " fill="none" id="Laborparameter-to-Probe" style="stroke:#A80036;stroke-width:1.0;"/><polygon fill="#A80036" points="622.45,1071.92,627.2573,1063.3241,622.9078,1066.941,619.2909,1062.5915,622.45,1071.92" style="stroke:#A80036;stroke-width:1.0;"/><!--MD5=[675e9e3b9dbd643b01516831aed4d03f]
reverse link TNM to ResidualTumorClassification--><path codeLine="106" d="M282.5,1008.41 C282.5,1036.95 282.5,1064.88 282.5,1084.92 " fill="none" id="TNM-backto-ResidualTumorClassification" style="stroke:#A80036;stroke-width:1.0;"/><polygon fill="#A80036" points="282.5,995.28,278.5,1001.28,282.5,1007.28,286.5,1001.28,282.5,995.28" style="stroke:#A80036;stroke-width:1.0;"/><text fill="#000000" font-family="sans-serif" font-size="13" lengthAdjust="spacing" textLength="70" x="283.5" y="1038.5684">ist Teil von</text><!--MD5=[6c485deefd89ec33d33f022781c0a2ed]
reverse link Assessment to Staging--><path codeLine="112" d="M460.55,495.7 C435.78,543.59 391.77,628.67 370.57,669.66 " fill="none" id="Assessment-backto-Staging" style="stroke:#A80036;stroke-width:1.0;"/><polygon fill="#A80036" points="466.56,484.09,460.2504,487.5812,461.0462,494.7482,467.3559,491.2571,466.56,484.09" style="stroke:#A80036;stroke-width:1.0;"/><!--MD5=[64a48664fa8359ba58d25dbc334fc837]
reverse link Assessment to Grading--><path codeLine="113" d="M481.31,497.24 C485.05,545.4 491.54,629.11 494.69,669.66 " fill="none" id="Assessment-backto-Grading" style="stroke:#A80036;stroke-width:1.0;"/><polygon fill="#A80036" points="480.29,484.09,476.7704,490.3839,481.2265,496.0534,484.746,489.7595,480.29,484.09" style="stroke:#A80036;stroke-width:1.0;"/><!--MD5=[9db3bad806de826ea0ab69f42fce83fe]
reverse link Staging to TNM--><path codeLine="114" d="M344.39,730.46 C338.83,744.42 332.13,761.26 325.22,778.63 " fill="none" id="Staging-backto-TNM" style="stroke:#A80036;stroke-width:1.0;"/><polygon fill="#A80036" points="349.33,718.04,343.3961,722.1374,344.8961,729.1908,350.83,725.0934,349.33,718.04" style="stroke:#A80036;stroke-width:1.0;"/><!--MD5=[73f4b93a73d39402696b90cef48ffaec]
reverse link Grading to HistopathologischesGrading--><path codeLine="115" d="M500.31,731.39 C504.11,767.63 509.86,822.6 513.39,856.3 " fill="none" id="Grading-backto-HistopathologischesGrading" style="stroke:#A80036;stroke-width:1.0;"/><polygon fill="#A80036" points="498.91,718.04,495.5583,724.4248,500.1628,729.9744,503.5145,723.5896,498.91,718.04" style="stroke:#A80036;stroke-width:1.0;"/><!--MD5=[81890c8ffcb7a6a7ef961e834f08582c]
link Diagnose to Assessment--><path codeLine="116" d="M478.5,333.07 C478.5,366.56 478.5,405.04 478.5,430.56 " fill="none" id="Diagnose-to-Assessment" style="stroke:#A80036;stroke-width:1.0;"/><polygon fill="#A80036" points="478.5,435.8,482.5,426.8,478.5,430.8,474.5,426.8,478.5,435.8" style="stroke:#A80036;stroke-width:1.0;"/><text fill="#000000" font-family="sans-serif" font-size="13" lengthAdjust="spacing" textLength="128" x="479.5" y="376.5684">nachgewiesen durch</text><!--MD5=[b000c9f496b7b93be1ec0a94abb59dcd]
link HistopathologischesGrading to Probe--><path codeLine="117" d="M529.83,917.61 C546.96,955.64 576.88,1022.09 597.18,1067.16 " fill="none" id="HistopathologischesGrading-to-Probe" style="stroke:#A80036;stroke-width:1.0;"/><polygon fill="#A80036" points="599.24,1071.73,599.1829,1061.8813,597.1828,1067.1728,591.8913,1065.1728,599.24,1071.73" style="stroke:#A80036;stroke-width:1.0;"/><!--MD5=[47ea644df06ade88ab84eb39335fbead]
reverse link Therapie to Prozedur--><path codeLine="130" d="M813.5,300.66 C813.5,331.43 813.5,375.92 813.5,409.91 " fill="none" id="Therapie-backto-Prozedur" style="stroke:#A80036;stroke-width:1.0;"/><polygon fill="#A80036" points="813.5,287.58,809.5,293.58,813.5,299.58,817.5,293.58,813.5,287.58" style="stroke:#A80036;stroke-width:1.0;"/><!--MD5=[d7540a441ffda6a6cfad119bf4935ccb]
reverse link Therapie to MedikamentöseTherapie--><path codeLine="139" d="M851.63,296.19 C888.69,327 945.52,374.24 988.44,409.91 " fill="none" id="Therapie-backto-MedikamentöseTherapie" style="stroke:#A80036;stroke-width:1.0;"/><polygon fill="#A80036" points="841.26,287.58,843.3115,294.4931,850.4819,295.2583,848.4304,288.3452,841.26,287.58" style="stroke:#A80036;stroke-width:1.0;"/><!--MD5=[ea048c0ea6e0d760f7fefb86d6a9ae33]
reverse link Patient to Therapie--><path codeLine="140" d="M596.84,115.2 C644.73,135.72 699.27,162.56 744.5,194 C763.07,206.91 781.11,225.07 794.08,239.45 " fill="none" id="Patient-backto-Therapie" style="stroke:#A80036;stroke-width:1.0;"/><polygon fill="#A80036" points="592.22,113.24,598.9356,120.4442,596.8209,115.1975,602.0676,113.0828,592.22,113.24" style="stroke:#A80036;stroke-width:1.0;"/><!--MD5=[bdf5eeb2b9d16715f9b188d3b4e71576]
@startuml "GOLD" 
skinparam groupInheritance 2

class Patient {
    Name: HumanName
    GeschlechtAdministrativ: code
    Geburtsdatum: date 
    Adresse: Address
    Ethnizität: CodeableConcept
    GeschlechtBiologisch: CodeableConcept
}

class Vitalstatus {
    Verstorben: boolean
    Todeszeitpunkt: dateTime
    Todesursache: CodeableConcept
}

Patient <- - Vitalstatus

abstract Körpermaße {

}

Patient <- - Körpermaße

class Körpergröße {
    Messzeitpunkt: dateTime
    Messwert: Quantity
}

Körpermaße *- - Körpergröße

class Körpergewicht {
    Messzeitpunkt: dateTime
    Messwert: Quantity
}

Körpermaße *- - Körpergewicht

class Diagnose {
    ID: Identifier
    KlinischerStatus: CodeableConcept
    Diagnosesicherheit: CodeableConcept
    Diagnosecode: CodeableConcept
    KlinischRelevanterZeitraum: Period
    Dokumentationsdatum: dateTime
    Manifestation: CodeableConcept
}

Patient <- - Diagnose

class Laborbefund {
    ID: Identifier
}

Patient <- - Laborbefund

class Laborparameter {
    Code: CodeableConcept
    Laborwert: Quantity
    Messzeitpunkt: dateTime
    Referenzbereich: Quantity
}

class Probe {
    ID: Identifier
    Probenart: CodeableConcept
    Entnahmestelle: CodeableConcept
}

Laborbefund *- - Laborparameter : enthält
Laborparameter - -> Probe

abstract Assessment {

}

abstract Staging {

}

abstract Grading {

}

class TNM {
    y: CodeableConcept
    r: CodeableConcept
    a: CodeableConcept
    T: CodeableConcept
    m: CodeableConcept
    N: CodeableConcept
    M: CodeableConcept
    L: CodeableConcept
    V: CodeableConcept
    Pn: CodeableConcept
    S: CodeableConcept
    numberOfNodesAffected: Quantity
    numberOfNodesExamined: Quantity
}

class ResidualTumorClassification {
    R: CodeableConcept
}

TNM *- - ResidualTumorClassification : ist Teil von

class HistopathologischesGrading {
    Grade: CodeableConcept
}

Assessment *- - Staging
Assessment *- - Grading
Staging *- - TNM
Grading *- - HistopathologischesGrading
Diagnose - -> Assessment : nachgewiesen durch
HistopathologischesGrading - -> Probe

abstract Therapie {

}

class Prozedur {
    Code: CodeableConcept
    Durchführungsdatum: dateTime
    Dokumentationsdatum: dateTime
    Körperstelle: CodeableConcept
}

Therapie *- - Prozedur

class MedikamentöseTherapie {
    Wirkstoff: CodeableConcept
    TherapieBeginn: dateTime
    TherapieEnde: dateTime
    TherapieIntention: CodeableConcept
}

Therapie *- - MedikamentöseTherapie
Patient <- - Therapie

@enduml

PlantUML version 1.2022.0(Tue Jan 11 17:16:42 CET 2022)
(GPL source distribution)
Java Runtime: OpenJDK Runtime Environment
JVM: OpenJDK 64-Bit Server VM
Default Encoding: UTF-8
Language: en
Country: DE
--></g></svg>