<?xml version="1.0" encoding="utf-8"?>
<!-- Generator: Adobe Illustrator 23.0.2, SVG Export Plug-In . SVG Version: 6.00 Build 0)  -->
<svg version="1.1" id="Ebene_1" xmlns="http://www.w3.org/2000/svg" xmlns:xlink="http://www.w3.org/1999/xlink" x="0px" y="0px"
	 viewBox="0 0 420.6 198.4" style="enable-background:new 0 0 420.6 198.4;" xml:space="preserve">
<style type="text/css">
	.st0{fill:#c8d409;}
	.st1{fill:#0bbbef;}
	.st2{fill:#004994;}
	.st3{fill:#ffdd00;}
	.st4{fill:#cf007f;}
	.st5{fill:#f59c00;}
	.st6{fill:#009fed;}
	.st7{fill:#000000;}
</style>
<g id="Gruppe_23" transform="translate(-70.863 -293.437)">
	<path id="Pfad_209" class="st0" d="M414.3,293.4h-15.6c-12.7,0.1-23,10.4-23,23.2c0,0,0,0,0,0V332h38.6V293.4z"/>
	<rect id="Rechteck_62" x="414.3" y="293.4" class="st1" width="38.6" height="38.6"/>
	<rect id="Rechteck_63" x="414.3" y="447.7" class="st1" width="38.6" height="38.6"/>
	<path id="Pfad_210" class="st2" d="M468.5,293.4h-15.6V332h38.6v-15.4C491.5,303.9,481.3,293.5,468.5,293.4
		C468.5,293.4,468.5,293.4,468.5,293.4z"/>
	<rect id="Rechteck_64" x="375.8" y="332" class="st3" width="38.6" height="38.6"/>
	<rect id="Rechteck_65" x="452.9" y="332" class="st1" width="38.6" height="38.6"/>
	<rect id="Rechteck_66" x="375.8" y="370.6" class="st4" width="38.6" height="38.6"/>
	<rect id="Rechteck_67" x="452.9" y="370.6" class="st3" width="38.6" height="38.6"/>
	<rect id="Rechteck_68" x="375.8" y="409.1" class="st1" width="38.6" height="38.6"/>
	<rect id="Rechteck_69" x="452.9" y="409.1" class="st5" width="38.6" height="38.6"/>
	<path id="Pfad_211" class="st6" d="M414.3,447.7L414.3,447.7l-38.6,0v15.4c-0.1,12.7,10.2,23.1,22.9,23.2h15.7V447.7z"/>
	<path id="Pfad_212" class="st4" d="M452.9,447.7v38.6h15.7c12.7-0.1,23-10.4,22.9-23.2v-15.4L452.9,447.7L452.9,447.7z"/>
	<g id="Gruppe_20">
		<g id="Gruppe_18">
			<path id="Pfad_213" class="st7" d="M102.7,322.4v-3.9c0-2.7,0.5-5.7,3.9-5.7c2.7,0,3.8,2.2,3.8,4.6v5.5c0,1.1-0.3,2.2-0.9,3.1
				L98,351.2c-0.7,1.6-2.1,4.8-4,4.8h-5c-1.9,0-3.3-3.2-4-4.8L73.5,326c-0.6-0.9-0.9-2-0.9-3.1v-5.5c0-2.5,1-4.6,3.8-4.6
				c3.4,0,3.9,3,3.9,5.7v3.9L91.5,348L102.7,322.4z"/>
			<path id="Pfad_214" class="st7" d="M143.3,348.3h5.8c2.6,0,5.3,0.6,5.3,3.9c0,3.4-3,3.9-5.3,3.9h-19.6c-2.2,0-5.3-0.5-5.3-3.9
				c0-3.3,2.7-3.9,5.3-3.9h6.1v-27.8h-6.1c-2.2,0-5.3-0.5-5.3-3.9c0-3.3,2.7-3.9,5.3-3.9h8.1c4.4,0,5.7,0.8,5.7,5.4L143.3,348.3z
				 M131.6,297.2c0-2.7,1.5-3.6,3.6-3.6h4.4c2.1,0,3.6,0.9,3.6,3.6v3.7c0,2.7-1.5,3.6-3.6,3.6h-4.4c-2.1,0-3.6-0.9-3.6-3.6V297.2z"
				/>
			<path id="Pfad_215" class="st7" d="M175.9,320.4c-1.6,0-4.3-0.3-4.3,2.2c0,1.3,1,1.8,2.1,2.2l19.3,8.7c5,2.2,7.6,5.4,7.6,10.9
				c0,7.8-5.3,11.5-12.7,11.5h-11.9c-4,0-6.7-0.2-9.6-2.4c-1.4-1.1-3.5-2.6-3.5-4.5c0-2.2,1.8-3.9,4-3.9c1.1,0,2.2,0.5,3,1.4
				c1.4,1.5,3.8,1.7,6.2,1.7h10.4c2.7,0,6.4,0.2,6.4-4.3c0-1.8-2.2-3.1-4-3.9l-18.2-8.3c-4.3-1.9-6.7-4.4-6.7-9.4
				c0-6.1,4.8-9.8,10.6-9.8h13.2c4.3,0,6,0.2,8.9,2.6c1.4,1.2,3.1,2.2,3.1,4.3c0,2.1-1.8,3.9-3.9,3.9c-1.3,0-2.5-0.6-3.3-1.6
				c-1.3-1.4-2.7-1.5-4.7-1.5L175.9,320.4z"/>
			<path id="Pfad_216" class="st7" d="M233,348.3h5.8c2.6,0,5.3,0.6,5.3,3.9c0,3.4-3.1,3.9-5.3,3.9h-19.6c-2.2,0-5.3-0.5-5.3-3.9
				c0-3.3,2.7-3.9,5.3-3.9h6.1v-27.8h-6.1c-2.2,0-5.3-0.5-5.3-3.9c0-3.3,2.7-3.9,5.3-3.9h8.1c4.4,0,5.7,0.8,5.7,5.4V348.3z
				 M221.3,297.2c0-2.7,1.5-3.6,3.6-3.6h4.4c2.1,0,3.6,0.9,3.6,3.6v3.7c0,2.7-1.5,3.6-3.6,3.6H225c-2.1,0-3.6-0.9-3.6-3.6V297.2z"/>
			<path id="Pfad_217" class="st7" d="M251.6,327.1c0-5.1,1-6.9,4.9-10c3.8-3.1,5.5-4.3,10.9-4.3h6.1c5.4,0,7.1,1.2,10.9,4.3
				c3.9,3.1,4.9,4.9,4.9,10v14.5c0,5.1-1.3,7-5.3,10.4s-5.6,4-10.5,4h-6.1c-4.9,0-6.5-0.6-10.5-4c-4-3.4-5.3-5.3-5.3-10.4
				L251.6,327.1z M259.3,341.6c0,1.6,0.6,2.6,2.8,4.6c1.4,1.4,3.3,2.2,5.3,2.1h6.1c2,0.1,3.9-0.7,5.3-2.1c2.3-1.9,2.8-3,2.8-4.6
				v-14.5c0-1.6-0.6-2.6-2.8-4.6c-1.4-1.4-3.3-2.2-5.3-2.1h-6.1c-2-0.1-3.9,0.7-5.3,2.1c-2.2,1.9-2.8,3-2.8,4.6V341.6z"/>
			<path id="Pfad_218" class="st7" d="M310.9,328.3v22.4c0,2.6-0.6,5.3-3.8,5.3s-3.9-2.7-3.9-5.3v-32.3c0-2.8,0.3-5.7,3.9-5.7
				c3.5,0,3.8,2.9,3.8,5.6v1l6.3-4.1c2-1.3,4.2-2.6,6.7-2.6h5.7c2.7-0.1,5.2,0.9,7.1,2.8c3.5,3,3.3,6.3,3.5,10.4l0.3,24.3
				c0.1,2.7-0.3,5.8-3.8,5.8c-3.1,0-3.8-2.7-3.9-5.2l-0.3-23.9c-0.2-4.7-0.6-6.6-5.2-6.6h-2.6c-0.9,0-1.7,0.3-2.4,0.7L310.9,328.3z"
				/>
		</g>
		<g id="Gruppe_19">
			<path id="Pfad_219" class="st7" d="M186.9,372.2h-20.6c-2.3,0-5.3-0.5-5.3-3.9c0-3.3,2.7-3.9,5.3-3.9h25.1c3.9,0,5.2,1.3,5.2,4
				v2.6c0,1.5-0.5,2.7-2.2,4.3l-25.9,24.7h22.8c2.6,0,5.3,0.6,5.3,3.9c0,3.4-3.1,3.9-5.3,3.9h-26.8c-5.4,0-5.7-2.3-5.7-4.5v-2
				c0-1.8,0.1-2.4,1.4-3.7L186.9,372.2z"/>
			<path id="Pfad_220" class="st7" d="M222.5,407.8c-3.2,0-4.5,0-6.9-2.1l-3.3-2.9c-3-2.7-3.9-4.5-3.9-8.7v-14.9
				c0-4.1,0.6-6.5,3.8-9.2l2.7-2.3c3.6-3.1,5.4-3.2,8.5-3.2h7.1c3.8,0,5.5,0.4,8.5,2.8l3.1,2.5c3.5,2.8,4,5.8,4,10v6.2
				c0,4.4-0.7,5.7-5.3,5.7h-24.7v2.6c0.1,0.9,0.5,1.6,1.1,2.2l1.9,2.1c1,1.1,2.6,1.5,5.1,1.5h16.5c2.6,0,5.3,0.6,5.3,3.9
				c0,3.4-3.1,3.9-5.3,3.9L222.5,407.8z M216.1,384h22.3v-4.6c0-1.5,0.1-2.7-1-3.6l-3-2.6c-1.1-0.8-2.4-1.1-3.7-1h-6.5
				c-1.4-0.2-2.8,0.2-3.9,0.9l-2.7,1.9c-1,0.7-1.6,1.3-1.6,3.5V384z"/>
			<path id="Pfad_221" class="st7" d="M262,370.1c0-2.8,0.3-5.7,3.9-5.7c3.1,0,3.9,2.6,3.9,5.1v3.1l4-5c2-2.1,3.6-3.3,6-3.3h4.5
				c2.8-0.1,5.6,1,7.6,3.1c2.4,2.3,3.6,5.5,3.4,8.7c0,2.7-0.5,5.4-3.8,5.4c-2.8,0-3.9-2.3-3.9-4.7c0.1-1.2-0.1-2.4-0.8-3.4
				c-1-1.4-2.8-1.4-4.7-1.4h-0.6c-1.4,0-2.5,0.7-3.9,1.8l-7.9,8.9v19.5c0,2.7-0.6,5.3-3.9,5.3s-3.9-2.6-3.9-5.3L262,370.1z"/>
			<path id="Pfad_222" class="st7" d="M303.1,378.9c0-5.1,1-6.9,4.9-10c3.8-3.1,5.5-4.3,10.9-4.3h6.1c5.4,0,7.1,1.2,10.9,4.3
				c3.9,3.1,4.9,4.9,4.9,10v14.5c0,5.1-1.3,7-5.3,10.4s-5.6,4-10.5,4h-6.1c-4.9,0-6.5-0.6-10.5-4s-5.3-5.3-5.3-10.4L303.1,378.9z
				 M310.8,393.4c0,1.6,0.6,2.6,2.8,4.6c1.4,1.4,3.3,2.2,5.3,2.1h6.1c2,0.1,3.9-0.7,5.3-2.1c2.2-1.9,2.8-3,2.8-4.6v-14.5
				c0-1.6-0.6-2.6-2.8-4.6c-1.4-1.4-3.3-2.2-5.3-2.1h-6.1c-2-0.1-3.9,0.7-5.3,2.1c-2.2,1.9-2.8,3-2.8,4.6V393.4z"/>
		</g>
	</g>
	<g id="Gruppe_21">
		<path id="Pfad_223" class="st7" d="M340.4,425.6H72.6c-0.4,0-0.7-0.3-0.7-0.7s0.3-0.7,0.7-0.7h267.7c0.4,0,0.7,0.3,0.7,0.7
			S340.8,425.6,340.4,425.6z"/>
	</g>
</g>
<g id="Gruppe_73" transform="translate(524.829 -1090.842)">
	<path id="Pfad_281" d="M-512.7,1284.2c-1.6,0.3-3.2,0.4-4.8,0.4c-3,0-6.3-2-6.3-7.5v-3.2c0-5.9,3.4-7.5,6.5-7.5
		c1.5,0,3.1,0.1,4.6,0.3c0.2,0,0.4,0.1,0.4,0.4v1.2c0,0.2-0.1,0.2-0.3,0.2h-0.1c-1.4-0.1-2.5-0.2-4.6-0.2c-2.2,0-4.3,1.2-4.3,5.6
		v3.2c0,4,1.8,5.6,4.1,5.6c1.5,0,2.5-0.1,3-0.1v-6.9c0-0.2,0.2-0.5,0.4-0.5c0,0,0,0,0,0h1.3c0.3,0,0.5,0.2,0.5,0.5v8.1
		C-512.2,1283.9-512.4,1284.2-512.7,1284.2z"/>
	<path id="Pfad_282" d="M-498.3,1278.4h-8.1v0.3c0,2.9,1.1,3.9,3.4,3.9c1.4,0,2.9-0.1,4.3-0.3h0.1c0.2,0,0.4,0.1,0.4,0.3
		c0,0,0,0,0,0v0.8c0,0.3-0.1,0.5-0.5,0.6c-1.4,0.3-2.9,0.4-4.3,0.4c-2.8,0-5.5-1.3-5.5-5.8v-2.2c0-3.5,1.9-5.7,5.4-5.7
		c3.5,0,5.3,2.2,5.3,5.7v1.3C-497.8,1278.2-498,1278.4-498.3,1278.4z M-500,1276.6c0-2.7-1-3.8-3.2-3.8c-2.1,0-3.2,1.2-3.2,3.8v0.2
		h6.4L-500,1276.6z"/>
	<path id="Pfad_283" d="M-478.8,1284.4h-1.2c-0.3,0-0.5-0.2-0.5-0.5l0,0v-8.6c0-2-0.9-2.6-2.2-2.6c-1,0.1-1.9,0.3-2.8,0.7
		c0.2,0.6,0.2,1.3,0.2,1.9v8.6c0,0.3-0.2,0.5-0.4,0.5c0,0,0,0,0,0h-1.3c-0.2,0-0.4-0.2-0.4-0.5c0,0,0,0,0,0v-8.6
		c0-2.1-0.6-2.5-1.9-2.5c-1,0.1-2,0.4-3,0.9v10.2c0,0.3-0.2,0.5-0.4,0.5h-1.3c-0.2,0-0.4-0.2-0.4-0.5c0,0,0,0,0,0v-12.3
		c0-0.3,0.2-0.5,0.4-0.5c0,0,0,0,0,0h1.2c0.3,0,0.5,0.2,0.5,0.5c0,0,0,0,0,0v0.5c1-0.7,2.3-1.1,3.5-1.1c0.9-0.1,1.8,0.3,2.4,1
		c1.3-0.6,2.6-1,4-1c2.2,0,3.9,1.1,3.9,4.5v8.6C-478.3,1284.2-478.5,1284.4-478.8,1284.4z"/>
	<path id="Pfad_284" d="M-464.6,1278.4h-8.1v0.3c0,2.9,1.1,3.9,3.4,3.9c1.4,0,2.9-0.1,4.3-0.3h0.1c0.2,0,0.4,0.1,0.4,0.3
		c0,0,0,0,0,0v0.8c0,0.3-0.1,0.5-0.5,0.6c-1.4,0.3-2.9,0.4-4.3,0.4c-2.8,0-5.5-1.3-5.5-5.8v-2.2c0-3.5,1.9-5.7,5.4-5.7
		c3.5,0,5.3,2.2,5.3,5.7v1.3C-464.2,1278.2-464.3,1278.4-464.6,1278.4z M-466.3,1276.6c0-2.7-1-3.8-3.2-3.8c-2.1,0-3.2,1.2-3.2,3.8
		v0.2h6.4L-466.3,1276.6z"/>
	<path id="Pfad_285" d="M-458.7,1269h-1.2c-0.3,0-0.5-0.2-0.5-0.5v-1.9c0-0.3,0.2-0.5,0.5-0.5h1.2c0.3,0,0.5,0.2,0.5,0.5v1.9
		C-458.2,1268.8-458.4,1269-458.7,1269z M-458.7,1284.4h-1.2c-0.3,0-0.5-0.2-0.5-0.5l0,0v-12.3c0-0.3,0.2-0.5,0.5-0.5c0,0,0,0,0,0
		h1.2c0.3,0,0.5,0.2,0.5,0.5v12.3C-458.3,1284.2-458.5,1284.4-458.7,1284.4z"/>
	<path id="Pfad_286" d="M-444.4,1284.4h-1.2c-0.3,0-0.5-0.2-0.5-0.5v-8c0-2.4-0.8-3.2-2.7-3.2c-1.1,0.1-2.3,0.4-3.3,0.9v10.2
		c0,0.3-0.2,0.5-0.5,0.5h-1.2c-0.3,0-0.5-0.2-0.5-0.5v-12.3c0-0.3,0.2-0.5,0.4-0.5c0,0,0,0,0,0h1.2c0.3,0,0.5,0.2,0.5,0.5
		c0,0,0,0,0,0v0.5c1.2-0.7,2.5-1.1,3.8-1.1c2.9,0,4.2,1.8,4.2,5v8C-443.9,1284.2-444.1,1284.4-444.4,1284.4z"/>
	<path id="Pfad_287" d="M-436.1,1284.6c-1.3,0-2.6-0.1-3.8-0.4c-0.3-0.1-0.5-0.2-0.5-0.5v-0.8c0-0.2,0.2-0.4,0.4-0.4c0,0,0,0,0,0
		h0.1c1.2,0.1,2.9,0.3,3.8,0.3c1.6,0,2.4-0.4,2.4-1.7c0-0.7-0.4-1.2-1.8-2l-2.4-1.5c-1.5-0.9-2.5-1.9-2.5-3.5c0-2.5,1.9-3.2,4.4-3.2
		c1.3,0,2.5,0.1,3.8,0.3c0.3,0,0.5,0.2,0.5,0.5v0.8c0,0.2-0.1,0.4-0.3,0.4c0,0-0.1,0-0.1,0h-0.1c-0.8-0.1-2.4-0.2-3.8-0.2
		c-1.4,0-2.2,0.2-2.2,1.4c0,0.7,0.6,1.2,1.7,1.8l2.4,1.4c2,1.2,2.7,2.2,2.7,3.7C-431.6,1283.5-433.4,1284.6-436.1,1284.6z"/>
	<path id="Pfad_288" d="M-419.3,1284.4h-1.1c-0.3,0-0.5-0.2-0.5-0.5v-0.5c-1.1,0.7-2.4,1.1-3.7,1.2c-2.1,0-3.9-0.9-3.9-3.9v-0.3
		c0-2.6,1.5-3.9,5.8-3.9h1.8v-1c0-2-0.7-2.7-2.6-2.7c-1.2,0-2.5,0.1-3.7,0.2h-0.1c-0.2,0-0.4-0.1-0.4-0.4v-0.8
		c0-0.3,0.2-0.4,0.5-0.5c1.2-0.2,2.5-0.3,3.7-0.3c3.4,0,4.7,1.7,4.7,4.5v8.4C-418.8,1284.2-419,1284.4-419.3,1284.4z M-421,1278
		h-1.8c-2.9,0-3.7,0.7-3.7,2.4v0.3c0,1.7,0.8,2.2,2.2,2.2c1.2,0,2.3-0.4,3.3-1V1278z"/>
	<path id="Pfad_289" d="M-399.4,1284.4h-1.2c-0.3,0-0.5-0.2-0.5-0.5l0,0v-8.6c0-2-0.9-2.6-2.2-2.6c-1,0.1-1.9,0.3-2.8,0.7
		c0.2,0.6,0.2,1.3,0.2,1.9v8.6c0,0.3-0.2,0.5-0.4,0.5c0,0,0,0,0,0h-1.3c-0.2,0-0.4-0.2-0.4-0.5c0,0,0,0,0,0v-8.6
		c0-2.1-0.6-2.5-1.9-2.5c-1,0.1-2,0.4-3,0.9v10.2c0,0.3-0.2,0.5-0.4,0.5c0,0,0,0,0,0h-1.3c-0.2,0-0.4-0.2-0.4-0.5c0,0,0,0,0,0v-12.3
		c0-0.3,0.2-0.5,0.4-0.5c0,0,0,0,0,0h1.2c0.3,0,0.5,0.2,0.5,0.5c0,0,0,0,0,0v0.5c1-0.7,2.3-1.1,3.5-1.1c0.9-0.1,1.8,0.3,2.4,1
		c1.3-0.6,2.6-1,4-1c2.2,0,3.9,1.1,3.9,4.5v8.6C-398.9,1284.2-399.1,1284.4-399.4,1284.4z"/>
	<path id="Pfad_290" d="M-377.9,1272.7l-0.9,0.2c0.6,0.7,0.9,1.6,0.8,2.5v0.2c0,2.7-1.6,4.1-5.4,4.1c-1,0-1.9-0.1-2.8-0.5
		c-0.4,0.1-0.6,0.4-0.6,0.8c0,0.4,0.2,0.6,0.7,0.8l3.6,0.9c2.4,0.6,4.6,1.3,4.6,3.6v0.2c0,2.3-1.5,3.7-5.5,3.7
		c-3.8,0-5.6-1.5-5.6-3.8v-0.2c0-1.2,0.6-2.3,1.5-3.1l-0.2-0.1c-0.7-0.3-1.2-1.1-1.1-1.9v0c0-0.7,0.4-1.4,1-1.7
		c-0.8-0.7-1.2-1.8-1.1-2.8v-0.2c0-2.2,1.2-4.3,5.4-4.3h5.3c0.3,0,0.5,0.2,0.6,0.5v0.6C-377.4,1272.6-377.6,1272.7-377.9,1272.7z
		 M-379.8,1285.3c0-0.9-0.8-1.3-2.9-1.9l-2.7-0.7c-0.8,0.6-1.2,1.5-1.2,2.5v0.2c0,1.4,0.8,2.2,3.5,2.2c2.8,0,3.4-0.8,3.4-2.1V1285.3
		z M-380,1275.4c0-1.5-0.7-2.6-3.3-2.6c-2.7,0-3.3,1.2-3.3,2.6v0.2c0,1.1,0.5,2.5,3.3,2.5c2.6,0,3.3-1,3.3-2.5V1275.4z"/>
	<path id="Pfad_291" d="M-364.5,1278.4h-8.1v0.3c0,2.9,1.1,3.9,3.4,3.9c1.4,0,2.9-0.1,4.3-0.3h0.1c0.2,0,0.4,0.1,0.4,0.3
		c0,0,0,0,0,0v0.8c0,0.3-0.1,0.5-0.5,0.6c-1.4,0.3-2.9,0.4-4.3,0.4c-2.8,0-5.5-1.3-5.5-5.8v-2.2c0-3.5,1.9-5.7,5.4-5.7
		c3.5,0,5.3,2.2,5.3,5.7v1.3C-364,1278.2-364.2,1278.4-364.5,1278.4z M-366.2,1276.6c0-2.7-1-3.8-3.2-3.8c-2.1,0-3.2,1.2-3.2,3.8
		v0.2h6.4L-366.2,1276.6z"/>
	<path id="Pfad_292" d="M-350,1272.7l-0.9,0.2c0.6,0.7,0.9,1.6,0.8,2.5v0.2c0,2.7-1.6,4.1-5.4,4.1c-1,0-1.9-0.1-2.8-0.5
		c-0.4,0.1-0.6,0.4-0.6,0.8c0,0.4,0.2,0.6,0.8,0.8l3.6,0.9c2.4,0.6,4.6,1.3,4.6,3.6v0.2c0,2.3-1.5,3.7-5.5,3.7
		c-3.8,0-5.6-1.5-5.6-3.8v-0.2c0-1.2,0.6-2.3,1.5-3.1l-0.2-0.1c-0.7-0.3-1.2-1.1-1.1-1.9v0c0-0.7,0.4-1.4,1-1.7
		c-0.8-0.7-1.2-1.8-1.1-2.8v-0.2c0-2.2,1.2-4.3,5.4-4.3h5.3c0.3,0,0.5,0.2,0.6,0.5v0.6C-349.5,1272.6-349.7,1272.7-350,1272.7z
		 M-351.9,1285.3c0-0.9-0.8-1.3-3-1.9l-2.7-0.7c-0.8,0.6-1.2,1.5-1.2,2.5v0.2c0,1.4,0.8,2.2,3.5,2.2c2.8,0,3.4-0.8,3.4-2.1
		L-351.9,1285.3z M-352.1,1275.4c0-1.5-0.7-2.6-3.3-2.6c-2.7,0-3.3,1.2-3.3,2.6v0.2c0,1.1,0.5,2.5,3.3,2.5c2.6,0,3.3-1,3.3-2.5
		V1275.4z"/>
	<path id="Pfad_293" d="M-336.6,1278.4h-8.1v0.3c0,2.9,1.1,3.9,3.4,3.9c1.4,0,2.9-0.1,4.3-0.3h0.1c0.2,0,0.4,0.1,0.4,0.3
		c0,0,0,0,0,0v0.8c0,0.3-0.1,0.5-0.5,0.6c-1.4,0.3-2.9,0.4-4.3,0.4c-2.8,0-5.5-1.3-5.5-5.8v-2.2c0-3.5,1.9-5.7,5.4-5.7
		c3.5,0,5.3,2.2,5.3,5.7v1.3C-336.1,1278.2-336.3,1278.4-336.6,1278.4z M-338.3,1276.6c0-2.7-1-3.8-3.2-3.8c-2.1,0-3.2,1.2-3.2,3.8
		v0.2h6.4L-338.3,1276.6z"/>
	<path id="Pfad_294" d="M-322.9,1284.4h-1.2c-0.3,0-0.5-0.2-0.5-0.5l0,0v-8c0-2.4-0.8-3.2-2.7-3.2c-1.1,0.1-2.3,0.4-3.3,0.9v10.2
		c0,0.3-0.2,0.5-0.5,0.5h-1.2c-0.3,0-0.5-0.2-0.5-0.5v-12.3c0-0.3,0.2-0.5,0.4-0.5c0,0,0,0,0,0h1.2c0.3,0,0.5,0.2,0.5,0.5
		c0,0,0,0,0,0v0.5c1.2-0.7,2.5-1.1,3.8-1.1c2.9,0,4.2,1.8,4.2,5v8C-322.4,1284.2-322.7,1284.4-322.9,1284.4z"/>
	<path id="Pfad_295" d="M-300.3,1284.4h-1.9c-0.2,0-0.4-0.1-0.5-0.2l-6.8-8.3v8.1c0,0.3-0.2,0.5-0.4,0.5c0,0,0,0,0,0h-1.3
		c-0.3,0-0.5-0.2-0.4-0.5c0,0,0,0,0,0v-17c0-0.3,0.2-0.5,0.5-0.5c0,0,0,0,0,0h1.3c0.3,0,0.5,0.2,0.5,0.5c0,0,0,0,0,0v7.8l7-8.1
		c0.1-0.1,0.3-0.2,0.5-0.2h1.7c0.2,0,0.3,0.1,0.3,0.3c0,0.1,0,0.2-0.1,0.2l-7.3,8.2l7.3,8.7c0.1,0.1,0.1,0.2,0.1,0.3
		C-300,1284.3-300.1,1284.4-300.3,1284.4z"/>
	<path id="Pfad_296" d="M-291.2,1272.8c-1.2,0-2.3,0.4-3.3,1v10.1c0,0.3-0.2,0.5-0.5,0.5h-1.2c-0.3,0-0.5-0.2-0.5-0.5v-12.3
		c0-0.3,0.2-0.5,0.4-0.5c0,0,0,0,0,0h1.1c0.3,0,0.5,0.2,0.5,0.5c0,0,0,0,0,0v0.5c1-0.7,2.2-1.1,3.4-1.2c0.3,0,0.5,0.1,0.5,0.4v1
		C-290.7,1272.6-290.8,1272.8-291.2,1272.8z"/>
	<path id="Pfad_297" d="M-278.6,1278.4h-8.1v0.3c0,2.9,1.1,3.9,3.4,3.9c1.4,0,2.9-0.1,4.3-0.3h0.1c0.2,0,0.4,0.1,0.4,0.3
		c0,0,0,0,0,0v0.8c0,0.3-0.1,0.5-0.5,0.6c-1.4,0.3-2.9,0.4-4.3,0.4c-2.8,0-5.5-1.3-5.5-5.8v-2.2c0-3.5,1.9-5.7,5.4-5.7
		c3.5,0,5.3,2.2,5.3,5.7v1.3C-278.1,1278.2-278.3,1278.4-278.6,1278.4z M-280.2,1276.6c0-2.7-1-3.8-3.2-3.8c-2.1,0-3.2,1.2-3.2,3.8
		v0.2h6.4L-280.2,1276.6z"/>
	<path id="Pfad_298" d="M-269.6,1284.6c-1.5,0-3-0.1-4.5-0.4c-0.4-0.1-0.5-0.2-0.5-0.6v-16.9c0-0.2,0.2-0.4,0.4-0.5c0,0,0,0,0,0h1.2
		c0.3,0,0.5,0.2,0.5,0.5c0,0,0,0,0,0v4.5c0.9-0.2,1.9-0.2,2.8-0.2c3.5,0,5.3,2.1,5.3,5.9v1.7C-264.4,1282.2-266,1284.6-269.6,1284.6
		z M-266.5,1276.9c0-2.6-0.8-4.1-3.1-4.1c-0.9,0-1.9,0-2.8,0.2v9.6c0.8,0.1,2,0.1,2.8,0.1c2.4,0,3.1-1.5,3.1-4.1V1276.9z"/>
	<path id="Pfad_299" d="M-257,1284.6c-1.3,0-2.6-0.1-3.8-0.4c-0.3-0.1-0.5-0.2-0.5-0.5v-0.8c0-0.2,0.2-0.4,0.4-0.4c0,0,0,0,0,0h0.1
		c1.2,0.1,2.9,0.3,3.8,0.3c1.6,0,2.4-0.4,2.4-1.7c0-0.7-0.4-1.2-1.8-2l-2.4-1.5c-1.5-0.9-2.5-1.9-2.5-3.5c0-2.5,1.9-3.2,4.4-3.2
		c1.3,0,2.5,0.1,3.8,0.3c0.3,0,0.5,0.2,0.5,0.5c0,0,0,0,0,0v0.8c0,0.2-0.1,0.4-0.3,0.4c0,0-0.1,0-0.1,0h-0.1
		c-0.8-0.1-2.4-0.2-3.7-0.2c-1.4,0-2.2,0.2-2.2,1.4c0,0.7,0.6,1.2,1.7,1.8l2.4,1.4c2,1.2,2.7,2.2,2.7,3.7
		C-252.5,1283.5-254.3,1284.6-257,1284.6z"/>
</g>
</svg>
