<?xml version="1.0" encoding="UTF-8" standalone="no"?><svg xmlns="http://www.w3.org/2000/svg" xmlns:xlink="http://www.w3.org/1999/xlink" contentStyleType="text/css" height="1498px" preserveAspectRatio="none" style="width:3556px;height:1498px;background:#FFFFFF;" version="1.1" viewBox="0 0 3556 1498" width="3556px" zoomAndPan="magnify"><defs/><g><!--MD5=[8d1280e58717f51acd6181606489346b]
class Assessment--><g id="elem_Assessment"><rect codeLine="123" fill="#F1F1F1" height="48" id="Assessment" rx="2.5" ry="2.5" style="stroke:#181818;stroke-width:0.5;" width="116" x="1617.1263" y="1085"/><ellipse cx="1632.1263" cy="1101" fill="#A9DCDF" rx="11" ry="11" style="stroke:#181818;stroke-width:1.0;"/><path d="M1634.2044,1102.8125 L1634.595,1103.7969 L1634.2044,1103.7969 C1633.7513,1103.7969 1633.6419,1103.8125 1633.4856,1103.9219 C1633.2356,1104.0781 1633.0794,1104.3594 1633.0794,1104.6563 C1633.0794,1104.9219 1633.22,1105.1719 1633.4388,1105.3281 C1633.5794,1105.4531 1633.7825,1105.5 1634.2044,1105.5 L1636.5638,1105.5 C1636.9231,1105.5 1637.1419,1105.4688 1637.2825,1105.375 C1637.5325,1105.2344 1637.6888,1104.9375 1637.6888,1104.6563 C1637.6888,1104.375 1637.5481,1104.125 1637.3294,1103.9688 C1637.1575,1103.8281 1637.0013,1103.7969 1636.5325,1103.7969 L1633.1419,1095.5938 L1629.47,1095.5938 C1629.0169,1095.5938 1628.8919,1095.6094 1628.7356,1095.7031 C1628.4856,1095.875 1628.3294,1096.1563 1628.3294,1096.4375 C1628.3294,1096.7188 1628.47,1096.9688 1628.6888,1097.1406 C1628.8606,1097.25 1629.0325,1097.2813 1629.47,1097.2813 L1630.5481,1097.2813 L1627.9075,1103.7969 C1627.4856,1103.7969 1627.3294,1103.8125 1627.1731,1103.9219 C1626.9231,1104.0781 1626.7669,1104.3594 1626.7669,1104.6563 C1626.7669,1105.2188 1627.1419,1105.5 1627.8919,1105.5 L1630.1575,1105.5 C1630.5169,1105.5 1630.7356,1105.4688 1630.8606,1105.375 C1631.1263,1105.2344 1631.2669,1104.9375 1631.2669,1104.6563 C1631.2669,1104.375 1631.1419,1104.125 1630.9231,1103.9531 C1630.7513,1103.8281 1630.6106,1103.7969 1630.1575,1103.7969 L1629.7669,1103.7969 L1630.1575,1102.8125 L1634.2044,1102.8125 Z M1633.5013,1101.1094 L1630.8294,1101.1094 L1632.1731,1097.8438 L1633.5013,1101.1094 Z " fill="#000000"/><text fill="#000000" font-family="sans-serif" font-size="14" font-style="italic" lengthAdjust="spacing" textLength="84" x="1646.1263" y="1105.8467">Assessment</text><line style="stroke:#181818;stroke-width:0.5;" x1="1618.1263" x2="1732.1263" y1="1117" y2="1117"/><line style="stroke:#181818;stroke-width:0.5;" x1="1618.1263" x2="1732.1263" y1="1125" y2="1125"/></g><!--MD5=[f27bcd0bfaa041fdac22cb69ddc6ac63]
class Staging--><g id="elem_Staging"><rect codeLine="124" fill="#F1F1F1" height="48" id="Staging" rx="2.5" ry="2.5" style="stroke:#181818;stroke-width:0.5;" width="86" x="1755.1263" y="830"/><ellipse cx="1770.1263" cy="846" fill="#A9DCDF" rx="11" ry="11" style="stroke:#181818;stroke-width:1.0;"/><path d="M1772.2044,847.8125 L1772.595,848.7969 L1772.2044,848.7969 C1771.7513,848.7969 1771.6419,848.8125 1771.4856,848.9219 C1771.2356,849.0781 1771.0794,849.3594 1771.0794,849.6563 C1771.0794,849.9219 1771.22,850.1719 1771.4388,850.3281 C1771.5794,850.4531 1771.7825,850.5 1772.2044,850.5 L1774.5638,850.5 C1774.9231,850.5 1775.1419,850.4688 1775.2825,850.375 C1775.5325,850.2344 1775.6888,849.9375 1775.6888,849.6563 C1775.6888,849.375 1775.5481,849.125 1775.3294,848.9688 C1775.1575,848.8281 1775.0013,848.7969 1774.5325,848.7969 L1771.1419,840.5938 L1767.47,840.5938 C1767.0169,840.5938 1766.8919,840.6094 1766.7356,840.7031 C1766.4856,840.875 1766.3294,841.1563 1766.3294,841.4375 C1766.3294,841.7188 1766.47,841.9688 1766.6888,842.1406 C1766.8606,842.25 1767.0325,842.2813 1767.47,842.2813 L1768.5481,842.2813 L1765.9075,848.7969 C1765.4856,848.7969 1765.3294,848.8125 1765.1731,848.9219 C1764.9231,849.0781 1764.7669,849.3594 1764.7669,849.6563 C1764.7669,850.2188 1765.1419,850.5 1765.8919,850.5 L1768.1575,850.5 C1768.5169,850.5 1768.7356,850.4688 1768.8606,850.375 C1769.1263,850.2344 1769.2669,849.9375 1769.2669,849.6563 C1769.2669,849.375 1769.1419,849.125 1768.9231,848.9531 C1768.7513,848.8281 1768.6106,848.7969 1768.1575,848.7969 L1767.7669,848.7969 L1768.1575,847.8125 L1772.2044,847.8125 Z M1771.5013,846.1094 L1768.8294,846.1094 L1770.1731,842.8438 L1771.5013,846.1094 Z " fill="#000000"/><text fill="#000000" font-family="sans-serif" font-size="14" font-style="italic" lengthAdjust="spacing" textLength="54" x="1784.1263" y="850.8467">Staging</text><line style="stroke:#181818;stroke-width:0.5;" x1="1756.1263" x2="1840.1263" y1="862" y2="862"/><line style="stroke:#181818;stroke-width:0.5;" x1="1756.1263" x2="1840.1263" y1="870" y2="870"/></g><!--MD5=[bb18fe156cacd98fdf663dd96613203a]
class TNM--><g id="elem_TNM"><rect codeLine="127" fill="#F1F1F1" height="268.125" id="TNM" rx="2.5" ry="2.5" style="stroke:#181818;stroke-width:0.5;" width="274" x="1868.1263" y="359"/><ellipse cx="1959.8763" cy="379.1328" fill="#ADD1B2" rx="11" ry="11" style="stroke:#181818;stroke-width:1.0;"/><path d="M1962.22,374.8047 C1961.2825,374.3672 1960.6888,374.2266 1959.8138,374.2266 C1957.1888,374.2266 1955.1888,376.3047 1955.1888,379.0234 L1955.1888,380.1484 C1955.1888,382.7266 1957.2981,384.6172 1960.1888,384.6172 C1961.4075,384.6172 1962.5638,384.3203 1963.3138,383.7734 C1963.8919,383.3672 1964.22,382.9141 1964.22,382.5234 C1964.22,382.0703 1963.8294,381.6797 1963.3606,381.6797 C1963.1419,381.6797 1962.9388,381.7578 1962.7513,381.9453 C1962.2981,382.4297 1962.2981,382.4297 1962.1106,382.5234 C1961.6888,382.7891 1961.0013,382.9141 1960.2356,382.9141 C1958.1888,382.9141 1956.8919,381.8203 1956.8919,380.1172 L1956.8919,379.0234 C1956.8919,377.2422 1958.1419,375.9297 1959.8763,375.9297 C1960.4544,375.9297 1961.0638,376.0859 1961.5325,376.3359 C1962.0169,376.6172 1962.1888,376.8359 1962.2825,377.2422 C1962.345,377.6484 1962.3763,377.7734 1962.5169,377.8984 C1962.6575,378.0391 1962.8919,378.1484 1963.1106,378.1484 C1963.3763,378.1484 1963.6419,378.0078 1963.8138,377.7891 C1963.9231,377.6328 1963.9544,377.4453 1963.9544,377.0234 L1963.9544,375.6016 C1963.9544,375.1641 1963.9388,375.0391 1963.845,374.8828 C1963.6888,374.6172 1963.4075,374.4766 1963.1106,374.4766 C1962.8138,374.4766 1962.6106,374.5703 1962.3919,374.8828 L1962.22,374.8047 Z " fill="#000000"/><text fill="#000000" font-family="sans-serif" font-size="12" font-style="italic" lengthAdjust="spacing" textLength="86" x="1978.3763" y="375.1387">«Observation»</text><text fill="#000000" font-family="sans-serif" font-size="14" lengthAdjust="spacing" textLength="68" x="1987.3763" y="390.9639">UICC TNM</text><line style="stroke:#181818;stroke-width:0.5;" x1="1869.1263" x2="2141.1263" y1="399.2656" y2="399.2656"/><text fill="#000000" font-family="sans-serif" font-size="14" lengthAdjust="spacing" textLength="151" x="1874.1263" y="416.2607">y : CodeableConcept</text><text fill="#000000" font-family="sans-serif" font-size="14" lengthAdjust="spacing" textLength="149" x="1874.1263" y="432.5576">r : CodeableConcept</text><text fill="#000000" font-family="sans-serif" font-size="14" lengthAdjust="spacing" textLength="151" x="1874.1263" y="448.8545">a : CodeableConcept</text><text fill="#000000" font-family="sans-serif" font-size="14" lengthAdjust="spacing" textLength="152" x="1874.1263" y="465.1514">T : CodeableConcept</text><text fill="#000000" font-family="sans-serif" font-size="14" lengthAdjust="spacing" textLength="157" x="1874.1263" y="481.4482">m : CodeableConcept</text><text fill="#000000" font-family="sans-serif" font-size="14" lengthAdjust="spacing" textLength="153" x="1874.1263" y="497.7451">N : CodeableConcept</text><text fill="#000000" font-family="sans-serif" font-size="14" lengthAdjust="spacing" textLength="155" x="1874.1263" y="514.042">M : CodeableConcept</text><text fill="#000000" font-family="sans-serif" font-size="14" lengthAdjust="spacing" textLength="151" x="1874.1263" y="530.3389">L : CodeableConcept</text><text fill="#000000" font-family="sans-serif" font-size="14" lengthAdjust="spacing" textLength="153" x="1874.1263" y="546.6357">V : CodeableConcept</text><text fill="#000000" font-family="sans-serif" font-size="14" lengthAdjust="spacing" textLength="161" x="1874.1263" y="562.9326">Pn : CodeableConcept</text><text fill="#000000" font-family="sans-serif" font-size="14" lengthAdjust="spacing" textLength="152" x="1874.1263" y="579.2295">S : CodeableConcept</text><text fill="#000000" font-family="sans-serif" font-size="14" lengthAdjust="spacing" textLength="256" x="1874.1263" y="595.5264">numberOfNodesAffected : Quantity</text><text fill="#000000" font-family="sans-serif" font-size="14" lengthAdjust="spacing" textLength="262" x="1874.1263" y="611.8232">numberOfNodesExamined : Quantity</text><line style="stroke:#181818;stroke-width:0.5;" x1="1869.1263" x2="2141.1263" y1="619.125" y2="619.125"/></g><!--MD5=[16e9775567ff8f304c2991a8a0c4aed5]
class ResidualTumorClassification--><g id="elem_ResidualTumorClassification"><rect codeLine="143" fill="#F1F1F1" height="72.5625" id="ResidualTumorClassification" rx="2.5" ry="2.5" style="stroke:#181818;stroke-width:0.5;" width="312" x="1876.1263" y="817.5"/><ellipse cx="1891.1263" cy="837.6328" fill="#ADD1B2" rx="11" ry="11" style="stroke:#181818;stroke-width:1.0;"/><path d="M1893.47,833.3047 C1892.5325,832.8672 1891.9388,832.7266 1891.0638,832.7266 C1888.4388,832.7266 1886.4388,834.8047 1886.4388,837.5234 L1886.4388,838.6484 C1886.4388,841.2266 1888.5481,843.1172 1891.4388,843.1172 C1892.6575,843.1172 1893.8138,842.8203 1894.5638,842.2734 C1895.1419,841.8672 1895.47,841.4141 1895.47,841.0234 C1895.47,840.5703 1895.0794,840.1797 1894.6106,840.1797 C1894.3919,840.1797 1894.1888,840.2578 1894.0013,840.4453 C1893.5481,840.9297 1893.5481,840.9297 1893.3606,841.0234 C1892.9388,841.2891 1892.2513,841.4141 1891.4856,841.4141 C1889.4388,841.4141 1888.1419,840.3203 1888.1419,838.6172 L1888.1419,837.5234 C1888.1419,835.7422 1889.3919,834.4297 1891.1263,834.4297 C1891.7044,834.4297 1892.3138,834.5859 1892.7825,834.8359 C1893.2669,835.1172 1893.4388,835.3359 1893.5325,835.7422 C1893.595,836.1484 1893.6263,836.2734 1893.7669,836.3984 C1893.9075,836.5391 1894.1419,836.6484 1894.3606,836.6484 C1894.6263,836.6484 1894.8919,836.5078 1895.0638,836.2891 C1895.1731,836.1328 1895.2044,835.9453 1895.2044,835.5234 L1895.2044,834.1016 C1895.2044,833.6641 1895.1888,833.5391 1895.095,833.3828 C1894.9388,833.1172 1894.6575,832.9766 1894.3606,832.9766 C1894.0638,832.9766 1893.8606,833.0703 1893.6419,833.3828 L1893.47,833.3047 Z " fill="#000000"/><text fill="#000000" font-family="sans-serif" font-size="12" font-style="italic" lengthAdjust="spacing" textLength="86" x="2002.1263" y="833.6387">«Observation»</text><text fill="#000000" font-family="sans-serif" font-size="14" lengthAdjust="spacing" textLength="280" x="1905.1263" y="849.4639">UICC TNM Residual Tumor Classification</text><line style="stroke:#181818;stroke-width:0.5;" x1="1877.1263" x2="2187.1263" y1="857.7656" y2="857.7656"/><text fill="#000000" font-family="sans-serif" font-size="14" lengthAdjust="spacing" textLength="153" x="1882.1263" y="874.7607">R : CodeableConcept</text><line style="stroke:#181818;stroke-width:0.5;" x1="1877.1263" x2="2187.1263" y1="882.0625" y2="882.0625"/></g><!--MD5=[922f99bd240fc9b7dcaee70950235b23]
class Grading--><g id="elem_Grading"><rect codeLine="125" fill="#F1F1F1" height="48" id="Grading" rx="2.5" ry="2.5" style="stroke:#181818;stroke-width:0.5;" width="89" x="1630.6263" y="830"/><ellipse cx="1645.6263" cy="846" fill="#A9DCDF" rx="11" ry="11" style="stroke:#181818;stroke-width:1.0;"/><path d="M1647.7044,847.8125 L1648.095,848.7969 L1647.7044,848.7969 C1647.2513,848.7969 1647.1419,848.8125 1646.9856,848.9219 C1646.7356,849.0781 1646.5794,849.3594 1646.5794,849.6563 C1646.5794,849.9219 1646.72,850.1719 1646.9388,850.3281 C1647.0794,850.4531 1647.2825,850.5 1647.7044,850.5 L1650.0638,850.5 C1650.4231,850.5 1650.6419,850.4688 1650.7825,850.375 C1651.0325,850.2344 1651.1888,849.9375 1651.1888,849.6563 C1651.1888,849.375 1651.0481,849.125 1650.8294,848.9688 C1650.6575,848.8281 1650.5013,848.7969 1650.0325,848.7969 L1646.6419,840.5938 L1642.97,840.5938 C1642.5169,840.5938 1642.3919,840.6094 1642.2356,840.7031 C1641.9856,840.875 1641.8294,841.1563 1641.8294,841.4375 C1641.8294,841.7188 1641.97,841.9688 1642.1888,842.1406 C1642.3606,842.25 1642.5325,842.2813 1642.97,842.2813 L1644.0481,842.2813 L1641.4075,848.7969 C1640.9856,848.7969 1640.8294,848.8125 1640.6731,848.9219 C1640.4231,849.0781 1640.2669,849.3594 1640.2669,849.6563 C1640.2669,850.2188 1640.6419,850.5 1641.3919,850.5 L1643.6575,850.5 C1644.0169,850.5 1644.2356,850.4688 1644.3606,850.375 C1644.6263,850.2344 1644.7669,849.9375 1644.7669,849.6563 C1644.7669,849.375 1644.6419,849.125 1644.4231,848.9531 C1644.2513,848.8281 1644.1106,848.7969 1643.6575,848.7969 L1643.2669,848.7969 L1643.6575,847.8125 L1647.7044,847.8125 Z M1647.0013,846.1094 L1644.3294,846.1094 L1645.6731,842.8438 L1647.0013,846.1094 Z " fill="#000000"/><text fill="#000000" font-family="sans-serif" font-size="14" font-style="italic" lengthAdjust="spacing" textLength="57" x="1659.6263" y="850.8467">Grading</text><line style="stroke:#181818;stroke-width:0.5;" x1="1631.6263" x2="1718.6263" y1="862" y2="862"/><line style="stroke:#181818;stroke-width:0.5;" x1="1631.6263" x2="1718.6263" y1="870" y2="870"/></g><!--MD5=[81a5abd404470e1328f70bcb46211fff]
class HistopathologischesGrading--><g id="elem_HistopathologischesGrading"><rect codeLine="147" fill="#F1F1F1" height="72.5625" id="HistopathologischesGrading" rx="2.5" ry="2.5" style="stroke:#181818;stroke-width:0.5;" width="307" x="1419.6263" y="456.5"/><ellipse cx="1434.6263" cy="476.6328" fill="#ADD1B2" rx="11" ry="11" style="stroke:#181818;stroke-width:1.0;"/><path d="M1436.97,472.3047 C1436.0325,471.8672 1435.4388,471.7266 1434.5638,471.7266 C1431.9388,471.7266 1429.9388,473.8047 1429.9388,476.5234 L1429.9388,477.6484 C1429.9388,480.2266 1432.0481,482.1172 1434.9388,482.1172 C1436.1575,482.1172 1437.3138,481.8203 1438.0638,481.2734 C1438.6419,480.8672 1438.97,480.4141 1438.97,480.0234 C1438.97,479.5703 1438.5794,479.1797 1438.1106,479.1797 C1437.8919,479.1797 1437.6888,479.2578 1437.5013,479.4453 C1437.0481,479.9297 1437.0481,479.9297 1436.8606,480.0234 C1436.4388,480.2891 1435.7513,480.4141 1434.9856,480.4141 C1432.9388,480.4141 1431.6419,479.3203 1431.6419,477.6172 L1431.6419,476.5234 C1431.6419,474.7422 1432.8919,473.4297 1434.6263,473.4297 C1435.2044,473.4297 1435.8138,473.5859 1436.2825,473.8359 C1436.7669,474.1172 1436.9388,474.3359 1437.0325,474.7422 C1437.095,475.1484 1437.1263,475.2734 1437.2669,475.3984 C1437.4075,475.5391 1437.6419,475.6484 1437.8606,475.6484 C1438.1263,475.6484 1438.3919,475.5078 1438.5638,475.2891 C1438.6731,475.1328 1438.7044,474.9453 1438.7044,474.5234 L1438.7044,473.1016 C1438.7044,472.6641 1438.6888,472.5391 1438.595,472.3828 C1438.4388,472.1172 1438.1575,471.9766 1437.8606,471.9766 C1437.5638,471.9766 1437.3606,472.0703 1437.1419,472.3828 L1436.97,472.3047 Z " fill="#000000"/><text fill="#000000" font-family="sans-serif" font-size="12" font-style="italic" lengthAdjust="spacing" textLength="86" x="1543.1263" y="472.6387">«Observation»</text><text fill="#000000" font-family="sans-serif" font-size="14" lengthAdjust="spacing" textLength="275" x="1448.6263" y="488.4639">Histopathological Tumor Grading WHO</text><line style="stroke:#181818;stroke-width:0.5;" x1="1420.6263" x2="1725.6263" y1="496.7656" y2="496.7656"/><text fill="#000000" font-family="sans-serif" font-size="14" lengthAdjust="spacing" textLength="186" x="1425.6263" y="513.7607">Grade : CodeableConcept</text><line style="stroke:#181818;stroke-width:0.5;" x1="1420.6263" x2="1725.6263" y1="521.0625" y2="521.0625"/></g><!--MD5=[1fb6bb9b3115238ff9f19f377b3586fc]
class Tumorerkrankung--><g id="elem_Tumorerkrankung"><rect codeLine="77" fill="#F1F1F1" height="300.125" id="Tumorerkrankung" rx="2.5" ry="2.5" style="stroke:#181818;stroke-width:0.5;" width="283" x="1174.6263" y="704"/><ellipse cx="1256.3763" cy="724.1328" fill="#ADD1B2" rx="11" ry="11" style="stroke:#181818;stroke-width:1.0;"/><path d="M1258.72,719.8047 C1257.7825,719.3672 1257.1888,719.2266 1256.3138,719.2266 C1253.6888,719.2266 1251.6888,721.3047 1251.6888,724.0234 L1251.6888,725.1484 C1251.6888,727.7266 1253.7981,729.6172 1256.6888,729.6172 C1257.9075,729.6172 1259.0638,729.3203 1259.8138,728.7734 C1260.3919,728.3672 1260.72,727.9141 1260.72,727.5234 C1260.72,727.0703 1260.3294,726.6797 1259.8606,726.6797 C1259.6419,726.6797 1259.4388,726.7578 1259.2513,726.9453 C1258.7981,727.4297 1258.7981,727.4297 1258.6106,727.5234 C1258.1888,727.7891 1257.5013,727.9141 1256.7356,727.9141 C1254.6888,727.9141 1253.3919,726.8203 1253.3919,725.1172 L1253.3919,724.0234 C1253.3919,722.2422 1254.6419,720.9297 1256.3763,720.9297 C1256.9544,720.9297 1257.5638,721.0859 1258.0325,721.3359 C1258.5169,721.6172 1258.6888,721.8359 1258.7825,722.2422 C1258.845,722.6484 1258.8763,722.7734 1259.0169,722.8984 C1259.1575,723.0391 1259.3919,723.1484 1259.6106,723.1484 C1259.8763,723.1484 1260.1419,723.0078 1260.3138,722.7891 C1260.4231,722.6328 1260.4544,722.4453 1260.4544,722.0234 L1260.4544,720.6016 C1260.4544,720.1641 1260.4388,720.0391 1260.345,719.8828 C1260.1888,719.6172 1259.9075,719.4766 1259.6106,719.4766 C1259.3138,719.4766 1259.1106,719.5703 1258.8919,719.8828 L1258.72,719.8047 Z " fill="#000000"/><text fill="#000000" font-family="sans-serif" font-size="12" font-style="italic" lengthAdjust="spacing" textLength="71" x="1296.8763" y="720.1387">«Condition»</text><text fill="#000000" font-family="sans-serif" font-size="14" lengthAdjust="spacing" textLength="111" x="1276.8763" y="735.9639">Tumor Disorder</text><line style="stroke:#181818;stroke-width:0.5;" x1="1175.6263" x2="1456.6263" y1="744.2656" y2="744.2656"/><text fill="#000000" font-family="sans-serif" font-size="14" lengthAdjust="spacing" textLength="85" x="1180.6263" y="761.2607">Diagnose ID</text><text fill="#000000" font-family="sans-serif" font-size="14" lengthAdjust="spacing" textLength="39" x="1180.6263" y="777.5576">id : id</text><line style="stroke:#181818;stroke-width:1.0;stroke-dasharray:1.0,2.0;" x1="1175.6263" x2="1456.6263" y1="784.8594" y2="784.8594"/><text fill="#000000" font-family="sans-serif" font-size="14" lengthAdjust="spacing" textLength="120" x="1180.6263" y="801.8545">Klinischer Status</text><text fill="#000000" font-family="sans-serif" font-size="14" lengthAdjust="spacing" textLength="238" x="1180.6263" y="818.1514">clinicalStatus : CodeableConcept</text><text fill="#000000" font-family="sans-serif" font-size="14" lengthAdjust="spacing" textLength="4" x="1180.6263" y="834.4482"> </text><line style="stroke:#181818;stroke-width:1.0;stroke-dasharray:1.0,2.0;" x1="1175.6263" x2="1456.6263" y1="841.75" y2="841.75"/><text fill="#000000" font-family="sans-serif" font-size="14" lengthAdjust="spacing" textLength="138" x="1180.6263" y="858.7451">Diagnosesicherheit</text><text fill="#000000" font-family="sans-serif" font-size="14" lengthAdjust="spacing" textLength="271" x="1180.6263" y="875.042">verificationStatus : CodeableConcept</text><line style="stroke:#181818;stroke-width:1.0;stroke-dasharray:1.0,2.0;" x1="1175.6263" x2="1456.6263" y1="882.3438" y2="882.3438"/><text fill="#000000" font-family="sans-serif" font-size="14" lengthAdjust="spacing" textLength="101" x="1180.6263" y="899.3389">Diagnosecode</text><text fill="#000000" font-family="sans-serif" font-size="14" lengthAdjust="spacing" textLength="178" x="1180.6263" y="915.6357">code : CodeableConcept</text><line style="stroke:#181818;stroke-width:1.0;stroke-dasharray:1.0,2.0;" x1="1175.6263" x2="1456.6263" y1="922.9375" y2="922.9375"/><text fill="#000000" font-family="sans-serif" font-size="14" lengthAdjust="spacing" textLength="200" x="1180.6263" y="939.9326">KlinischRelevanterZeitraum</text><text fill="#000000" font-family="sans-serif" font-size="14" lengthAdjust="spacing" textLength="100" x="1180.6263" y="956.2295">onset : Period</text><line style="stroke:#181818;stroke-width:1.0;stroke-dasharray:1.0,2.0;" x1="1175.6263" x2="1456.6263" y1="963.5313" y2="963.5313"/><text fill="#000000" font-family="sans-serif" font-size="14" lengthAdjust="spacing" textLength="166" x="1180.6263" y="980.5264">Dokumentationsdatum</text><text fill="#000000" font-family="sans-serif" font-size="14" lengthAdjust="spacing" textLength="182" x="1180.6263" y="996.8232">recordedDate : dateTime</text></g><!--MD5=[181c2720b9794936658bc7f80f7be5f7]
class ImagingStudy--><g id="elem_ImagingStudy"><rect codeLine="108" fill="#F1F1F1" height="48" id="ImagingStudy" rx="2.5" ry="2.5" style="stroke:#181818;stroke-width:0.5;" width="130" x="1194.1263" y="1085"/><ellipse cx="1209.1263" cy="1101" fill="#ADD1B2" rx="11" ry="11" style="stroke:#181818;stroke-width:1.0;"/><path d="M1211.47,1096.6719 C1210.5325,1096.2344 1209.9388,1096.0938 1209.0638,1096.0938 C1206.4388,1096.0938 1204.4388,1098.1719 1204.4388,1100.8906 L1204.4388,1102.0156 C1204.4388,1104.5938 1206.5481,1106.4844 1209.4388,1106.4844 C1210.6575,1106.4844 1211.8138,1106.1875 1212.5638,1105.6406 C1213.1419,1105.2344 1213.47,1104.7813 1213.47,1104.3906 C1213.47,1103.9375 1213.0794,1103.5469 1212.6106,1103.5469 C1212.3919,1103.5469 1212.1888,1103.625 1212.0013,1103.8125 C1211.5481,1104.2969 1211.5481,1104.2969 1211.3606,1104.3906 C1210.9388,1104.6563 1210.2513,1104.7813 1209.4856,1104.7813 C1207.4388,1104.7813 1206.1419,1103.6875 1206.1419,1101.9844 L1206.1419,1100.8906 C1206.1419,1099.1094 1207.3919,1097.7969 1209.1263,1097.7969 C1209.7044,1097.7969 1210.3138,1097.9531 1210.7825,1098.2031 C1211.2669,1098.4844 1211.4388,1098.7031 1211.5325,1099.1094 C1211.595,1099.5156 1211.6263,1099.6406 1211.7669,1099.7656 C1211.9075,1099.9063 1212.1419,1100.0156 1212.3606,1100.0156 C1212.6263,1100.0156 1212.8919,1099.875 1213.0638,1099.6563 C1213.1731,1099.5 1213.2044,1099.3125 1213.2044,1098.8906 L1213.2044,1097.4688 C1213.2044,1097.0313 1213.1888,1096.9063 1213.095,1096.75 C1212.9388,1096.4844 1212.6575,1096.3438 1212.3606,1096.3438 C1212.0638,1096.3438 1211.8606,1096.4375 1211.6419,1096.75 L1211.47,1096.6719 Z " fill="#000000"/><text fill="#000000" font-family="sans-serif" font-size="14" lengthAdjust="spacing" textLength="98" x="1223.1263" y="1105.8467">ImagingStudy</text><line style="stroke:#181818;stroke-width:0.5;" x1="1195.1263" x2="1323.1263" y1="1117" y2="1117"/><line style="stroke:#181818;stroke-width:0.5;" x1="1195.1263" x2="1323.1263" y1="1125" y2="1125"/></g><!--MD5=[dbccef13054c92a74ecb76298de2f96e]
class Therapie--><g id="elem_Therapie"><rect codeLine="151" fill="#F1F1F1" height="48" id="Therapie" rx="2.5" ry="2.5" style="stroke:#181818;stroke-width:0.5;" width="96" x="229.1313" y="1085"/><ellipse cx="244.1313" cy="1101" fill="#A9DCDF" rx="11" ry="11" style="stroke:#181818;stroke-width:1.0;"/><path d="M246.2094,1102.8125 L246.6,1103.7969 L246.2094,1103.7969 C245.7563,1103.7969 245.6469,1103.8125 245.4906,1103.9219 C245.2406,1104.0781 245.0844,1104.3594 245.0844,1104.6563 C245.0844,1104.9219 245.225,1105.1719 245.4438,1105.3281 C245.5844,1105.4531 245.7875,1105.5 246.2094,1105.5 L248.5688,1105.5 C248.9281,1105.5 249.1469,1105.4688 249.2875,1105.375 C249.5375,1105.2344 249.6938,1104.9375 249.6938,1104.6563 C249.6938,1104.375 249.5531,1104.125 249.3344,1103.9688 C249.1625,1103.8281 249.0063,1103.7969 248.5375,1103.7969 L245.1469,1095.5938 L241.475,1095.5938 C241.0219,1095.5938 240.8969,1095.6094 240.7406,1095.7031 C240.4906,1095.875 240.3344,1096.1563 240.3344,1096.4375 C240.3344,1096.7188 240.475,1096.9688 240.6938,1097.1406 C240.8656,1097.25 241.0375,1097.2813 241.475,1097.2813 L242.5531,1097.2813 L239.9125,1103.7969 C239.4906,1103.7969 239.3344,1103.8125 239.1781,1103.9219 C238.9281,1104.0781 238.7719,1104.3594 238.7719,1104.6563 C238.7719,1105.2188 239.1469,1105.5 239.8969,1105.5 L242.1625,1105.5 C242.5219,1105.5 242.7406,1105.4688 242.8656,1105.375 C243.1313,1105.2344 243.2719,1104.9375 243.2719,1104.6563 C243.2719,1104.375 243.1469,1104.125 242.9281,1103.9531 C242.7563,1103.8281 242.6156,1103.7969 242.1625,1103.7969 L241.7719,1103.7969 L242.1625,1102.8125 L246.2094,1102.8125 Z M245.5063,1101.1094 L242.8344,1101.1094 L244.1781,1097.8438 L245.5063,1101.1094 Z " fill="#000000"/><text fill="#000000" font-family="sans-serif" font-size="14" font-style="italic" lengthAdjust="spacing" textLength="64" x="258.1313" y="1105.8467">Therapie</text><line style="stroke:#181818;stroke-width:0.5;" x1="230.1313" x2="324.1313" y1="1117" y2="1117"/><line style="stroke:#181818;stroke-width:0.5;" x1="230.1313" x2="324.1313" y1="1125" y2="1125"/></g><!--MD5=[9feba865d30dc5777caa8664f24d4c03]
class MedikamentöseTherapie--><g id="elem_MedikamentöseTherapie"><rect codeLine="161" fill="#F1F1F1" height="121.4531" id="MedikamentöseTherapie" rx="2.5" ry="2.5" style="stroke:#181818;stroke-width:0.5;" width="282" x="67.1313" y="793.5"/><ellipse cx="114.3813" cy="813.6328" fill="#ADD1B2" rx="11" ry="11" style="stroke:#181818;stroke-width:1.0;"/><path d="M116.725,809.3047 C115.7875,808.8672 115.1938,808.7266 114.3188,808.7266 C111.6938,808.7266 109.6938,810.8047 109.6938,813.5234 L109.6938,814.6484 C109.6938,817.2266 111.8031,819.1172 114.6938,819.1172 C115.9125,819.1172 117.0688,818.8203 117.8188,818.2734 C118.3969,817.8672 118.725,817.4141 118.725,817.0234 C118.725,816.5703 118.3344,816.1797 117.8656,816.1797 C117.6469,816.1797 117.4438,816.2578 117.2563,816.4453 C116.8031,816.9297 116.8031,816.9297 116.6156,817.0234 C116.1938,817.2891 115.5063,817.4141 114.7406,817.4141 C112.6938,817.4141 111.3969,816.3203 111.3969,814.6172 L111.3969,813.5234 C111.3969,811.7422 112.6469,810.4297 114.3813,810.4297 C114.9594,810.4297 115.5688,810.5859 116.0375,810.8359 C116.5219,811.1172 116.6938,811.3359 116.7875,811.7422 C116.85,812.1484 116.8813,812.2734 117.0219,812.3984 C117.1625,812.5391 117.3969,812.6484 117.6156,812.6484 C117.8813,812.6484 118.1469,812.5078 118.3188,812.2891 C118.4281,812.1328 118.4594,811.9453 118.4594,811.5234 L118.4594,810.1016 C118.4594,809.6641 118.4438,809.5391 118.35,809.3828 C118.1938,809.1172 117.9125,808.9766 117.6156,808.9766 C117.3188,808.9766 117.1156,809.0703 116.8969,809.3828 L116.725,809.3047 Z " fill="#000000"/><text fill="#000000" font-family="sans-serif" font-size="12" font-style="italic" lengthAdjust="spacing" textLength="143" x="152.8813" y="809.6387">«MedicationStatement»</text><text fill="#000000" font-family="sans-serif" font-size="14" lengthAdjust="spacing" textLength="179" x="134.8813" y="825.4639">MedikamentöseTherapie</text><line style="stroke:#181818;stroke-width:0.5;" x1="68.1313" x2="348.1313" y1="833.7656" y2="833.7656"/><text fill="#000000" font-family="sans-serif" font-size="14" lengthAdjust="spacing" textLength="207" x="73.1313" y="850.7607">Wirkstoff: CodeableConcept</text><text fill="#000000" font-family="sans-serif" font-size="14" lengthAdjust="spacing" textLength="192" x="73.1313" y="867.0576">TherapieBeginn: dateTime</text><text fill="#000000" font-family="sans-serif" font-size="14" lengthAdjust="spacing" textLength="178" x="73.1313" y="883.3545">TherapieEnde: dateTime</text><text fill="#000000" font-family="sans-serif" font-size="14" lengthAdjust="spacing" textLength="270" x="73.1313" y="899.6514">TherapieIntention: CodeableConcept</text><line style="stroke:#181818;stroke-width:0.5;" x1="68.1313" x2="348.1313" y1="906.9531" y2="906.9531"/></g><!--MD5=[01e663d8f9ca83c938e6ef4d7dcd96a1]
class Vitalstatus--><g id="elem_Vitalstatus"><rect codeLine="59" fill="#F1F1F1" height="105.1563" id="Vitalstatus" rx="2.5" ry="2.5" style="stroke:#181818;stroke-width:0.5;" width="249" x="3300.6263" y="801.5"/><ellipse cx="3364.3763" cy="821.6328" fill="#ADD1B2" rx="11" ry="11" style="stroke:#181818;stroke-width:1.0;"/><path d="M3366.72,817.3047 C3365.7825,816.8672 3365.1888,816.7266 3364.3138,816.7266 C3361.6888,816.7266 3359.6888,818.8047 3359.6888,821.5234 L3359.6888,822.6484 C3359.6888,825.2266 3361.7981,827.1172 3364.6888,827.1172 C3365.9075,827.1172 3367.0638,826.8203 3367.8138,826.2734 C3368.3919,825.8672 3368.72,825.4141 3368.72,825.0234 C3368.72,824.5703 3368.3294,824.1797 3367.8606,824.1797 C3367.6419,824.1797 3367.4388,824.2578 3367.2513,824.4453 C3366.7981,824.9297 3366.7981,824.9297 3366.6106,825.0234 C3366.1888,825.2891 3365.5013,825.4141 3364.7356,825.4141 C3362.6888,825.4141 3361.3919,824.3203 3361.3919,822.6172 L3361.3919,821.5234 C3361.3919,819.7422 3362.6419,818.4297 3364.3763,818.4297 C3364.9544,818.4297 3365.5638,818.5859 3366.0325,818.8359 C3366.5169,819.1172 3366.6888,819.3359 3366.7825,819.7422 C3366.845,820.1484 3366.8763,820.2734 3367.0169,820.3984 C3367.1575,820.5391 3367.3919,820.6484 3367.6106,820.6484 C3367.8763,820.6484 3368.1419,820.5078 3368.3138,820.2891 C3368.4231,820.1328 3368.4544,819.9453 3368.4544,819.5234 L3368.4544,818.1016 C3368.4544,817.6641 3368.4388,817.5391 3368.345,817.3828 C3368.1888,817.1172 3367.9075,816.9766 3367.6106,816.9766 C3367.3138,816.9766 3367.1106,817.0703 3366.8919,817.3828 L3366.72,817.3047 Z " fill="#000000"/><text fill="#000000" font-family="sans-serif" font-size="12" font-style="italic" lengthAdjust="spacing" textLength="86" x="3398.3763" y="817.6387">«Observation»</text><text fill="#000000" font-family="sans-serif" font-size="14" lengthAdjust="spacing" textLength="113" x="3384.8763" y="833.4639">Vital Signs Base</text><line style="stroke:#181818;stroke-width:0.5;" x1="3301.6263" x2="3548.6263" y1="841.7656" y2="841.7656"/><text fill="#000000" font-family="sans-serif" font-size="14" lengthAdjust="spacing" textLength="149" x="3306.6263" y="858.7607">Verstorben: boolean</text><text fill="#000000" font-family="sans-serif" font-size="14" lengthAdjust="spacing" textLength="192" x="3306.6263" y="875.0576">Todeszeitpunkt: dateTime</text><text fill="#000000" font-family="sans-serif" font-size="14" lengthAdjust="spacing" textLength="237" x="3306.6263" y="891.3545">Todesursache: CodeableConcept</text><line style="stroke:#181818;stroke-width:0.5;" x1="3301.6263" x2="3548.6263" y1="898.6563" y2="898.6563"/></g><!--MD5=[1bf4b45528ec36675780c817bfa04d69]
class Körpermaße--><g id="elem_Körpermaße"><rect codeLine="65" fill="#F1F1F1" height="48" id="Körpermaße" rx="2.5" ry="2.5" style="stroke:#181818;stroke-width:0.5;" width="121" x="2869.6263" y="1085"/><ellipse cx="2884.6263" cy="1101" fill="#A9DCDF" rx="11" ry="11" style="stroke:#181818;stroke-width:1.0;"/><path d="M2886.7044,1102.8125 L2887.095,1103.7969 L2886.7044,1103.7969 C2886.2513,1103.7969 2886.1419,1103.8125 2885.9856,1103.9219 C2885.7356,1104.0781 2885.5794,1104.3594 2885.5794,1104.6563 C2885.5794,1104.9219 2885.72,1105.1719 2885.9388,1105.3281 C2886.0794,1105.4531 2886.2825,1105.5 2886.7044,1105.5 L2889.0638,1105.5 C2889.4231,1105.5 2889.6419,1105.4688 2889.7825,1105.375 C2890.0325,1105.2344 2890.1888,1104.9375 2890.1888,1104.6563 C2890.1888,1104.375 2890.0481,1104.125 2889.8294,1103.9688 C2889.6575,1103.8281 2889.5013,1103.7969 2889.0325,1103.7969 L2885.6419,1095.5938 L2881.97,1095.5938 C2881.5169,1095.5938 2881.3919,1095.6094 2881.2356,1095.7031 C2880.9856,1095.875 2880.8294,1096.1563 2880.8294,1096.4375 C2880.8294,1096.7188 2880.97,1096.9688 2881.1888,1097.1406 C2881.3606,1097.25 2881.5325,1097.2813 2881.97,1097.2813 L2883.0481,1097.2813 L2880.4075,1103.7969 C2879.9856,1103.7969 2879.8294,1103.8125 2879.6731,1103.9219 C2879.4231,1104.0781 2879.2669,1104.3594 2879.2669,1104.6563 C2879.2669,1105.2188 2879.6419,1105.5 2880.3919,1105.5 L2882.6575,1105.5 C2883.0169,1105.5 2883.2356,1105.4688 2883.3606,1105.375 C2883.6263,1105.2344 2883.7669,1104.9375 2883.7669,1104.6563 C2883.7669,1104.375 2883.6419,1104.125 2883.4231,1103.9531 C2883.2513,1103.8281 2883.1106,1103.7969 2882.6575,1103.7969 L2882.2669,1103.7969 L2882.6575,1102.8125 L2886.7044,1102.8125 Z M2886.0013,1101.1094 L2883.3294,1101.1094 L2884.6731,1097.8438 L2886.0013,1101.1094 Z " fill="#000000"/><text fill="#000000" font-family="sans-serif" font-size="14" font-style="italic" lengthAdjust="spacing" textLength="89" x="2898.6263" y="1105.8467">Körpermaße</text><line style="stroke:#181818;stroke-width:0.5;" x1="2870.6263" x2="2989.6263" y1="1117" y2="1117"/><line style="stroke:#181818;stroke-width:0.5;" x1="2870.6263" x2="2989.6263" y1="1125" y2="1125"/></g><!--MD5=[0b1f4f2301101f37c63a7c8ed0ac373e]
class Körpergröße--><g id="elem_Körpergröße"><rect codeLine="67" fill="#F1F1F1" height="88.8594" id="Körpergröße" rx="2.5" ry="2.5" style="stroke:#181818;stroke-width:0.5;" width="200" x="3065.1263" y="809.5"/><ellipse cx="3116.8763" cy="829.6328" fill="#ADD1B2" rx="11" ry="11" style="stroke:#181818;stroke-width:1.0;"/><path d="M3119.22,825.3047 C3118.2825,824.8672 3117.6888,824.7266 3116.8138,824.7266 C3114.1888,824.7266 3112.1888,826.8047 3112.1888,829.5234 L3112.1888,830.6484 C3112.1888,833.2266 3114.2981,835.1172 3117.1888,835.1172 C3118.4075,835.1172 3119.5638,834.8203 3120.3138,834.2734 C3120.8919,833.8672 3121.22,833.4141 3121.22,833.0234 C3121.22,832.5703 3120.8294,832.1797 3120.3606,832.1797 C3120.1419,832.1797 3119.9388,832.2578 3119.7513,832.4453 C3119.2981,832.9297 3119.2981,832.9297 3119.1106,833.0234 C3118.6888,833.2891 3118.0013,833.4141 3117.2356,833.4141 C3115.1888,833.4141 3113.8919,832.3203 3113.8919,830.6172 L3113.8919,829.5234 C3113.8919,827.7422 3115.1419,826.4297 3116.8763,826.4297 C3117.4544,826.4297 3118.0638,826.5859 3118.5325,826.8359 C3119.0169,827.1172 3119.1888,827.3359 3119.2825,827.7422 C3119.345,828.1484 3119.3763,828.2734 3119.5169,828.3984 C3119.6575,828.5391 3119.8919,828.6484 3120.1106,828.6484 C3120.3763,828.6484 3120.6419,828.5078 3120.8138,828.2891 C3120.9231,828.1328 3120.9544,827.9453 3120.9544,827.5234 L3120.9544,826.1016 C3120.9544,825.6641 3120.9388,825.5391 3120.845,825.3828 C3120.6888,825.1172 3120.4075,824.9766 3120.1106,824.9766 C3119.8138,824.9766 3119.6106,825.0703 3119.3919,825.3828 L3119.22,825.3047 Z " fill="#000000"/><text fill="#000000" font-family="sans-serif" font-size="12" font-style="italic" lengthAdjust="spacing" textLength="86" x="3138.3763" y="825.6387">«Observation»</text><text fill="#000000" font-family="sans-serif" font-size="14" lengthAdjust="spacing" textLength="88" x="3137.3763" y="841.4639">Body Height</text><line style="stroke:#181818;stroke-width:0.5;" x1="3066.1263" x2="3264.1263" y1="849.7656" y2="849.7656"/><text fill="#000000" font-family="sans-serif" font-size="14" lengthAdjust="spacing" textLength="188" x="3071.1263" y="866.7607">Messzeitpunkt : dateTime</text><text fill="#000000" font-family="sans-serif" font-size="14" lengthAdjust="spacing" textLength="143" x="3071.1263" y="883.0576">Messwert : Quantity</text><line style="stroke:#181818;stroke-width:0.5;" x1="3066.1263" x2="3264.1263" y1="890.3594" y2="890.3594"/></g><!--MD5=[51d5f656a11cfe87112ab5039c5ee39b]
class Körpergewicht--><g id="elem_Körpergewicht"><rect codeLine="72" fill="#F1F1F1" height="88.8594" id="Körpergewicht" rx="2.5" ry="2.5" style="stroke:#181818;stroke-width:0.5;" width="200" x="2830.1263" y="809.5"/><ellipse cx="2879.8763" cy="829.6328" fill="#ADD1B2" rx="11" ry="11" style="stroke:#181818;stroke-width:1.0;"/><path d="M2882.22,825.3047 C2881.2825,824.8672 2880.6888,824.7266 2879.8138,824.7266 C2877.1888,824.7266 2875.1888,826.8047 2875.1888,829.5234 L2875.1888,830.6484 C2875.1888,833.2266 2877.2981,835.1172 2880.1888,835.1172 C2881.4075,835.1172 2882.5638,834.8203 2883.3138,834.2734 C2883.8919,833.8672 2884.22,833.4141 2884.22,833.0234 C2884.22,832.5703 2883.8294,832.1797 2883.3606,832.1797 C2883.1419,832.1797 2882.9388,832.2578 2882.7513,832.4453 C2882.2981,832.9297 2882.2981,832.9297 2882.1106,833.0234 C2881.6888,833.2891 2881.0013,833.4141 2880.2356,833.4141 C2878.1888,833.4141 2876.8919,832.3203 2876.8919,830.6172 L2876.8919,829.5234 C2876.8919,827.7422 2878.1419,826.4297 2879.8763,826.4297 C2880.4544,826.4297 2881.0638,826.5859 2881.5325,826.8359 C2882.0169,827.1172 2882.1888,827.3359 2882.2825,827.7422 C2882.345,828.1484 2882.3763,828.2734 2882.5169,828.3984 C2882.6575,828.5391 2882.8919,828.6484 2883.1106,828.6484 C2883.3763,828.6484 2883.6419,828.5078 2883.8138,828.2891 C2883.9231,828.1328 2883.9544,827.9453 2883.9544,827.5234 L2883.9544,826.1016 C2883.9544,825.6641 2883.9388,825.5391 2883.845,825.3828 C2883.6888,825.1172 2883.4075,824.9766 2883.1106,824.9766 C2882.8138,824.9766 2882.6106,825.0703 2882.3919,825.3828 L2882.22,825.3047 Z " fill="#000000"/><text fill="#000000" font-family="sans-serif" font-size="12" font-style="italic" lengthAdjust="spacing" textLength="86" x="2903.3763" y="825.6387">«Observation»</text><text fill="#000000" font-family="sans-serif" font-size="14" lengthAdjust="spacing" textLength="92" x="2900.3763" y="841.4639">Body Weight</text><line style="stroke:#181818;stroke-width:0.5;" x1="2831.1263" x2="3029.1263" y1="849.7656" y2="849.7656"/><text fill="#000000" font-family="sans-serif" font-size="14" lengthAdjust="spacing" textLength="188" x="2836.1263" y="866.7607">Messzeitpunkt : dateTime</text><text fill="#000000" font-family="sans-serif" font-size="14" lengthAdjust="spacing" textLength="143" x="2836.1263" y="883.0576">Messwert : Quantity</text><line style="stroke:#181818;stroke-width:0.5;" x1="2831.1263" x2="3029.1263" y1="890.3594" y2="890.3594"/></g><!--MD5=[f2efd3b285b01053d1c0db079a7ec032]
class Laborbefund--><g id="elem_Laborbefund"><rect codeLine="104" fill="#F1F1F1" height="72.5625" id="Laborbefund" rx="2.5" ry="2.5" style="stroke:#181818;stroke-width:0.5;" width="145" x="964.6312" y="207"/><ellipse cx="979.6312" cy="227.1328" fill="#ADD1B2" rx="11" ry="11" style="stroke:#181818;stroke-width:1.0;"/><path d="M981.975,222.8047 C981.0375,222.3672 980.4437,222.2266 979.5687,222.2266 C976.9437,222.2266 974.9437,224.3047 974.9437,227.0234 L974.9437,228.1484 C974.9437,230.7266 977.0531,232.6172 979.9437,232.6172 C981.1625,232.6172 982.3187,232.3203 983.0687,231.7734 C983.6469,231.3672 983.975,230.9141 983.975,230.5234 C983.975,230.0703 983.5844,229.6797 983.1156,229.6797 C982.8969,229.6797 982.6937,229.7578 982.5062,229.9453 C982.0531,230.4297 982.0531,230.4297 981.8656,230.5234 C981.4437,230.7891 980.7562,230.9141 979.9906,230.9141 C977.9437,230.9141 976.6469,229.8203 976.6469,228.1172 L976.6469,227.0234 C976.6469,225.2422 977.8969,223.9297 979.6312,223.9297 C980.2094,223.9297 980.8187,224.0859 981.2875,224.3359 C981.7719,224.6172 981.9437,224.8359 982.0375,225.2422 C982.1,225.6484 982.1312,225.7734 982.2719,225.8984 C982.4125,226.0391 982.6469,226.1484 982.8656,226.1484 C983.1312,226.1484 983.3969,226.0078 983.5687,225.7891 C983.6781,225.6328 983.7094,225.4453 983.7094,225.0234 L983.7094,223.6016 C983.7094,223.1641 983.6937,223.0391 983.6,222.8828 C983.4437,222.6172 983.1625,222.4766 982.8656,222.4766 C982.5687,222.4766 982.3656,222.5703 982.1469,222.8828 L981.975,222.8047 Z " fill="#000000"/><text fill="#000000" font-family="sans-serif" font-size="12" font-style="italic" lengthAdjust="spacing" textLength="117" x="991.6312" y="223.1387">«DiagnosticReport»</text><text fill="#000000" font-family="sans-serif" font-size="14" lengthAdjust="spacing" textLength="92" x="1004.1312" y="238.9639">Laborbefund</text><line style="stroke:#181818;stroke-width:0.5;" x1="965.6312" x2="1108.6313" y1="247.2656" y2="247.2656"/><text fill="#000000" font-family="sans-serif" font-size="14" lengthAdjust="spacing" textLength="95" x="970.6312" y="264.2607">ID : Identifier</text><line style="stroke:#181818;stroke-width:0.5;" x1="965.6312" x2="1108.6313" y1="271.5625" y2="271.5625"/></g><!--MD5=[ebd15861f3c033e5d7a77675d8f72c41]
class Laborparameter--><g id="elem_Laborparameter"><rect codeLine="110" fill="#F1F1F1" height="121.4531" id="Laborparameter" rx="2.5" ry="2.5" style="stroke:#181818;stroke-width:0.5;" width="208" x="910.1312" y="432.5"/><ellipse cx="951.2312" cy="452.6328" fill="#ADD1B2" rx="11" ry="11" style="stroke:#181818;stroke-width:1.0;"/><path d="M953.575,448.3047 C952.6375,447.8672 952.0437,447.7266 951.1687,447.7266 C948.5437,447.7266 946.5437,449.8047 946.5437,452.5234 L946.5437,453.6484 C946.5437,456.2266 948.6531,458.1172 951.5437,458.1172 C952.7625,458.1172 953.9187,457.8203 954.6687,457.2734 C955.2469,456.8672 955.575,456.4141 955.575,456.0234 C955.575,455.5703 955.1844,455.1797 954.7156,455.1797 C954.4969,455.1797 954.2937,455.2578 954.1062,455.4453 C953.6531,455.9297 953.6531,455.9297 953.4656,456.0234 C953.0437,456.2891 952.3562,456.4141 951.5906,456.4141 C949.5437,456.4141 948.2469,455.3203 948.2469,453.6172 L948.2469,452.5234 C948.2469,450.7422 949.4969,449.4297 951.2312,449.4297 C951.8094,449.4297 952.4187,449.5859 952.8875,449.8359 C953.3719,450.1172 953.5437,450.3359 953.6375,450.7422 C953.7,451.1484 953.7312,451.2734 953.8719,451.3984 C954.0125,451.5391 954.2469,451.6484 954.4656,451.6484 C954.7312,451.6484 954.9969,451.5078 955.1687,451.2891 C955.2781,451.1328 955.3094,450.9453 955.3094,450.5234 L955.3094,449.1016 C955.3094,448.6641 955.2937,448.5391 955.2,448.3828 C955.0437,448.1172 954.7625,447.9766 954.4656,447.9766 C954.1687,447.9766 953.9656,448.0703 953.7469,448.3828 L953.575,448.3047 Z " fill="#000000"/><text fill="#000000" font-family="sans-serif" font-size="12" font-style="italic" lengthAdjust="spacing" textLength="86" x="987.0312" y="448.6387">«Observation»</text><text fill="#000000" font-family="sans-serif" font-size="14" lengthAdjust="spacing" textLength="118" x="971.0312" y="464.4639">Laborparameter</text><line style="stroke:#181818;stroke-width:0.5;" x1="911.1312" x2="1117.1313" y1="472.7656" y2="472.7656"/><text fill="#000000" font-family="sans-serif" font-size="14" lengthAdjust="spacing" textLength="180" x="916.1312" y="489.7607">Code : CodeableConcept</text><text fill="#000000" font-family="sans-serif" font-size="14" lengthAdjust="spacing" textLength="149" x="916.1312" y="506.0576">Laborwert : Quantity</text><text fill="#000000" font-family="sans-serif" font-size="14" lengthAdjust="spacing" textLength="188" x="916.1312" y="522.3545">Messzeitpunkt : dateTime</text><text fill="#000000" font-family="sans-serif" font-size="14" lengthAdjust="spacing" textLength="196" x="916.1312" y="538.6514">Referenzbereich : Quantity</text><line style="stroke:#181818;stroke-width:0.5;" x1="911.1312" x2="1117.1313" y1="545.9531" y2="545.9531"/></g><!--MD5=[07843a28108f8f9fb73050ea95a4c52b]
class Probe--><g id="elem_Probe"><rect codeLine="117" fill="#F1F1F1" height="105.1563" id="Probe" rx="2.5" ry="2.5" style="stroke:#181818;stroke-width:0.5;" width="269" x="741.6312" y="801.5"/><ellipse cx="836.8812" cy="821.6328" fill="#ADD1B2" rx="11" ry="11" style="stroke:#181818;stroke-width:1.0;"/><path d="M839.225,817.3047 C838.2875,816.8672 837.6937,816.7266 836.8187,816.7266 C834.1937,816.7266 832.1937,818.8047 832.1937,821.5234 L832.1937,822.6484 C832.1937,825.2266 834.3031,827.1172 837.1937,827.1172 C838.4125,827.1172 839.5687,826.8203 840.3187,826.2734 C840.8969,825.8672 841.225,825.4141 841.225,825.0234 C841.225,824.5703 840.8344,824.1797 840.3656,824.1797 C840.1469,824.1797 839.9437,824.2578 839.7562,824.4453 C839.3031,824.9297 839.3031,824.9297 839.1156,825.0234 C838.6937,825.2891 838.0062,825.4141 837.2406,825.4141 C835.1937,825.4141 833.8969,824.3203 833.8969,822.6172 L833.8969,821.5234 C833.8969,819.7422 835.1469,818.4297 836.8812,818.4297 C837.4594,818.4297 838.0687,818.5859 838.5375,818.8359 C839.0219,819.1172 839.1937,819.3359 839.2875,819.7422 C839.35,820.1484 839.3812,820.2734 839.5219,820.3984 C839.6625,820.5391 839.8969,820.6484 840.1156,820.6484 C840.3812,820.6484 840.6469,820.5078 840.8187,820.2891 C840.9281,820.1328 840.9594,819.9453 840.9594,819.5234 L840.9594,818.1016 C840.9594,817.6641 840.9437,817.5391 840.85,817.3828 C840.6937,817.1172 840.4125,816.9766 840.1156,816.9766 C839.8187,816.9766 839.6156,817.0703 839.3969,817.3828 L839.225,817.3047 Z " fill="#000000"/><text fill="#000000" font-family="sans-serif" font-size="12" font-style="italic" lengthAdjust="spacing" textLength="74" x="855.3812" y="817.6387">«Specimen»</text><text fill="#000000" font-family="sans-serif" font-size="14" lengthAdjust="spacing" textLength="43" x="870.8812" y="833.4639">Probe</text><line style="stroke:#181818;stroke-width:0.5;" x1="742.6312" x2="1009.6312" y1="841.7656" y2="841.7656"/><text fill="#000000" font-family="sans-serif" font-size="14" lengthAdjust="spacing" textLength="95" x="747.6312" y="858.7607">ID : Identifier</text><text fill="#000000" font-family="sans-serif" font-size="14" lengthAdjust="spacing" textLength="216" x="747.6312" y="875.0576">Probenart : CodeableConcept</text><text fill="#000000" font-family="sans-serif" font-size="14" lengthAdjust="spacing" textLength="257" x="747.6312" y="891.3545">Entnahmestelle : CodeableConcept</text><line style="stroke:#181818;stroke-width:0.5;" x1="742.6312" x2="1009.6312" y1="898.6563" y2="898.6563"/></g><!--MD5=[206e108207ed32f0c6d70b9d0585ee81]
class Lesion--><g id="elem_Lesion"><rect codeLine="170" fill="#F1F1F1" height="56.2656" id="Lesion" rx="2.5" ry="2.5" style="stroke:#181818;stroke-width:0.5;" width="130" x="988.1312" y="1081"/><ellipse cx="1003.1312" cy="1101.1328" fill="#ADD1B2" rx="11" ry="11" style="stroke:#181818;stroke-width:1.0;"/><path d="M1005.475,1096.8047 C1004.5375,1096.3672 1003.9437,1096.2266 1003.0687,1096.2266 C1000.4437,1096.2266 998.4437,1098.3047 998.4437,1101.0234 L998.4437,1102.1484 C998.4437,1104.7266 1000.5531,1106.6172 1003.4437,1106.6172 C1004.6625,1106.6172 1005.8187,1106.3203 1006.5687,1105.7734 C1007.1469,1105.3672 1007.475,1104.9141 1007.475,1104.5234 C1007.475,1104.0703 1007.0844,1103.6797 1006.6156,1103.6797 C1006.3969,1103.6797 1006.1937,1103.7578 1006.0062,1103.9453 C1005.5531,1104.4297 1005.5531,1104.4297 1005.3656,1104.5234 C1004.9437,1104.7891 1004.2562,1104.9141 1003.4906,1104.9141 C1001.4437,1104.9141 1000.1469,1103.8203 1000.1469,1102.1172 L1000.1469,1101.0234 C1000.1469,1099.2422 1001.3969,1097.9297 1003.1312,1097.9297 C1003.7094,1097.9297 1004.3187,1098.0859 1004.7875,1098.3359 C1005.2719,1098.6172 1005.4437,1098.8359 1005.5375,1099.2422 C1005.6,1099.6484 1005.6312,1099.7734 1005.7719,1099.8984 C1005.9125,1100.0391 1006.1469,1100.1484 1006.3656,1100.1484 C1006.6312,1100.1484 1006.8969,1100.0078 1007.0687,1099.7891 C1007.1781,1099.6328 1007.2094,1099.4453 1007.2094,1099.0234 L1007.2094,1097.6016 C1007.2094,1097.1641 1007.1937,1097.0391 1007.1,1096.8828 C1006.9437,1096.6172 1006.6625,1096.4766 1006.3656,1096.4766 C1006.0687,1096.4766 1005.8656,1096.5703 1005.6469,1096.8828 L1005.475,1096.8047 Z " fill="#000000"/><text fill="#000000" font-family="sans-serif" font-size="12" font-style="italic" lengthAdjust="spacing" textLength="102" x="1015.1312" y="1097.1387">«BodyStructure»</text><text fill="#000000" font-family="sans-serif" font-size="14" lengthAdjust="spacing" textLength="46" x="1043.1313" y="1112.9639">Lesion</text><line style="stroke:#181818;stroke-width:0.5;" x1="989.1312" x2="1117.1313" y1="1121.2656" y2="1121.2656"/><line style="stroke:#181818;stroke-width:0.5;" x1="989.1312" x2="1117.1313" y1="1129.2656" y2="1129.2656"/></g><!--MD5=[748f9bdd031e8b782d7fb3285f9bd533]
class EpisodeOfCare--><g id="elem_EpisodeOfCare"><rect codeLine="171" fill="#F1F1F1" height="48" id="EpisodeOfCare" rx="2.5" ry="2.5" style="stroke:#181818;stroke-width:0.5;" width="139" x="2244.6263" y="830"/><ellipse cx="2259.6263" cy="846" fill="#ADD1B2" rx="11" ry="11" style="stroke:#181818;stroke-width:1.0;"/><path d="M2261.97,841.6719 C2261.0325,841.2344 2260.4388,841.0938 2259.5638,841.0938 C2256.9388,841.0938 2254.9388,843.1719 2254.9388,845.8906 L2254.9388,847.0156 C2254.9388,849.5938 2257.0481,851.4844 2259.9388,851.4844 C2261.1575,851.4844 2262.3138,851.1875 2263.0638,850.6406 C2263.6419,850.2344 2263.97,849.7813 2263.97,849.3906 C2263.97,848.9375 2263.5794,848.5469 2263.1106,848.5469 C2262.8919,848.5469 2262.6888,848.625 2262.5013,848.8125 C2262.0481,849.2969 2262.0481,849.2969 2261.8606,849.3906 C2261.4388,849.6563 2260.7513,849.7813 2259.9856,849.7813 C2257.9388,849.7813 2256.6419,848.6875 2256.6419,846.9844 L2256.6419,845.8906 C2256.6419,844.1094 2257.8919,842.7969 2259.6263,842.7969 C2260.2044,842.7969 2260.8138,842.9531 2261.2825,843.2031 C2261.7669,843.4844 2261.9388,843.7031 2262.0325,844.1094 C2262.095,844.5156 2262.1263,844.6406 2262.2669,844.7656 C2262.4075,844.9063 2262.6419,845.0156 2262.8606,845.0156 C2263.1263,845.0156 2263.3919,844.875 2263.5638,844.6563 C2263.6731,844.5 2263.7044,844.3125 2263.7044,843.8906 L2263.7044,842.4688 C2263.7044,842.0313 2263.6888,841.9063 2263.595,841.75 C2263.4388,841.4844 2263.1575,841.3438 2262.8606,841.3438 C2262.5638,841.3438 2262.3606,841.4375 2262.1419,841.75 L2261.97,841.6719 Z " fill="#000000"/><text fill="#000000" font-family="sans-serif" font-size="14" lengthAdjust="spacing" textLength="107" x="2273.6263" y="850.8467">EpisodeOfCare</text><line style="stroke:#181818;stroke-width:0.5;" x1="2245.6263" x2="2382.6263" y1="862" y2="862"/><line style="stroke:#181818;stroke-width:0.5;" x1="2245.6263" x2="2382.6263" y1="870" y2="870"/></g><!--MD5=[0a005aa698e1f18d1a2bb4de0df49e47]
class Encounter--><g id="elem_Encounter"><rect codeLine="172" fill="#F1F1F1" height="48" id="Encounter" rx="2.5" ry="2.5" style="stroke:#181818;stroke-width:0.5;" width="106" x="2244.1263" y="469"/><ellipse cx="2259.1263" cy="485" fill="#ADD1B2" rx="11" ry="11" style="stroke:#181818;stroke-width:1.0;"/><path d="M2261.47,480.6719 C2260.5325,480.2344 2259.9388,480.0938 2259.0638,480.0938 C2256.4388,480.0938 2254.4388,482.1719 2254.4388,484.8906 L2254.4388,486.0156 C2254.4388,488.5938 2256.5481,490.4844 2259.4388,490.4844 C2260.6575,490.4844 2261.8138,490.1875 2262.5638,489.6406 C2263.1419,489.2344 2263.47,488.7813 2263.47,488.3906 C2263.47,487.9375 2263.0794,487.5469 2262.6106,487.5469 C2262.3919,487.5469 2262.1888,487.625 2262.0013,487.8125 C2261.5481,488.2969 2261.5481,488.2969 2261.3606,488.3906 C2260.9388,488.6563 2260.2513,488.7813 2259.4856,488.7813 C2257.4388,488.7813 2256.1419,487.6875 2256.1419,485.9844 L2256.1419,484.8906 C2256.1419,483.1094 2257.3919,481.7969 2259.1263,481.7969 C2259.7044,481.7969 2260.3138,481.9531 2260.7825,482.2031 C2261.2669,482.4844 2261.4388,482.7031 2261.5325,483.1094 C2261.595,483.5156 2261.6263,483.6406 2261.7669,483.7656 C2261.9075,483.9063 2262.1419,484.0156 2262.3606,484.0156 C2262.6263,484.0156 2262.8919,483.875 2263.0638,483.6563 C2263.1731,483.5 2263.2044,483.3125 2263.2044,482.8906 L2263.2044,481.4688 C2263.2044,481.0313 2263.1888,480.9063 2263.095,480.75 C2262.9388,480.4844 2262.6575,480.3438 2262.3606,480.3438 C2262.0638,480.3438 2261.8606,480.4375 2261.6419,480.75 L2261.47,480.6719 Z " fill="#000000"/><text fill="#000000" font-family="sans-serif" font-size="14" lengthAdjust="spacing" textLength="74" x="2273.1263" y="489.8467">Encounter</text><line style="stroke:#181818;stroke-width:0.5;" x1="2245.1263" x2="2349.1263" y1="501" y2="501"/><line style="stroke:#181818;stroke-width:0.5;" x1="2245.1263" x2="2349.1263" y1="509" y2="509"/></g><!--MD5=[9dd4eaa2771a2ff8dbee15cc1e732cab]
class Patient--><g id="elem_Patient"><rect codeLine="39" fill="#F1F1F1" height="275.5625" id="Patient" rx="2.5" ry="2.5" style="stroke:#181818;stroke-width:0.5;" width="226" x="1912.1263" y="1216"/><ellipse cx="1994.3763" cy="1232" fill="#ADD1B2" rx="11" ry="11" style="stroke:#181818;stroke-width:1.0;"/><path d="M1996.72,1227.6719 C1995.7825,1227.2344 1995.1888,1227.0938 1994.3138,1227.0938 C1991.6888,1227.0938 1989.6888,1229.1719 1989.6888,1231.8906 L1989.6888,1233.0156 C1989.6888,1235.5938 1991.7981,1237.4844 1994.6888,1237.4844 C1995.9075,1237.4844 1997.0638,1237.1875 1997.8138,1236.6406 C1998.3919,1236.2344 1998.72,1235.7813 1998.72,1235.3906 C1998.72,1234.9375 1998.3294,1234.5469 1997.8606,1234.5469 C1997.6419,1234.5469 1997.4388,1234.625 1997.2513,1234.8125 C1996.7981,1235.2969 1996.7981,1235.2969 1996.6106,1235.3906 C1996.1888,1235.6563 1995.5013,1235.7813 1994.7356,1235.7813 C1992.6888,1235.7813 1991.3919,1234.6875 1991.3919,1232.9844 L1991.3919,1231.8906 C1991.3919,1230.1094 1992.6419,1228.7969 1994.3763,1228.7969 C1994.9544,1228.7969 1995.5638,1228.9531 1996.0325,1229.2031 C1996.5169,1229.4844 1996.6888,1229.7031 1996.7825,1230.1094 C1996.845,1230.5156 1996.8763,1230.6406 1997.0169,1230.7656 C1997.1575,1230.9063 1997.3919,1231.0156 1997.6106,1231.0156 C1997.8763,1231.0156 1998.1419,1230.875 1998.3138,1230.6563 C1998.4231,1230.5 1998.4544,1230.3125 1998.4544,1229.8906 L1998.4544,1228.4688 C1998.4544,1228.0313 1998.4388,1227.9063 1998.345,1227.75 C1998.1888,1227.4844 1997.9075,1227.3438 1997.6106,1227.3438 C1997.3138,1227.3438 1997.1106,1227.4375 1996.8919,1227.75 L1996.72,1227.6719 Z " fill="#000000"/><text fill="#000000" font-family="sans-serif" font-size="14" lengthAdjust="spacing" textLength="53" x="2014.8763" y="1236.8467">Patient</text><line style="stroke:#181818;stroke-width:0.5;" x1="1913.1263" x2="2137.1263" y1="1248" y2="1248"/><text fill="#000000" font-family="sans-serif" font-size="14" lengthAdjust="spacing" textLength="41" x="1918.1263" y="1264.9951">Name</text><text fill="#000000" font-family="sans-serif" font-size="14" lengthAdjust="spacing" textLength="143" x="1918.1263" y="1281.292">name : HumanName</text><line style="stroke:#181818;stroke-width:1.0;stroke-dasharray:1.0,2.0;" x1="1913.1263" x2="2137.1263" y1="1288.5938" y2="1288.5938"/><text fill="#000000" font-family="sans-serif" font-size="14" lengthAdjust="spacing" textLength="178" x="1918.1263" y="1305.5889">GeschlechtAdministrativ</text><text fill="#000000" font-family="sans-serif" font-size="14" lengthAdjust="spacing" textLength="99" x="1918.1263" y="1321.8857">gender : code</text><line style="stroke:#181818;stroke-width:1.0;stroke-dasharray:1.0,2.0;" x1="1913.1263" x2="2137.1263" y1="1329.1875" y2="1329.1875"/><text fill="#000000" font-family="sans-serif" font-size="14" lengthAdjust="spacing" textLength="104" x="1918.1263" y="1346.1826">Geburtsdatum</text><text fill="#000000" font-family="sans-serif" font-size="14" lengthAdjust="spacing" textLength="117" x="1918.1263" y="1362.4795">birthDate : date</text><line style="stroke:#181818;stroke-width:1.0;stroke-dasharray:1.0,2.0;" x1="1913.1263" x2="2137.1263" y1="1369.7813" y2="1369.7813"/><text fill="#000000" font-family="sans-serif" font-size="14" lengthAdjust="spacing" textLength="57" x="1918.1263" y="1386.7764">Adresse</text><text fill="#000000" font-family="sans-serif" font-size="14" lengthAdjust="spacing" textLength="125" x="1918.1263" y="1403.0732">address : Address</text><line style="stroke:#181818;stroke-width:1.0;stroke-dasharray:1.0,2.0;" x1="1913.1263" x2="2137.1263" y1="1410.375" y2="1410.375"/><text fill="#000000" font-family="sans-serif" font-size="14" lengthAdjust="spacing" textLength="72" x="1918.1263" y="1427.3701">Ethnizität</text><text fill="#000000" font-family="sans-serif" font-size="14" lengthAdjust="spacing" textLength="214" x="1918.1263" y="1443.667">extension : CodeableConcept</text><line style="stroke:#181818;stroke-width:1.0;stroke-dasharray:1.0,2.0;" x1="1913.1263" x2="2137.1263" y1="1450.9688" y2="1450.9688"/><text fill="#000000" font-family="sans-serif" font-size="14" lengthAdjust="spacing" textLength="154" x="1918.1263" y="1467.9639">GeschlechtBiologisch</text><text fill="#000000" font-family="sans-serif" font-size="14" lengthAdjust="spacing" textLength="214" x="1918.1263" y="1484.2607">extension : CodeableConcept</text></g><!--MD5=[074a3211768c979108f6fc80d6a51558]
class RecistObservation--><g id="elem_RecistObservation"><rect codeLine="98" fill="#F1F1F1" height="105.1563" id="RecistObservation" rx="2.5" ry="2.5" style="stroke:#181818;stroke-width:0.5;" width="322" x="384.1313" y="801.5"/><ellipse cx="474.3813" cy="821.6328" fill="#ADD1B2" rx="11" ry="11" style="stroke:#181818;stroke-width:1.0;"/><path d="M476.725,817.3047 C475.7875,816.8672 475.1938,816.7266 474.3188,816.7266 C471.6938,816.7266 469.6938,818.8047 469.6938,821.5234 L469.6938,822.6484 C469.6938,825.2266 471.8031,827.1172 474.6938,827.1172 C475.9125,827.1172 477.0688,826.8203 477.8188,826.2734 C478.3969,825.8672 478.725,825.4141 478.725,825.0234 C478.725,824.5703 478.3344,824.1797 477.8656,824.1797 C477.6469,824.1797 477.4438,824.2578 477.2563,824.4453 C476.8031,824.9297 476.8031,824.9297 476.6156,825.0234 C476.1938,825.2891 475.5063,825.4141 474.7406,825.4141 C472.6938,825.4141 471.3969,824.3203 471.3969,822.6172 L471.3969,821.5234 C471.3969,819.7422 472.6469,818.4297 474.3813,818.4297 C474.9594,818.4297 475.5688,818.5859 476.0375,818.8359 C476.5219,819.1172 476.6938,819.3359 476.7875,819.7422 C476.85,820.1484 476.8813,820.2734 477.0219,820.3984 C477.1625,820.5391 477.3969,820.6484 477.6156,820.6484 C477.8813,820.6484 478.1469,820.5078 478.3188,820.2891 C478.4281,820.1328 478.4594,819.9453 478.4594,819.5234 L478.4594,818.1016 C478.4594,817.6641 478.4438,817.5391 478.35,817.3828 C478.1938,817.1172 477.9125,816.9766 477.6156,816.9766 C477.3188,816.9766 477.1156,817.0703 476.8969,817.3828 L476.725,817.3047 Z " fill="#000000"/><text fill="#000000" font-family="sans-serif" font-size="12" font-style="italic" lengthAdjust="spacing" textLength="86" x="518.3813" y="817.6387">«Observation»</text><text fill="#000000" font-family="sans-serif" font-size="14" lengthAdjust="spacing" textLength="133" x="494.8813" y="833.4639">RecistObservation</text><line style="stroke:#181818;stroke-width:0.5;" x1="385.1313" x2="705.1313" y1="841.7656" y2="841.7656"/><text fill="#000000" font-family="sans-serif" font-size="14" lengthAdjust="spacing" textLength="178" x="390.1313" y="858.7607">code : CodeableConcept</text><text fill="#000000" font-family="sans-serif" font-size="14" lengthAdjust="spacing" textLength="310" x="390.1313" y="875.0576">valueCodeableConcept : CodeableConcept</text><text fill="#000000" font-family="sans-serif" font-size="14" lengthAdjust="spacing" textLength="219" x="390.1313" y="891.3545">effectiveDateTime : dateTime</text><line style="stroke:#181818;stroke-width:0.5;" x1="385.1313" x2="705.1313" y1="898.6563" y2="898.6563"/></g><!--MD5=[cd9f3ad88d2eade7181ed8fb48b0d0c6]
class Prozedur--><g id="elem_Prozedur"><rect codeLine="153" fill="#F1F1F1" height="121.4531" id="Prozedur" rx="2.5" ry="2.5" style="stroke:#181818;stroke-width:0.5;" width="256" x="156.1313" y="7"/><ellipse cx="244.3813" cy="27.1328" fill="#ADD1B2" rx="11" ry="11" style="stroke:#181818;stroke-width:1.0;"/><path d="M246.725,22.8047 C245.7875,22.3672 245.1938,22.2266 244.3188,22.2266 C241.6938,22.2266 239.6938,24.3047 239.6938,27.0234 L239.6938,28.1484 C239.6938,30.7266 241.8031,32.6172 244.6938,32.6172 C245.9125,32.6172 247.0688,32.3203 247.8188,31.7734 C248.3969,31.3672 248.725,30.9141 248.725,30.5234 C248.725,30.0703 248.3344,29.6797 247.8656,29.6797 C247.6469,29.6797 247.4438,29.7578 247.2563,29.9453 C246.8031,30.4297 246.8031,30.4297 246.6156,30.5234 C246.1938,30.7891 245.5063,30.9141 244.7406,30.9141 C242.6938,30.9141 241.3969,29.8203 241.3969,28.1172 L241.3969,27.0234 C241.3969,25.2422 242.6469,23.9297 244.3813,23.9297 C244.9594,23.9297 245.5688,24.0859 246.0375,24.3359 C246.5219,24.6172 246.6938,24.8359 246.7875,25.2422 C246.85,25.6484 246.8813,25.7734 247.0219,25.8984 C247.1625,26.0391 247.3969,26.1484 247.6156,26.1484 C247.8813,26.1484 248.1469,26.0078 248.3188,25.7891 C248.4281,25.6328 248.4594,25.4453 248.4594,25.0234 L248.4594,23.6016 C248.4594,23.1641 248.4438,23.0391 248.35,22.8828 C248.1938,22.6172 247.9125,22.4766 247.6156,22.4766 C247.3188,22.4766 247.1156,22.5703 246.8969,22.8828 L246.725,22.8047 Z " fill="#000000"/><text fill="#000000" font-family="sans-serif" font-size="12" font-style="italic" lengthAdjust="spacing" textLength="75" x="262.8813" y="23.1387">«Procedure»</text><text fill="#000000" font-family="sans-serif" font-size="14" lengthAdjust="spacing" textLength="64" x="268.3813" y="38.9639">Prozedur</text><line style="stroke:#181818;stroke-width:0.5;" x1="157.1313" x2="411.1313" y1="47.2656" y2="47.2656"/><text fill="#000000" font-family="sans-serif" font-size="14" lengthAdjust="spacing" textLength="176" x="162.1313" y="64.2607">Code: CodeableConcept</text><text fill="#000000" font-family="sans-serif" font-size="14" lengthAdjust="spacing" textLength="228" x="162.1313" y="80.5576">Durchführungsdatum: dateTime</text><text fill="#000000" font-family="sans-serif" font-size="14" lengthAdjust="spacing" textLength="244" x="162.1313" y="96.8545">Dokumentationsdatum: dateTime</text><text fill="#000000" font-family="sans-serif" font-size="14" lengthAdjust="spacing" textLength="229" x="162.1313" y="113.1514">Körperstelle: CodeableConcept</text><line style="stroke:#181818;stroke-width:0.5;" x1="157.1313" x2="411.1313" y1="120.4531" y2="120.4531"/></g><!--MD5=[d19dafc1bcb47d63bd413283b646160c]
class ECOG--><g id="elem_ECOG"><rect codeLine="168" fill="#F1F1F1" height="56.2656" id="ECOG" rx="2.5" ry="2.5" style="stroke:#181818;stroke-width:0.5;" width="220" x="2291.1263" y="1081"/><ellipse cx="2306.1263" cy="1101.1328" fill="#ADD1B2" rx="11" ry="11" style="stroke:#181818;stroke-width:1.0;"/><path d="M2308.47,1096.8047 C2307.5325,1096.3672 2306.9388,1096.2266 2306.0638,1096.2266 C2303.4388,1096.2266 2301.4388,1098.3047 2301.4388,1101.0234 L2301.4388,1102.1484 C2301.4388,1104.7266 2303.5481,1106.6172 2306.4388,1106.6172 C2307.6575,1106.6172 2308.8138,1106.3203 2309.5638,1105.7734 C2310.1419,1105.3672 2310.47,1104.9141 2310.47,1104.5234 C2310.47,1104.0703 2310.0794,1103.6797 2309.6106,1103.6797 C2309.3919,1103.6797 2309.1888,1103.7578 2309.0013,1103.9453 C2308.5481,1104.4297 2308.5481,1104.4297 2308.3606,1104.5234 C2307.9388,1104.7891 2307.2513,1104.9141 2306.4856,1104.9141 C2304.4388,1104.9141 2303.1419,1103.8203 2303.1419,1102.1172 L2303.1419,1101.0234 C2303.1419,1099.2422 2304.3919,1097.9297 2306.1263,1097.9297 C2306.7044,1097.9297 2307.3138,1098.0859 2307.7825,1098.3359 C2308.2669,1098.6172 2308.4388,1098.8359 2308.5325,1099.2422 C2308.595,1099.6484 2308.6263,1099.7734 2308.7669,1099.8984 C2308.9075,1100.0391 2309.1419,1100.1484 2309.3606,1100.1484 C2309.6263,1100.1484 2309.8919,1100.0078 2310.0638,1099.7891 C2310.1731,1099.6328 2310.2044,1099.4453 2310.2044,1099.0234 L2310.2044,1097.6016 C2310.2044,1097.1641 2310.1888,1097.0391 2310.095,1096.8828 C2309.9388,1096.6172 2309.6575,1096.4766 2309.3606,1096.4766 C2309.0638,1096.4766 2308.8606,1096.5703 2308.6419,1096.8828 L2308.47,1096.8047 Z " fill="#000000"/><text fill="#000000" font-family="sans-serif" font-size="12" font-style="italic" lengthAdjust="spacing" textLength="86" x="2371.1263" y="1097.1387">«Observation»</text><text fill="#000000" font-family="sans-serif" font-size="14" lengthAdjust="spacing" textLength="188" x="2320.1263" y="1112.9639">ECOG Performance Status</text><line style="stroke:#181818;stroke-width:0.5;" x1="2292.1263" x2="2510.1263" y1="1121.2656" y2="1121.2656"/><line style="stroke:#181818;stroke-width:0.5;" x1="2292.1263" x2="2510.1263" y1="1129.2656" y2="1129.2656"/></g><!--MD5=[933bd3991355c07795e371f40e82445e]
class Karnofsky--><g id="elem_Karnofsky"><rect codeLine="169" fill="#F1F1F1" height="56.2656" id="Karnofsky" rx="2.5" ry="2.5" style="stroke:#181818;stroke-width:0.5;" width="251" x="2546.6263" y="1081"/><ellipse cx="2561.6263" cy="1101.1328" fill="#ADD1B2" rx="11" ry="11" style="stroke:#181818;stroke-width:1.0;"/><path d="M2563.97,1096.8047 C2563.0325,1096.3672 2562.4388,1096.2266 2561.5638,1096.2266 C2558.9388,1096.2266 2556.9388,1098.3047 2556.9388,1101.0234 L2556.9388,1102.1484 C2556.9388,1104.7266 2559.0481,1106.6172 2561.9388,1106.6172 C2563.1575,1106.6172 2564.3138,1106.3203 2565.0638,1105.7734 C2565.6419,1105.3672 2565.97,1104.9141 2565.97,1104.5234 C2565.97,1104.0703 2565.5794,1103.6797 2565.1106,1103.6797 C2564.8919,1103.6797 2564.6888,1103.7578 2564.5013,1103.9453 C2564.0481,1104.4297 2564.0481,1104.4297 2563.8606,1104.5234 C2563.4388,1104.7891 2562.7513,1104.9141 2561.9856,1104.9141 C2559.9388,1104.9141 2558.6419,1103.8203 2558.6419,1102.1172 L2558.6419,1101.0234 C2558.6419,1099.2422 2559.8919,1097.9297 2561.6263,1097.9297 C2562.2044,1097.9297 2562.8138,1098.0859 2563.2825,1098.3359 C2563.7669,1098.6172 2563.9388,1098.8359 2564.0325,1099.2422 C2564.095,1099.6484 2564.1263,1099.7734 2564.2669,1099.8984 C2564.4075,1100.0391 2564.6419,1100.1484 2564.8606,1100.1484 C2565.1263,1100.1484 2565.3919,1100.0078 2565.5638,1099.7891 C2565.6731,1099.6328 2565.7044,1099.4453 2565.7044,1099.0234 L2565.7044,1097.6016 C2565.7044,1097.1641 2565.6888,1097.0391 2565.595,1096.8828 C2565.4388,1096.6172 2565.1575,1096.4766 2564.8606,1096.4766 C2564.5638,1096.4766 2564.3606,1096.5703 2564.1419,1096.8828 L2563.97,1096.8047 Z " fill="#000000"/><text fill="#000000" font-family="sans-serif" font-size="12" font-style="italic" lengthAdjust="spacing" textLength="86" x="2642.1263" y="1097.1387">«Observation»</text><text fill="#000000" font-family="sans-serif" font-size="14" lengthAdjust="spacing" textLength="219" x="2575.6263" y="1112.9639">Karnofsky Performance Status</text><line style="stroke:#181818;stroke-width:0.5;" x1="2547.6263" x2="2796.6263" y1="1121.2656" y2="1121.2656"/><line style="stroke:#181818;stroke-width:0.5;" x1="2547.6263" x2="2796.6263" y1="1129.2656" y2="1129.2656"/></g><!--MD5=[2cb283ff102682f846c143f1c5ed4d75]
link Vitalstatus to Patient--><g id="link_Vitalstatus_Patient"><path codeLine="175" d="M3382.6862,906.595 C3356.0363,937.1 3319.8563,975.258 3283.1263,1004 C3172.3063,1090.744 3140.0563,1111.972 3008.1263,1161 C2708.1862,1272.474 2331.5063,1322.897 2143.4162,1342.438 " fill="none" id="Vitalstatus-to-Patient" style="stroke:#181818;stroke-width:1.0;"/><polygon fill="#181818" points="2138.1763,1342.979,2147.54,1346.032,2143.1497,1342.4647,2146.717,1338.0744,2138.1763,1342.979" style="stroke:#181818;stroke-width:1.0;"/><text fill="#000000" font-family="sans-serif" font-size="13" lengthAdjust="spacing" textLength="46" x="3177.1263" y="1113.5669">subject</text></g><!--MD5=[66e58534e0fc43b6967702cca674417d]
link Körpergröße to Körpermaße--><g id="link_Körpergröße_Körpermaße"><path codeLine="176" d="M3134.0663,898.767 C3111.5563,929.402 3079.6363,970.649 3048.1263,1004 C3023.4663,1030.109 2992.9963,1056.843 2969.1963,1076.668 " fill="none" id="Körpergröße-to-Körpermaße" style="stroke:#181818;stroke-width:1.0;"/><polygon fill="#181818" points="2959.1063,1084.991,2966.2794,1084.2525,2968.3567,1077.3471,2961.1835,1078.0856,2959.1063,1084.991" style="stroke:#181818;stroke-width:1.0;"/></g><!--MD5=[a12f255ad59ef922b6ba7912a4990a0a]
link Körpermaße to Patient--><g id="link_Körpermaße_Patient"><path codeLine="177" d="M2883.3363,1133.035 C2862.7463,1142.567 2838.0863,1153.192 2815.1263,1161 C2581.8163,1240.373 2299.2663,1300.79 2143.1763,1331.185 " fill="none" id="Körpermaße-to-Patient" style="stroke:#181818;stroke-width:1.0;"/><polygon fill="#181818" points="2138.1363,1332.165,2147.7292,1334.3955,2143.0465,1331.2218,2146.2201,1326.5391,2138.1363,1332.165" style="stroke:#181818;stroke-width:1.0;"/><text fill="#000000" font-family="sans-serif" font-size="13" lengthAdjust="spacing" textLength="46" x="2775.1263" y="1182.0669">subject</text></g><!--MD5=[04577c2fe850a11dac67b21df608c527]
link Körpergewicht to Körpermaße--><g id="link_Körpergewicht_Körpermaße"><path codeLine="178" d="M2930.1263,898.78 C2930.1263,947.742 2930.1263,1026.143 2930.1263,1071.789 " fill="none" id="Körpergewicht-to-Körpermaße" style="stroke:#181818;stroke-width:1.0;"/><polygon fill="#181818" points="2930.1263,1084.834,2934.1263,1078.834,2930.1263,1072.834,2926.1263,1078.834,2930.1263,1084.834" style="stroke:#181818;stroke-width:1.0;"/></g><!--MD5=[f60b4cbc24e107cb24012655fee11f6b]
link Tumorerkrankung to ImagingStudy--><g id="link_Tumorerkrankung_ImagingStudy"><path codeLine="179" d="M1282.4763,1004.365 C1276.0063,1033.115 1269.8963,1060.236 1265.5462,1079.517 " fill="none" id="Tumorerkrankung-to-ImagingStudy" style="stroke:#181818;stroke-width:1.0;"/><polygon fill="#181818" points="1264.3663,1084.742,1270.2504,1076.8441,1265.4676,1079.8648,1262.4468,1075.082,1264.3663,1084.742" style="stroke:#181818;stroke-width:1.0;"/><text fill="#000000" font-family="sans-serif" font-size="13" lengthAdjust="spacing" textLength="97" x="1276.1263" y="1047.0669">evidence.detail</text></g><!--MD5=[3926d912a2195fc46efa079cb28ba2e3]
link Tumorerkrankung to Patient--><g id="link_Tumorerkrankung_Patient"><path codeLine="180" d="M1457.9263,926.657 C1507.0063,951.32 1562.4163,979.012 1613.1263,1004 C1675.7862,1034.872 1695.3763,1037.634 1750.1263,1081 C1805.2862,1124.682 1861.3563,1178.167 1908.3563,1226.116 " fill="none" id="Tumorerkrankung-to-Patient" style="stroke:#181818;stroke-width:1.0;"/><polygon fill="#181818" points="1912.0063,1229.852,1908.5694,1220.6223,1908.5088,1226.2788,1902.8523,1226.2182,1912.0063,1229.852" style="stroke:#181818;stroke-width:1.0;"/><text fill="#000000" font-family="sans-serif" font-size="13" lengthAdjust="spacing" textLength="46" x="1841.1263" y="1113.5669">subject</text></g><!--MD5=[ea5d66d47abef98cc21daa85acf8e6fc]
link Tumorerkrankung to Tumorerkrankung--><g id="link_Tumorerkrankung_Tumorerkrankung"><path codeLine="181" d="M1457.7363,822.107 C1478.5662,827.121 1492.6263,837.752 1492.6263,854 C1492.6263,868.852 1480.8863,879.01 1462.9563,884.476 " fill="none" id="Tumorerkrankung-to-Tumorerkrankung" style="stroke:#181818;stroke-width:1.0;"/><polygon fill="#181818" points="1457.7363,885.893,1467.4669,887.4143,1462.5641,884.5924,1465.386,879.6896,1457.7363,885.893" style="stroke:#181818;stroke-width:1.0;"/><text fill="#000000" font-family="sans-serif" font-size="13" lengthAdjust="spacing" textLength="108" x="1498.6263" y="858.5669">ocurredFollowing</text></g><!--MD5=[d4492841ae4990bc16a941d792efc795]
link Tumorerkrankung to Assessment--><g id="link_Tumorerkrankung_Assessment"><path codeLine="182" d="M1457.9063,986.06 C1486.3663,1009.211 1516.8563,1031.964 1547.1263,1051 C1567.3263,1063.7 1590.8363,1075.035 1612.1563,1084.187 " fill="none" id="Tumorerkrankung-to-Assessment" style="stroke:#181818;stroke-width:1.0;"/><polygon fill="#181818" points="1616.9563,1086.226,1610.2399,1079.0225,1612.3551,1084.269,1607.1087,1086.3843,1616.9563,1086.226" style="stroke:#181818;stroke-width:1.0;"/><text fill="#000000" font-family="sans-serif" font-size="13" lengthAdjust="spacing" textLength="118" x="1548.1263" y="1047.0669">stage.assessment</text></g><!--MD5=[bc7951ba232a21c6216344e9208aac59]
link RecistObservation to Patient--><g id="link_RecistObservation_Patient"><path codeLine="183" d="M551.8383,906.672 C563.8103,976.342 595.7623,1098.82 677.1312,1161 C869.2253,1307.793 1614.9163,1342.584 1906.9263,1350.639 " fill="none" id="RecistObservation-to-Patient" style="stroke:#181818;stroke-width:1.0;"/><polygon fill="#181818" points="1912.0462,1350.779,1903.1642,1346.5235,1907.0483,1350.6362,1902.9357,1354.5203,1912.0462,1350.779" style="stroke:#181818;stroke-width:1.0;"/><text fill="#000000" font-family="sans-serif" font-size="13" lengthAdjust="spacing" textLength="46" x="678.1312" y="1113.5669">subject</text></g><!--MD5=[51096abf0bcde1a79700c5f61ba697f5]
link RecistObservation to ImagingStudy--><g id="link_RecistObservation_ImagingStudy"><path codeLine="184" d="M590.7742,906.737 C624.2433,940.843 672.8143,982.962 725.1312,1004 C894.2373,1072.001 960.2153,979.464 1134.1263,1034 C1167.2063,1044.371 1200.7962,1064.937 1224.8162,1081.761 " fill="none" id="RecistObservation-to-ImagingStudy" style="stroke:#181818;stroke-width:1.0;"/><polygon fill="#181818" points="1229.1863,1084.855,1224.1468,1076.3931,1225.1036,1081.9684,1219.5283,1082.9253,1229.1863,1084.855" style="stroke:#181818;stroke-width:1.0;"/><text fill="#000000" font-family="sans-serif" font-size="13" lengthAdjust="spacing" textLength="41" x="1176.1263" y="1047.0669">partOf</text></g><!--MD5=[8308c39facda70def4e70ecd4d7ca24c]
link RecistObservation to Therapie--><g id="link_RecistObservation_Therapie"><path codeLine="185" d="M490.5743,906.503 C434.5663,959.376 349.5793,1039.607 305.6523,1081.075 " fill="none" id="RecistObservation-to-Therapie" style="stroke:#181818;stroke-width:1.0;"/><polygon fill="#181818" points="301.7893,1084.722,311.08,1081.4536,305.4255,1081.2901,305.5889,1075.6356,301.7893,1084.722" style="stroke:#181818;stroke-width:1.0;"/><text fill="#000000" font-family="sans-serif" font-size="13" lengthAdjust="spacing" textLength="41" x="350.1313" y="1047.0669">partOf</text></g><!--MD5=[d865f4d9662abb69d8c4ed13185e01f4]
link Laborbefund to Patient--><g id="link_Laborbefund_Patient"><path codeLine="186" d="M1109.8062,246.45 C1386.1763,254.24 2358.3563,285.11 2400.1263,335 C2591.0063,562.978 2546.0263,744.923 2400.1263,1004 C2367.7463,1061.516 2323.5263,1038.372 2273.1263,1081 C2237.2863,1111.322 2235.4763,1126.044 2204.1263,1161 C2184.2163,1183.21 2162.7763,1206.616 2141.9063,1229.154 " fill="none" id="Laborbefund-to-Patient" style="stroke:#181818;stroke-width:1.0;"/><polygon fill="#181818" points="2138.2863,1233.057,2147.3355,1229.1696,2141.6828,1229.3877,2141.4646,1223.7351,2138.2863,1233.057" style="stroke:#181818;stroke-width:1.0;"/><text fill="#000000" font-family="sans-serif" font-size="13" lengthAdjust="spacing" textLength="46" x="2522.1263" y="858.5669">subject</text></g><!--MD5=[67dea1a54840bcb16fc16574e2c05a82]
link Laborbefund to Laborparameter--><g id="link_Laborbefund_Laborparameter"><path codeLine="187" d="M1033.8163,280.22 C1030.2463,318.59 1024.5063,380.34 1020.1463,427.29 " fill="none" id="Laborbefund-to-Laborparameter" style="stroke:#181818;stroke-width:1.0;"/><polygon fill="#181818" points="1019.6763,432.37,1024.508,423.7878,1020.1483,427.3923,1016.5438,423.0326,1019.6763,432.37" style="stroke:#181818;stroke-width:1.0;"/><text fill="#000000" font-family="sans-serif" font-size="13" lengthAdjust="spacing" textLength="36" x="1032.1263" y="323.0669">result</text></g><!--MD5=[11ebcbbda5b5785f5dc054d70ad60c18]
link Laborparameter to Probe--><g id="link_Laborparameter_Probe"><path codeLine="188" d="M991.1882,553.685 C965.2172,621.248 923.2233,730.492 897.7933,796.647 " fill="none" id="Laborparameter-to-Probe" style="stroke:#181818;stroke-width:1.0;"/><polygon fill="#181818" points="895.9912,801.335,902.9544,794.3698,897.7855,796.668,895.4873,791.499,895.9912,801.335" style="stroke:#181818;stroke-width:1.0;"/><text fill="#000000" font-family="sans-serif" font-size="13" lengthAdjust="spacing" textLength="62" x="951.1312" y="670.0669">specimen</text></g><!--MD5=[344270be369d4e365fad241799aeae96]
link Staging to Assessment--><g id="link_Staging_Assessment"><path codeLine="189" d="M1789.8663,878.188 C1778.9963,907.901 1758.7363,960.736 1737.1263,1004 C1725.1963,1027.896 1709.8363,1053.692 1697.3963,1073.614 " fill="none" id="Staging-to-Assessment" style="stroke:#181818;stroke-width:1.0;"/><polygon fill="#181818" points="1690.4463,1084.607,1697.033,1081.672,1696.8571,1074.463,1690.2704,1077.398,1690.4463,1084.607" style="stroke:#181818;stroke-width:1.0;"/></g><!--MD5=[ab267512130df328225f97e18e8d673d]
link Grading to Assessment--><g id="link_Grading_Assessment"><path codeLine="190" d="M1675.1263,878.348 C1675.1263,922.592 1675.1263,1018.926 1675.1263,1071.678 " fill="none" id="Grading-to-Assessment" style="stroke:#181818;stroke-width:1.0;"/><polygon fill="#181818" points="1675.1263,1084.708,1679.1263,1078.708,1675.1263,1072.708,1671.1263,1078.708,1675.1263,1084.708" style="stroke:#181818;stroke-width:1.0;"/></g><!--MD5=[0c445a75d6535e17bfc77af5d63ad958]
link TNM to Staging--><g id="link_TNM_Staging"><path codeLine="191" d="M1905.1563,627.222 C1888.4263,652.114 1872.0263,678.374 1858.1263,704 C1838.0462,741.052 1820.7663,786.287 1809.9763,817.129 " fill="none" id="TNM-to-Staging" style="stroke:#181818;stroke-width:1.0;"/><polygon fill="#181818" points="1805.6263,829.803,1811.3589,825.4285,1809.5257,818.4543,1803.7931,822.8288,1805.6263,829.803" style="stroke:#181818;stroke-width:1.0;"/></g><!--MD5=[fb490bce5b72b37560dd189a139be695]
link TNM to ResidualTumorClassification--><g id="link_TNM_ResidualTumorClassification"><path codeLine="192" d="M2015.1463,627.168 C2020.0863,692.881 2025.6963,767.485 2029.0763,812.36 " fill="none" id="TNM-to-ResidualTumorClassification" style="stroke:#181818;stroke-width:1.0;"/><polygon fill="#181818" points="2029.4563,817.414,2032.7686,808.1389,2029.0805,812.4281,2024.7913,808.74,2029.4563,817.414" style="stroke:#181818;stroke-width:1.0;"/><text fill="#000000" font-family="sans-serif" font-size="13" lengthAdjust="spacing" textLength="75" x="2020.1263" y="670.0669">hasMember</text></g><!--MD5=[f81f07e444886c883bf34924d4e1b3f4]
link HistopathologischesGrading to Grading--><g id="link_HistopathologischesGrading_Grading"><path codeLine="193" d="M1583.2862,529.735 C1602.7962,598.404 1645.3263,748.082 1664.8963,816.977 " fill="none" id="HistopathologischesGrading-to-Grading" style="stroke:#181818;stroke-width:1.0;"/><polygon fill="#181818" points="1668.4963,829.631,1670.7027,822.7658,1665.2142,818.0885,1663.0078,824.9538,1668.4963,829.631" style="stroke:#181818;stroke-width:1.0;"/></g><!--MD5=[b000c9f496b7b93be1ec0a94abb59dcd]
link HistopathologischesGrading to Probe--><g id="link_HistopathologischesGrading_Probe"><path codeLine="194" d="M1515.8263,529.642 C1466.6963,558.986 1393.2663,600.009 1325.1263,627 C1202.3463,675.641 1153.8463,640.351 1038.1263,704 C994.6963,727.891 953.6823,765.83 923.7892,797.445 " fill="none" id="HistopathologischesGrading-to-Probe" style="stroke:#181818;stroke-width:1.0;"/><polygon fill="#181818" points="920.1993,801.268,929.2757,797.4445,923.6216,797.6228,923.4434,791.9688,920.1993,801.268" style="stroke:#181818;stroke-width:1.0;"/><text fill="#000000" font-family="sans-serif" font-size="13" lengthAdjust="spacing" textLength="62" x="1201.1263" y="670.0669">specimen</text></g><!--MD5=[5f5fef4a5a20626009d6af7b339ed585]
link Therapie to Patient--><g id="link_Therapie_Patient"><path codeLine="195" d="M325.2403,1127.369 C375.4633,1144.82 456.8333,1171.191 529.1312,1186 C1035.4463,1289.712 1652.2663,1332.848 1906.7063,1347.106 " fill="none" id="Therapie-to-Patient" style="stroke:#181818;stroke-width:1.0;"/><polygon fill="#181818" points="1911.9063,1347.397,1903.1495,1342.8892,1906.9144,1347.1113,1902.6924,1350.8761,1911.9063,1347.397" style="stroke:#181818;stroke-width:1.0;"/><text fill="#000000" font-family="sans-serif" font-size="13" lengthAdjust="spacing" textLength="46" x="530.1312" y="1182.0669">subject</text></g><!--MD5=[83261313156a1ca10a4d19c60230fd12]
link Prozedur to Therapie--><g id="link_Prozedur_Therapie"><path codeLine="196" d="M155.8523,99.47 C86.1881,124.76 14.1312,168.75 14.1312,242.5 C14.1312,242.5 14.1312,242.5 14.1312,855 C14.1312,923.025 6,951.397 49.1313,1004 C91.2187,1055.33 164.1232,1082.417 216.1623,1095.925 " fill="none" id="Prozedur-to-Therapie" style="stroke:#181818;stroke-width:1.0;"/><polygon fill="#181818" points="228.9123,1099.073,224.0463,1093.7511,217.2623,1096.1958,222.1282,1101.5177,228.9123,1099.073" style="stroke:#181818;stroke-width:1.0;"/></g><!--MD5=[161016bd2b9fcf31a103429b9c76f0dc]
link MedikamentöseTherapie to Therapie--><g id="link_MedikamentöseTherapie_Therapie"><path codeLine="197" d="M224.3962,914.637 C237.7412,963.569 256.1943,1031.232 267.3613,1072.177 " fill="none" id="MedikamentöseTherapie-to-Therapie" style="stroke:#181818;stroke-width:1.0;"/><polygon fill="#181818" points="270.7833,1084.724,273.0638,1077.883,267.6262,1073.1467,265.3456,1079.9877,270.7833,1084.724" style="stroke:#181818;stroke-width:1.0;"/></g><!--MD5=[680a0dc2bc9ac3117a9ab1d93ec25160]
link ECOG to Patient--><g id="link_ECOG_Patient"><path codeLine="198" d="M2359.0963,1137.168 C2307.1463,1170.743 2216.5763,1229.274 2142.8563,1276.919 " fill="none" id="ECOG-to-Patient" style="stroke:#181818;stroke-width:1.0;"/><polygon fill="#181818" points="2138.4663,1279.753,2148.1962,1278.2275,2142.6656,1277.0391,2143.854,1271.5085,2138.4663,1279.753" style="stroke:#181818;stroke-width:1.0;"/><text fill="#000000" font-family="sans-serif" font-size="13" lengthAdjust="spacing" textLength="46" x="2302.1263" y="1182.0669">subject</text></g><!--MD5=[4c204d310d39d382dbf1671928982051]
link Karnofsky to Patient--><g id="link_Karnofsky_Patient"><path codeLine="199" d="M2600.1063,1137.051 C2489.4263,1178.619 2276.3763,1258.637 2142.9963,1308.733 " fill="none" id="Karnofsky-to-Patient" style="stroke:#181818;stroke-width:1.0;"/><polygon fill="#181818" points="2138.2863,1310.502,2148.1179,1311.0833,2142.9672,1308.7445,2145.3059,1303.5938,2138.2863,1310.502" style="stroke:#181818;stroke-width:1.0;"/><text fill="#000000" font-family="sans-serif" font-size="13" lengthAdjust="spacing" textLength="46" x="2500.1263" y="1182.0669">subject</text></g><!--MD5=[a129bd4170041596226a6cf0d125aa2b]
link Lesion to Patient--><g id="link_Lesion_Patient"><path codeLine="200" d="M1102.8463,1137.102 C1119.9963,1145.649 1139.5662,1154.536 1158.1263,1161 C1418.3663,1251.606 1737.8463,1309.286 1906.9963,1335.849 " fill="none" id="Lesion-to-Patient" style="stroke:#181818;stroke-width:1.0;"/><polygon fill="#181818" points="1911.9563,1336.626,1903.6812,1331.2853,1907.0161,1335.8546,1902.4469,1339.1895,1911.9563,1336.626" style="stroke:#181818;stroke-width:1.0;"/><text fill="#000000" font-family="sans-serif" font-size="13" lengthAdjust="spacing" textLength="46" x="1228.1263" y="1182.0669">subject</text></g><!--MD5=[4758a5bab3bd0138d3d1e726f5651478]
link Probe to Lesion--><g id="link_Probe_Lesion"><path codeLine="201" d="M908.8293,906.626 C934.6143,946.66 971.9712,1003.19 1007.1312,1051 C1013.4113,1059.54 1020.4762,1068.562 1027.1563,1076.846 " fill="none" id="Probe-to-Lesion" style="stroke:#181818;stroke-width:1.0;"/><polygon fill="#181818" points="1030.3963,1080.849,1027.8422,1071.3371,1027.2502,1076.9628,1021.6244,1076.3708,1030.3963,1080.849" style="stroke:#181818;stroke-width:1.0;"/><text fill="#000000" font-family="sans-serif" font-size="13" lengthAdjust="spacing" textLength="63" x="1008.1312" y="1047.0669">Extension</text></g><!--MD5=[ca023594d10dc41bff324a4bb97c744d]
link Probe to Patient--><g id="link_Probe_Patient"><path codeLine="202" d="M867.3702,906.74 C859.0722,974.778 856.2393,1093.566 922.1312,1161 C1057.4663,1299.504 1650.3363,1338.718 1906.5163,1349.297 " fill="none" id="Probe-to-Patient" style="stroke:#181818;stroke-width:1.0;"/><polygon fill="#181818" points="1911.7563,1349.511,1902.9235,1345.1542,1906.7603,1349.311,1902.6034,1353.1478,1911.7563,1349.511" style="stroke:#181818;stroke-width:1.0;"/><text fill="#000000" font-family="sans-serif" font-size="13" lengthAdjust="spacing" textLength="46" x="923.1312" y="1113.5669">subject</text></g><!--MD5=[cf321b75b5cc48008c48baf35497939c]
link Laborparameter to Lesion--><g id="link_Laborparameter_Lesion"><path codeLine="203" d="M1023.2562,553.739 C1037.9163,653.107 1066.1063,858.766 1076.1263,1034 C1076.5662,1041.543 1077.5662,1043.583 1076.1263,1051 C1074.5163,1059.328 1071.6863,1067.981 1068.5462,1075.953 " fill="none" id="Laborparameter-to-Lesion" style="stroke:#181818;stroke-width:1.0;"/><polygon fill="#181818" points="1066.5662,1080.82,1073.6681,1073.9962,1068.454,1076.19,1066.2602,1070.9759,1066.5662,1080.82" style="stroke:#181818;stroke-width:1.0;"/><text fill="#000000" font-family="sans-serif" font-size="13" lengthAdjust="spacing" textLength="35" x="1075.1263" y="858.5669">focus</text></g><!--MD5=[12afb150da5f08b09219137381f558f1]
link Laborbefund to Probe--><g id="link_Laborbefund_Probe"><path codeLine="204" d="M964.4593,255.26 C916.9002,266.49 858.1923,289.22 828.1312,335 C733.8213,478.61 806.1773,694.819 849.5803,796.434 " fill="none" id="Laborbefund-to-Probe" style="stroke:#181818;stroke-width:1.0;"/><polygon fill="#181818" points="851.6243,801.185,851.7423,791.3368,849.6484,796.5919,844.3934,794.4981,851.6243,801.185" style="stroke:#181818;stroke-width:1.0;"/><text fill="#000000" font-family="sans-serif" font-size="13" lengthAdjust="spacing" textLength="62" x="829.1312" y="497.5669">specimen</text></g><!--MD5=[5e2013a1587fff277f06608ec9988f61]
link Encounter to EpisodeOfCare--><g id="link_Encounter_EpisodeOfCare"><path codeLine="205" d="M2298.2163,517.003 C2301.2063,580.049 2309.5163,755.487 2312.7863,824.547 " fill="none" id="Encounter-to-EpisodeOfCare" style="stroke:#181818;stroke-width:1.0;"/><polygon fill="#181818" points="2313.0263,829.724,2316.5968,820.5451,2312.7901,824.7296,2308.6057,820.9229,2313.0263,829.724" style="stroke:#181818;stroke-width:1.0;"/><text fill="#000000" font-family="sans-serif" font-size="13" lengthAdjust="spacing" textLength="95" x="2307.1263" y="670.0669">episodeOfCare</text></g><!--MD5=[b7ee4c4c6e6e60497f76ab460c2ae6f8]
link EpisodeOfCare to Tumorerkrankung--><g id="link_EpisodeOfCare_Tumorerkrankung"><path codeLine="206" d="M2304.4863,829.723 C2289.1363,794.772 2255.5463,731.468 2204.1263,704 C2185.4362,694.013 1850.6763,676.683 1711.1263,688 C1667.1463,691.567 1655.0963,690.337 1613.1263,704 C1562.1863,720.588 1509.1663,744.849 1462.2563,769.043 " fill="none" id="EpisodeOfCare-to-Tumorerkrankung" style="stroke:#181818;stroke-width:1.0;"/><polygon fill="#181818" points="1457.7363,771.384,1467.5675,770.7948,1462.1756,769.0836,1463.8868,763.6917,1457.7363,771.384" style="stroke:#181818;stroke-width:1.0;"/><text fill="#000000" font-family="sans-serif" font-size="13" lengthAdjust="spacing" textLength="122" x="1712.1263" y="670.0669">diagnosis.condition</text></g><!--MD5=[4c16aea35b93809407931560c2605717]
link TNM to EpisodeOfCare--><g id="link_TNM_EpisodeOfCare"><path codeLine="207" d="M2135.8363,627.042 C2159.1263,652.119 2182.7663,678.49 2204.1263,704 C2238.2763,744.763 2274.2063,795.036 2295.3663,825.524 " fill="none" id="TNM-to-EpisodeOfCare" style="stroke:#181818;stroke-width:1.0;"/><polygon fill="#181818" points="2298.3863,829.875,2296.5563,820.1976,2295.542,825.7628,2289.9768,824.7485,2298.3863,829.875" style="stroke:#181818;stroke-width:1.0;"/><text fill="#000000" font-family="sans-serif" font-size="13" lengthAdjust="spacing" textLength="63" x="2175.1263" y="670.0669">Extension</text></g><!--MD5=[04f3d6a7a8d2502d911c951a337d1177]
link TNM to Encounter--><g id="link_TNM_Encounter"><path codeLine="208" d="M2142.1563,493 C2176.1862,493 2210.8763,493 2238.7863,493 " fill="none" id="TNM-to-Encounter" style="stroke:#181818;stroke-width:1.0;"/><polygon fill="#181818" points="2243.9162,493,2234.9162,489,2238.9162,493,2234.9162,497,2243.9162,493" style="stroke:#181818;stroke-width:1.0;"/><text fill="#000000" font-family="sans-serif" font-size="13" lengthAdjust="spacing" textLength="65" x="2160.6263" y="486.0669">encounter</text></g><!--MD5=[54c53a0ffc88c96ae3d19bf425e3242e]
link Laborbefund to Encounter--><g id="link_Laborbefund_Encounter"><path codeLine="209" d="M1109.7862,246.27 C1350.4163,252.65 2111.3463,277.25 2204.1263,335 C2251.3663,364.4 2277.5563,427.34 2289.3563,463.98 " fill="none" id="Laborbefund-to-Encounter" style="stroke:#181818;stroke-width:1.0;"/><polygon fill="#181818" points="2290.8563,468.75,2291.973,458.9647,2289.3567,463.9801,2284.3413,461.3639,2290.8563,468.75" style="stroke:#181818;stroke-width:1.0;"/><text fill="#000000" font-family="sans-serif" font-size="13" lengthAdjust="spacing" textLength="63" x="2188.1263" y="323.0669">Extension</text></g><!--MD5=[aa8b0938b676c33dbad386e6fef81980]
link Laborbefund to Tumorerkrankung--><g id="link_Laborbefund_Tumorerkrankung"><path codeLine="210" d="M1084.7663,280.16 C1102.5462,295.43 1121.6663,314.48 1135.1263,335 C1175.1463,395.99 1232.0662,569.409 1271.3463,698.9 " fill="none" id="Laborbefund-to-Tumorerkrankung" style="stroke:#181818;stroke-width:1.0;"/><polygon fill="#181818" points="1272.8463,703.873,1274.0647,694.0998,1271.3964,699.0878,1266.4084,696.4195,1272.8463,703.873" style="stroke:#181818;stroke-width:1.0;"/><text fill="#000000" font-family="sans-serif" font-size="13" lengthAdjust="spacing" textLength="63" x="1250.1263" y="497.5669">Extension</text></g><!--MD5=[9e0d3147eea17cc4f9c8219d0eb36d44]
link Prozedur to Laborbefund--><g id="link_Prozedur_Laborbefund"><path codeLine="211" d="M412.2943,98.12 C569.2842,134.39 830.2562,194.7 959.5822,224.58 " fill="none" id="Prozedur-to-Laborbefund" style="stroke:#181818;stroke-width:1.0;"/><polygon fill="#181818" points="964.5052,225.72,956.6369,219.7963,959.6336,224.5942,954.8357,227.5909,964.5052,225.72" style="stroke:#181818;stroke-width:1.0;"/><text fill="#000000" font-family="sans-serif" font-size="13" lengthAdjust="spacing" textLength="110" x="729.1312" y="171.0669">reasonReference</text></g><!--MD5=[2e96ca3906531d834e625e57efe6f3f8]
@startuml
skinparam groupInheritance 2

together {
    abstract Assessment
    abstract Staging
    class "UICC TNM" as TNM <<Observation>>
    class "UICC TNM Residual Tumor Classification" as ResidualTumorClassification <<Observation>> 
    abstract Grading
    class "Histopathological Tumor Grading WHO" as HistopathologischesGrading <<Observation>>
    class "Tumor Disorder" as Tumorerkrankung <<Condition>>
    class ImagingStudy
}

together {
    abstract Therapie
    class MedikamentöseTherapie
}

together {
    ' class Patient
    class "Vital Signs Base" as Vitalstatus <<Observation>> 
    abstract Körpermaße
    class "Body Height" as Körpergröße <<Observation>> 
    class "Body Weight" as Körpergewicht <<Observation>>
}

together {
    class Laborbefund <<DiagnosticReport>>
    class Laborparameter <<Observation>>
    class Probe <<Specimen>>
    class Lesion <<BodyStructure>>
}

together {
    class EpisodeOfCare
    class Encounter
}

class Patient {
    Name
    name : HumanName
    ..
    GeschlechtAdministrativ
    gender : code
    ..
    Geburtsdatum
    birthDate : date
    ..
    Adresse
    address : Address
    ..
    Ethnizität
    extension : CodeableConcept
    ..
    GeschlechtBiologisch
    extension : CodeableConcept
}

class Vitalstatus {
    Verstorben: boolean
    Todeszeitpunkt: dateTime
    Todesursache: CodeableConcept
}

abstract Körpermaße {}

class Körpergröße {
    Messzeitpunkt : dateTime
    Messwert : Quantity
}

class Körpergewicht {
    Messzeitpunkt : dateTime
    Messwert : Quantity
}

class Tumorerkrankung {
    Diagnose ID
    id : id
    ..
    Klinischer Status
    clinicalStatus : CodeableConcept

    ..
    Diagnosesicherheit
    verificationStatus : CodeableConcept
    ..
    Diagnosecode
    code : CodeableConcept
    ..
    KlinischRelevanterZeitraum
    onset : Period
    ..
    Dokumentationsdatum
    recordedDate : dateTime
}

class RecistObservation <<Observation>> {
    code : CodeableConcept
    valueCodeableConcept : CodeableConcept
    effectiveDateTime : dateTime
}

class Laborbefund <<DiagnosticReport>> {
    ID : Identifier
}

class ImagingStudy{}

class Laborparameter <<Observation>> {
    Code : CodeableConcept
    Laborwert : Quantity
    Messzeitpunkt : dateTime
    Referenzbereich : Quantity
}

class Probe <<Specimen>> {
    ID : Identifier
    Probenart : CodeableConcept
    Entnahmestelle : CodeableConcept
}

abstract Assessment {}
abstract Staging {}
abstract Grading {}

class TNM {
    y : CodeableConcept
    r : CodeableConcept
    a : CodeableConcept
    T : CodeableConcept
    m : CodeableConcept
    N : CodeableConcept
    M : CodeableConcept
    L : CodeableConcept
    V : CodeableConcept
    Pn : CodeableConcept
    S : CodeableConcept
    numberOfNodesAffected : Quantity
    numberOfNodesExamined : Quantity
}

class ResidualTumorClassification {
    R : CodeableConcept
}

class HistopathologischesGrading <<Observation>> {
    Grade : CodeableConcept
}

abstract Therapie {}

class Prozedur <<Procedure>> {
    Code: CodeableConcept
    Durchführungsdatum: dateTime
    Dokumentationsdatum: dateTime
    Körperstelle: CodeableConcept
}


class MedikamentöseTherapie <<MedicationStatement>> {
    Wirkstoff: CodeableConcept
    TherapieBeginn: dateTime
    TherapieEnde: dateTime
    TherapieIntention: CodeableConcept
}

class "ECOG Performance Status" as ECOG <<Observation>> {}
class "Karnofsky Performance Status" as Karnofsky <<Observation>> {}
class Lesion <<BodyStructure>> {}
class EpisodeOfCare {}
class Encounter {}


Vitalstatus - -> Patient : subject
Körpergröße - -* Körpermaße
Körpermaße - -> Patient : subject
Körpergewicht - -* Körpermaße
Tumorerkrankung - -> ImagingStudy : evidence.detail
Tumorerkrankung - -> Patient : subject
Tumorerkrankung - -> Tumorerkrankung : "ocurredFollowing"
Tumorerkrankung - -> Assessment : stage.assessment
RecistObservation - -> Patient : subject
RecistObservation - -> ImagingStudy : partOf
RecistObservation - -> Therapie : partOf
Laborbefund - -> Patient : subject
Laborbefund - -> Laborparameter : result
Laborparameter - -> Probe : specimen
Staging - -* Assessment
Grading - -* Assessment
TNM - -* Staging
TNM - -> ResidualTumorClassification : hasMember
HistopathologischesGrading - -* Grading
HistopathologischesGrading - -> Probe : specimen
Therapie - -> Patient : subject
Prozedur - -* Therapie
MedikamentöseTherapie - -* Therapie
ECOG - -> Patient : subject
Karnofsky - -> Patient : subject
Lesion - -> Patient : subject
Probe - -> Lesion : Extension
Probe - -> Patient : subject
Laborparameter - -> Lesion : focus
Laborbefund - -> Probe : specimen
Encounter - -> EpisodeOfCare : episodeOfCare
EpisodeOfCare - -> Tumorerkrankung : diagnosis.condition
TNM - -> EpisodeOfCare : Extension
TNM - -> Encounter : encounter
Laborbefund - -> Encounter : Extension
Laborbefund - -> Tumorerkrankung : Extension
Prozedur - -> Laborbefund : reasonReference
@enduml

@startuml
skinparam groupInheritance 2

together {
    abstract Assessment
    abstract Staging
    class "UICC TNM" as TNM <<Observation>>
    class "UICC TNM Residual Tumor Classification" as ResidualTumorClassification <<Observation>> 
    abstract Grading
    class "Histopathological Tumor Grading WHO" as HistopathologischesGrading <<Observation>>
    class "Tumor Disorder" as Tumorerkrankung <<Condition>>
    class ImagingStudy
}

together {
    abstract Therapie
    class MedikamentöseTherapie
}

together {
    class "Vital Signs Base" as Vitalstatus <<Observation>> 
    abstract Körpermaße
    class "Body Height" as Körpergröße <<Observation>> 
    class "Body Weight" as Körpergewicht <<Observation>>
}

together {
    class Laborbefund <<DiagnosticReport>>
    class Laborparameter <<Observation>>
    class Probe <<Specimen>>
    class Lesion <<BodyStructure>>
}

together {
    class EpisodeOfCare
    class Encounter
}

class Patient {
    Name
    name : HumanName
    ..
    GeschlechtAdministrativ
    gender : code
    ..
    Geburtsdatum
    birthDate : date
    ..
    Adresse
    address : Address
    ..
    Ethnizität
    extension : CodeableConcept
    ..
    GeschlechtBiologisch
    extension : CodeableConcept
}

class Vitalstatus {
    Verstorben: boolean
    Todeszeitpunkt: dateTime
    Todesursache: CodeableConcept
}

abstract Körpermaße {}

class Körpergröße {
    Messzeitpunkt : dateTime
    Messwert : Quantity
}

class Körpergewicht {
    Messzeitpunkt : dateTime
    Messwert : Quantity
}

class Tumorerkrankung {
    Diagnose ID
    id : id
    ..
    Klinischer Status
    clinicalStatus : CodeableConcept

    ..
    Diagnosesicherheit
    verificationStatus : CodeableConcept
    ..
    Diagnosecode
    code : CodeableConcept
    ..
    KlinischRelevanterZeitraum
    onset : Period
    ..
    Dokumentationsdatum
    recordedDate : dateTime
}

class RecistObservation <<Observation>> {
    code : CodeableConcept
    valueCodeableConcept : CodeableConcept
    effectiveDateTime : dateTime
}

class Laborbefund <<DiagnosticReport>> {
    ID : Identifier
}

class ImagingStudy{}

class Laborparameter <<Observation>> {
    Code : CodeableConcept
    Laborwert : Quantity
    Messzeitpunkt : dateTime
    Referenzbereich : Quantity
}

class Probe <<Specimen>> {
    ID : Identifier
    Probenart : CodeableConcept
    Entnahmestelle : CodeableConcept
}

abstract Assessment {}
abstract Staging {}
abstract Grading {}

class TNM {
    y : CodeableConcept
    r : CodeableConcept
    a : CodeableConcept
    T : CodeableConcept
    m : CodeableConcept
    N : CodeableConcept
    M : CodeableConcept
    L : CodeableConcept
    V : CodeableConcept
    Pn : CodeableConcept
    S : CodeableConcept
    numberOfNodesAffected : Quantity
    numberOfNodesExamined : Quantity
}

class ResidualTumorClassification {
    R : CodeableConcept
}

class HistopathologischesGrading <<Observation>> {
    Grade : CodeableConcept
}

abstract Therapie {}

class Prozedur <<Procedure>> {
    Code: CodeableConcept
    Durchführungsdatum: dateTime
    Dokumentationsdatum: dateTime
    Körperstelle: CodeableConcept
}


class MedikamentöseTherapie <<MedicationStatement>> {
    Wirkstoff: CodeableConcept
    TherapieBeginn: dateTime
    TherapieEnde: dateTime
    TherapieIntention: CodeableConcept
}

class "ECOG Performance Status" as ECOG <<Observation>> {}
class "Karnofsky Performance Status" as Karnofsky <<Observation>> {}
class Lesion <<BodyStructure>> {}
class EpisodeOfCare {}
class Encounter {}


Vitalstatus - -> Patient : subject
Körpergröße - -* Körpermaße
Körpermaße - -> Patient : subject
Körpergewicht - -* Körpermaße
Tumorerkrankung - -> ImagingStudy : evidence.detail
Tumorerkrankung - -> Patient : subject
Tumorerkrankung - -> Tumorerkrankung : "ocurredFollowing"
Tumorerkrankung - -> Assessment : stage.assessment
RecistObservation - -> Patient : subject
RecistObservation - -> ImagingStudy : partOf
RecistObservation - -> Therapie : partOf
Laborbefund - -> Patient : subject
Laborbefund - -> Laborparameter : result
Laborparameter - -> Probe : specimen
Staging - -* Assessment
Grading - -* Assessment
TNM - -* Staging
TNM - -> ResidualTumorClassification : hasMember
HistopathologischesGrading - -* Grading
HistopathologischesGrading - -> Probe : specimen
Therapie - -> Patient : subject
Prozedur - -* Therapie
MedikamentöseTherapie - -* Therapie
ECOG - -> Patient : subject
Karnofsky - -> Patient : subject
Lesion - -> Patient : subject
Probe - -> Lesion : Extension
Probe - -> Patient : subject
Laborparameter - -> Lesion : focus
Laborbefund - -> Probe : specimen
Encounter - -> EpisodeOfCare : episodeOfCare
EpisodeOfCare - -> Tumorerkrankung : diagnosis.condition
TNM - -> EpisodeOfCare : Extension
TNM - -> Encounter : encounter
Laborbefund - -> Encounter : Extension
Laborbefund - -> Tumorerkrankung : Extension
Prozedur - -> Laborbefund : reasonReference
@enduml

PlantUML version 1.2022.7beta2(Unknown compile time)
(GPL source distribution)
Java Runtime: Java(TM) SE Runtime Environment
JVM: Java HotSpot(TM) 64-Bit Server VM
Default Encoding: UTF-8
Language: en
Country: US
--></g></svg>