<?xml version="1.0" encoding="UTF-8" standalone="no"?><svg xmlns="http://www.w3.org/2000/svg" xmlns:xlink="http://www.w3.org/1999/xlink" contentStyleType="text/css" height="1669px" preserveAspectRatio="none" style="width:1455px;height:1669px;background:#FFFFFF;" version="1.1" viewBox="0 0 1455 1669" width="1455px" zoomAndPan="magnify"><defs/><g><!--MD5=[9dd4eaa2771a2ff8dbee15cc1e732cab]
class Patient--><g id="elem_Patient"><rect codeLine="3" fill="#F1F1F1" height="283.8281" id="Patient" rx="2.5" ry="2.5" style="stroke:#181818;stroke-width:0.5;" width="226" x="475.5" y="7"/><ellipse cx="557.75" cy="27.1328" fill="#ADD1B2" rx="11" ry="11" style="stroke:#181818;stroke-width:1.0;"/><path d="M560.0938,22.8047 C559.1563,22.3672 558.5625,22.2266 557.6875,22.2266 C555.0625,22.2266 553.0625,24.3047 553.0625,27.0234 L553.0625,28.1484 C553.0625,30.7266 555.1719,32.6172 558.0625,32.6172 C559.2813,32.6172 560.4375,32.3203 561.1875,31.7734 C561.7656,31.3672 562.0938,30.9141 562.0938,30.5234 C562.0938,30.0703 561.7031,29.6797 561.2344,29.6797 C561.0156,29.6797 560.8125,29.7578 560.625,29.9453 C560.1719,30.4297 560.1719,30.4297 559.9844,30.5234 C559.5625,30.7891 558.875,30.9141 558.1094,30.9141 C556.0625,30.9141 554.7656,29.8203 554.7656,28.1172 L554.7656,27.0234 C554.7656,25.2422 556.0156,23.9297 557.75,23.9297 C558.3281,23.9297 558.9375,24.0859 559.4063,24.3359 C559.8906,24.6172 560.0625,24.8359 560.1563,25.2422 C560.2188,25.6484 560.25,25.7734 560.3906,25.8984 C560.5313,26.0391 560.7656,26.1484 560.9844,26.1484 C561.25,26.1484 561.5156,26.0078 561.6875,25.7891 C561.7969,25.6328 561.8281,25.4453 561.8281,25.0234 L561.8281,23.6016 C561.8281,23.1641 561.8125,23.0391 561.7188,22.8828 C561.5625,22.6172 561.2813,22.4766 560.9844,22.4766 C560.6875,22.4766 560.4844,22.5703 560.2656,22.8828 L560.0938,22.8047 Z " fill="#000000"/><text fill="#000000" font-family="sans-serif" font-size="12" font-style="italic" lengthAdjust="spacing" textLength="56" x="576.75" y="23.1387">«Patient»</text><text fill="#000000" font-family="sans-serif" font-size="14" lengthAdjust="spacing" textLength="53" x="578.25" y="38.9639">Patient</text><line style="stroke:#181818;stroke-width:0.5;" x1="476.5" x2="700.5" y1="47.2656" y2="47.2656"/><text fill="#000000" font-family="sans-serif" font-size="14" lengthAdjust="spacing" textLength="41" x="481.5" y="64.2607">Name</text><text fill="#000000" font-family="sans-serif" font-size="14" lengthAdjust="spacing" textLength="143" x="481.5" y="80.5576">name : HumanName</text><line style="stroke:#181818;stroke-width:1.0;stroke-dasharray:1.0,2.0;" x1="476.5" x2="700.5" y1="87.8594" y2="87.8594"/><text fill="#000000" font-family="sans-serif" font-size="14" lengthAdjust="spacing" textLength="178" x="481.5" y="104.8545">GeschlechtAdministrativ</text><text fill="#000000" font-family="sans-serif" font-size="14" lengthAdjust="spacing" textLength="99" x="481.5" y="121.1514">gender : code</text><line style="stroke:#181818;stroke-width:1.0;stroke-dasharray:1.0,2.0;" x1="476.5" x2="700.5" y1="128.4531" y2="128.4531"/><text fill="#000000" font-family="sans-serif" font-size="14" lengthAdjust="spacing" textLength="104" x="481.5" y="145.4482">Geburtsdatum</text><text fill="#000000" font-family="sans-serif" font-size="14" lengthAdjust="spacing" textLength="117" x="481.5" y="161.7451">birthDate : date</text><line style="stroke:#181818;stroke-width:1.0;stroke-dasharray:1.0,2.0;" x1="476.5" x2="700.5" y1="169.0469" y2="169.0469"/><text fill="#000000" font-family="sans-serif" font-size="14" lengthAdjust="spacing" textLength="57" x="481.5" y="186.042">Adresse</text><text fill="#000000" font-family="sans-serif" font-size="14" lengthAdjust="spacing" textLength="125" x="481.5" y="202.3389">address : Address</text><line style="stroke:#181818;stroke-width:1.0;stroke-dasharray:1.0,2.0;" x1="476.5" x2="700.5" y1="209.6406" y2="209.6406"/><text fill="#000000" font-family="sans-serif" font-size="14" lengthAdjust="spacing" textLength="72" x="481.5" y="226.6357">Ethnizität</text><text fill="#000000" font-family="sans-serif" font-size="14" lengthAdjust="spacing" textLength="214" x="481.5" y="242.9326">extension : CodeableConcept</text><line style="stroke:#181818;stroke-width:1.0;stroke-dasharray:1.0,2.0;" x1="476.5" x2="700.5" y1="250.2344" y2="250.2344"/><text fill="#000000" font-family="sans-serif" font-size="14" lengthAdjust="spacing" textLength="154" x="481.5" y="267.2295">GeschlechtBiologisch</text><text fill="#000000" font-family="sans-serif" font-size="14" lengthAdjust="spacing" textLength="214" x="481.5" y="283.5264">extension : CodeableConcept</text></g><!--MD5=[01e663d8f9ca83c938e6ef4d7dcd96a1]
class Vitalstatus--><g id="elem_Vitalstatus"><rect codeLine="23" fill="#F1F1F1" height="105.1563" id="Vitalstatus" rx="2.5" ry="2.5" style="stroke:#181818;stroke-width:0.5;" width="249" x="7" y="457.5"/><ellipse cx="86.25" cy="477.6328" fill="#ADD1B2" rx="11" ry="11" style="stroke:#181818;stroke-width:1.0;"/><path d="M88.5938,473.3047 C87.6563,472.8672 87.0625,472.7266 86.1875,472.7266 C83.5625,472.7266 81.5625,474.8047 81.5625,477.5234 L81.5625,478.6484 C81.5625,481.2266 83.6719,483.1172 86.5625,483.1172 C87.7813,483.1172 88.9375,482.8203 89.6875,482.2734 C90.2656,481.8672 90.5938,481.4141 90.5938,481.0234 C90.5938,480.5703 90.2031,480.1797 89.7344,480.1797 C89.5156,480.1797 89.3125,480.2578 89.125,480.4453 C88.6719,480.9297 88.6719,480.9297 88.4844,481.0234 C88.0625,481.2891 87.375,481.4141 86.6094,481.4141 C84.5625,481.4141 83.2656,480.3203 83.2656,478.6172 L83.2656,477.5234 C83.2656,475.7422 84.5156,474.4297 86.25,474.4297 C86.8281,474.4297 87.4375,474.5859 87.9063,474.8359 C88.3906,475.1172 88.5625,475.3359 88.6563,475.7422 C88.7188,476.1484 88.75,476.2734 88.8906,476.3984 C89.0313,476.5391 89.2656,476.6484 89.4844,476.6484 C89.75,476.6484 90.0156,476.5078 90.1875,476.2891 C90.2969,476.1328 90.3281,475.9453 90.3281,475.5234 L90.3281,474.1016 C90.3281,473.6641 90.3125,473.5391 90.2188,473.3828 C90.0625,473.1172 89.7813,472.9766 89.4844,472.9766 C89.1875,472.9766 88.9844,473.0703 88.7656,473.3828 L88.5938,473.3047 Z " fill="#000000"/><text fill="#000000" font-family="sans-serif" font-size="12" font-style="italic" lengthAdjust="spacing" textLength="86" x="104.75" y="473.6387">«Observation»</text><text fill="#000000" font-family="sans-serif" font-size="14" lengthAdjust="spacing" textLength="77" x="109.25" y="489.4639">Vitalstatus</text><line style="stroke:#181818;stroke-width:0.5;" x1="8" x2="255" y1="497.7656" y2="497.7656"/><text fill="#000000" font-family="sans-serif" font-size="14" lengthAdjust="spacing" textLength="149" x="13" y="514.7607">Verstorben: boolean</text><text fill="#000000" font-family="sans-serif" font-size="14" lengthAdjust="spacing" textLength="192" x="13" y="531.0576">Todeszeitpunkt: dateTime</text><text fill="#000000" font-family="sans-serif" font-size="14" lengthAdjust="spacing" textLength="237" x="13" y="547.3545">Todesursache: CodeableConcept</text><line style="stroke:#181818;stroke-width:0.5;" x1="8" x2="255" y1="554.6563" y2="554.6563"/></g><!--MD5=[1bf4b45528ec36675780c817bfa04d69]
class Körpermaße--><g id="elem_Körpermaße"><rect codeLine="31" fill="#F1F1F1" height="48" id="Körpermaße" rx="2.5" ry="2.5" style="stroke:#181818;stroke-width:0.5;" width="121" x="291" y="486"/><ellipse cx="306" cy="502" fill="#A9DCDF" rx="11" ry="11" style="stroke:#181818;stroke-width:1.0;"/><path d="M308.0781,503.8125 L308.4688,504.7969 L308.0781,504.7969 C307.625,504.7969 307.5156,504.8125 307.3594,504.9219 C307.1094,505.0781 306.9531,505.3594 306.9531,505.6563 C306.9531,505.9219 307.0938,506.1719 307.3125,506.3281 C307.4531,506.4531 307.6563,506.5 308.0781,506.5 L310.4375,506.5 C310.7969,506.5 311.0156,506.4688 311.1563,506.375 C311.4063,506.2344 311.5625,505.9375 311.5625,505.6563 C311.5625,505.375 311.4219,505.125 311.2031,504.9688 C311.0313,504.8281 310.875,504.7969 310.4063,504.7969 L307.0156,496.5938 L303.3438,496.5938 C302.8906,496.5938 302.7656,496.6094 302.6094,496.7031 C302.3594,496.875 302.2031,497.1563 302.2031,497.4375 C302.2031,497.7188 302.3438,497.9688 302.5625,498.1406 C302.7344,498.25 302.9063,498.2813 303.3438,498.2813 L304.4219,498.2813 L301.7813,504.7969 C301.3594,504.7969 301.2031,504.8125 301.0469,504.9219 C300.7969,505.0781 300.6406,505.3594 300.6406,505.6563 C300.6406,506.2188 301.0156,506.5 301.7656,506.5 L304.0313,506.5 C304.3906,506.5 304.6094,506.4688 304.7344,506.375 C305,506.2344 305.1406,505.9375 305.1406,505.6563 C305.1406,505.375 305.0156,505.125 304.7969,504.9531 C304.625,504.8281 304.4844,504.7969 304.0313,504.7969 L303.6406,504.7969 L304.0313,503.8125 L308.0781,503.8125 Z M307.375,502.1094 L304.7031,502.1094 L306.0469,498.8438 L307.375,502.1094 Z " fill="#000000"/><text fill="#000000" font-family="sans-serif" font-size="14" font-style="italic" lengthAdjust="spacing" textLength="89" x="320" y="506.8467">Körpermaße</text><line style="stroke:#181818;stroke-width:0.5;" x1="292" x2="411" y1="518" y2="518"/><line style="stroke:#181818;stroke-width:0.5;" x1="292" x2="411" y1="526" y2="526"/></g><!--MD5=[0b1f4f2301101f37c63a7c8ed0ac373e]
class Körpergröße--><g id="elem_Körpergröße"><rect codeLine="37" fill="#F1F1F1" height="88.8594" id="Körpergröße" rx="2.5" ry="2.5" style="stroke:#181818;stroke-width:0.5;" width="200" x="38.5" y="801"/><ellipse cx="87.75" cy="821.1328" fill="#ADD1B2" rx="11" ry="11" style="stroke:#181818;stroke-width:1.0;"/><path d="M90.0938,816.8047 C89.1563,816.3672 88.5625,816.2266 87.6875,816.2266 C85.0625,816.2266 83.0625,818.3047 83.0625,821.0234 L83.0625,822.1484 C83.0625,824.7266 85.1719,826.6172 88.0625,826.6172 C89.2813,826.6172 90.4375,826.3203 91.1875,825.7734 C91.7656,825.3672 92.0938,824.9141 92.0938,824.5234 C92.0938,824.0703 91.7031,823.6797 91.2344,823.6797 C91.0156,823.6797 90.8125,823.7578 90.625,823.9453 C90.1719,824.4297 90.1719,824.4297 89.9844,824.5234 C89.5625,824.7891 88.875,824.9141 88.1094,824.9141 C86.0625,824.9141 84.7656,823.8203 84.7656,822.1172 L84.7656,821.0234 C84.7656,819.2422 86.0156,817.9297 87.75,817.9297 C88.3281,817.9297 88.9375,818.0859 89.4063,818.3359 C89.8906,818.6172 90.0625,818.8359 90.1563,819.2422 C90.2188,819.6484 90.25,819.7734 90.3906,819.8984 C90.5313,820.0391 90.7656,820.1484 90.9844,820.1484 C91.25,820.1484 91.5156,820.0078 91.6875,819.7891 C91.7969,819.6328 91.8281,819.4453 91.8281,819.0234 L91.8281,817.6016 C91.8281,817.1641 91.8125,817.0391 91.7188,816.8828 C91.5625,816.6172 91.2813,816.4766 90.9844,816.4766 C90.6875,816.4766 90.4844,816.5703 90.2656,816.8828 L90.0938,816.8047 Z " fill="#000000"/><text fill="#000000" font-family="sans-serif" font-size="12" font-style="italic" lengthAdjust="spacing" textLength="86" x="111.75" y="817.1387">«Observation»</text><text fill="#000000" font-family="sans-serif" font-size="14" lengthAdjust="spacing" textLength="93" x="108.25" y="832.9639">Körpergröße</text><line style="stroke:#181818;stroke-width:0.5;" x1="39.5" x2="237.5" y1="841.2656" y2="841.2656"/><text fill="#000000" font-family="sans-serif" font-size="14" lengthAdjust="spacing" textLength="188" x="44.5" y="858.2607">Messzeitpunkt : dateTime</text><text fill="#000000" font-family="sans-serif" font-size="14" lengthAdjust="spacing" textLength="143" x="44.5" y="874.5576">Messwert : Quantity</text><line style="stroke:#181818;stroke-width:0.5;" x1="39.5" x2="237.5" y1="881.8594" y2="881.8594"/></g><!--MD5=[51d5f656a11cfe87112ab5039c5ee39b]
class Körpergewicht--><g id="elem_Körpergewicht"><rect codeLine="44" fill="#F1F1F1" height="88.8594" id="Körpergewicht" rx="2.5" ry="2.5" style="stroke:#181818;stroke-width:0.5;" width="200" x="273.5" y="801"/><ellipse cx="315.95" cy="821.1328" fill="#ADD1B2" rx="11" ry="11" style="stroke:#181818;stroke-width:1.0;"/><path d="M318.2938,816.8047 C317.3563,816.3672 316.7625,816.2266 315.8875,816.2266 C313.2625,816.2266 311.2625,818.3047 311.2625,821.0234 L311.2625,822.1484 C311.2625,824.7266 313.3719,826.6172 316.2625,826.6172 C317.4813,826.6172 318.6375,826.3203 319.3875,825.7734 C319.9656,825.3672 320.2938,824.9141 320.2938,824.5234 C320.2938,824.0703 319.9031,823.6797 319.4344,823.6797 C319.2156,823.6797 319.0125,823.7578 318.825,823.9453 C318.3719,824.4297 318.3719,824.4297 318.1844,824.5234 C317.7625,824.7891 317.075,824.9141 316.3094,824.9141 C314.2625,824.9141 312.9656,823.8203 312.9656,822.1172 L312.9656,821.0234 C312.9656,819.2422 314.2156,817.9297 315.95,817.9297 C316.5281,817.9297 317.1375,818.0859 317.6063,818.3359 C318.0906,818.6172 318.2625,818.8359 318.3563,819.2422 C318.4188,819.6484 318.45,819.7734 318.5906,819.8984 C318.7313,820.0391 318.9656,820.1484 319.1844,820.1484 C319.45,820.1484 319.7156,820.0078 319.8875,819.7891 C319.9969,819.6328 320.0281,819.4453 320.0281,819.0234 L320.0281,817.6016 C320.0281,817.1641 320.0125,817.0391 319.9188,816.8828 C319.7625,816.6172 319.4813,816.4766 319.1844,816.4766 C318.8875,816.4766 318.6844,816.5703 318.4656,816.8828 L318.2938,816.8047 Z " fill="#000000"/><text fill="#000000" font-family="sans-serif" font-size="12" font-style="italic" lengthAdjust="spacing" textLength="86" x="346.55" y="817.1387">«Observation»</text><text fill="#000000" font-family="sans-serif" font-size="14" lengthAdjust="spacing" textLength="107" x="336.05" y="832.9639">Körpergewicht</text><line style="stroke:#181818;stroke-width:0.5;" x1="274.5" x2="472.5" y1="841.2656" y2="841.2656"/><text fill="#000000" font-family="sans-serif" font-size="14" lengthAdjust="spacing" textLength="188" x="279.5" y="858.2607">Messzeitpunkt : dateTime</text><text fill="#000000" font-family="sans-serif" font-size="14" lengthAdjust="spacing" textLength="143" x="279.5" y="874.5576">Messwert : Quantity</text><line style="stroke:#181818;stroke-width:0.5;" x1="274.5" x2="472.5" y1="881.8594" y2="881.8594"/></g><!--MD5=[450dfd0826dd03772001acab9490f358]
class Diagnose--><g id="elem_Diagnose"><rect codeLine="51" fill="#F1F1F1" height="283.8281" id="Diagnose" rx="2.5" ry="2.5" style="stroke:#181818;stroke-width:0.5;" width="283" x="447" y="368"/><ellipse cx="550.75" cy="388.1328" fill="#ADD1B2" rx="11" ry="11" style="stroke:#181818;stroke-width:1.0;"/><path d="M553.0938,383.8047 C552.1563,383.3672 551.5625,383.2266 550.6875,383.2266 C548.0625,383.2266 546.0625,385.3047 546.0625,388.0234 L546.0625,389.1484 C546.0625,391.7266 548.1719,393.6172 551.0625,393.6172 C552.2813,393.6172 553.4375,393.3203 554.1875,392.7734 C554.7656,392.3672 555.0938,391.9141 555.0938,391.5234 C555.0938,391.0703 554.7031,390.6797 554.2344,390.6797 C554.0156,390.6797 553.8125,390.7578 553.625,390.9453 C553.1719,391.4297 553.1719,391.4297 552.9844,391.5234 C552.5625,391.7891 551.875,391.9141 551.1094,391.9141 C549.0625,391.9141 547.7656,390.8203 547.7656,389.1172 L547.7656,388.0234 C547.7656,386.2422 549.0156,384.9297 550.75,384.9297 C551.3281,384.9297 551.9375,385.0859 552.4063,385.3359 C552.8906,385.6172 553.0625,385.8359 553.1563,386.2422 C553.2188,386.6484 553.25,386.7734 553.3906,386.8984 C553.5313,387.0391 553.7656,387.1484 553.9844,387.1484 C554.25,387.1484 554.5156,387.0078 554.6875,386.7891 C554.7969,386.6328 554.8281,386.4453 554.8281,386.0234 L554.8281,384.6016 C554.8281,384.1641 554.8125,384.0391 554.7188,383.8828 C554.5625,383.6172 554.2813,383.4766 553.9844,383.4766 C553.6875,383.4766 553.4844,383.5703 553.2656,383.8828 L553.0938,383.8047 Z " fill="#000000"/><text fill="#000000" font-family="sans-serif" font-size="12" font-style="italic" lengthAdjust="spacing" textLength="71" x="569.25" y="384.1387">«Condition»</text><text fill="#000000" font-family="sans-serif" font-size="14" lengthAdjust="spacing" textLength="66" x="571.75" y="399.9639">Diagnose</text><line style="stroke:#181818;stroke-width:0.5;" x1="448" x2="729" y1="408.2656" y2="408.2656"/><text fill="#000000" font-family="sans-serif" font-size="14" lengthAdjust="spacing" textLength="85" x="453" y="425.2607">Diagnose ID</text><text fill="#000000" font-family="sans-serif" font-size="14" lengthAdjust="spacing" textLength="39" x="453" y="441.5576">id : id</text><line style="stroke:#181818;stroke-width:1.0;stroke-dasharray:1.0,2.0;" x1="448" x2="729" y1="448.8594" y2="448.8594"/><text fill="#000000" font-family="sans-serif" font-size="14" lengthAdjust="spacing" textLength="120" x="453" y="465.8545">Klinischer Status</text><text fill="#000000" font-family="sans-serif" font-size="14" lengthAdjust="spacing" textLength="238" x="453" y="482.1514">clinicalStatus : CodeableConcept</text><line style="stroke:#181818;stroke-width:1.0;stroke-dasharray:1.0,2.0;" x1="448" x2="729" y1="489.4531" y2="489.4531"/><text fill="#000000" font-family="sans-serif" font-size="14" lengthAdjust="spacing" textLength="138" x="453" y="506.4482">Diagnosesicherheit</text><text fill="#000000" font-family="sans-serif" font-size="14" lengthAdjust="spacing" textLength="271" x="453" y="522.7451">verificationStatus : CodeableConcept</text><line style="stroke:#181818;stroke-width:1.0;stroke-dasharray:1.0,2.0;" x1="448" x2="729" y1="530.0469" y2="530.0469"/><text fill="#000000" font-family="sans-serif" font-size="14" lengthAdjust="spacing" textLength="101" x="453" y="547.042">Diagnosecode</text><text fill="#000000" font-family="sans-serif" font-size="14" lengthAdjust="spacing" textLength="178" x="453" y="563.3389">code : CodeableConcept</text><line style="stroke:#181818;stroke-width:1.0;stroke-dasharray:1.0,2.0;" x1="448" x2="729" y1="570.6406" y2="570.6406"/><text fill="#000000" font-family="sans-serif" font-size="14" lengthAdjust="spacing" textLength="200" x="453" y="587.6357">KlinischRelevanterZeitraum</text><text fill="#000000" font-family="sans-serif" font-size="14" lengthAdjust="spacing" textLength="100" x="453" y="603.9326">onset : Period</text><line style="stroke:#181818;stroke-width:1.0;stroke-dasharray:1.0,2.0;" x1="448" x2="729" y1="611.2344" y2="611.2344"/><text fill="#000000" font-family="sans-serif" font-size="14" lengthAdjust="spacing" textLength="166" x="453" y="628.2295">Dokumentationsdatum</text><text fill="#000000" font-family="sans-serif" font-size="14" lengthAdjust="spacing" textLength="182" x="453" y="644.5264">recordedDate : dateTime</text></g><!--MD5=[074a3211768c979108f6fc80d6a51558]
class RecistObservation--><g id="elem_RecistObservation"><rect codeLine="74" fill="#F1F1F1" height="105.1563" id="RecistObservation" rx="2.5" ry="2.5" style="stroke:#181818;stroke-width:0.5;" width="322" x="736.5" y="96.5"/><ellipse cx="826.75" cy="116.6328" fill="#ADD1B2" rx="11" ry="11" style="stroke:#181818;stroke-width:1.0;"/><path d="M829.0938,112.3047 C828.1563,111.8672 827.5625,111.7266 826.6875,111.7266 C824.0625,111.7266 822.0625,113.8047 822.0625,116.5234 L822.0625,117.6484 C822.0625,120.2266 824.1719,122.1172 827.0625,122.1172 C828.2813,122.1172 829.4375,121.8203 830.1875,121.2734 C830.7656,120.8672 831.0938,120.4141 831.0938,120.0234 C831.0938,119.5703 830.7031,119.1797 830.2344,119.1797 C830.0156,119.1797 829.8125,119.2578 829.625,119.4453 C829.1719,119.9297 829.1719,119.9297 828.9844,120.0234 C828.5625,120.2891 827.875,120.4141 827.1094,120.4141 C825.0625,120.4141 823.7656,119.3203 823.7656,117.6172 L823.7656,116.5234 C823.7656,114.7422 825.0156,113.4297 826.75,113.4297 C827.3281,113.4297 827.9375,113.5859 828.4063,113.8359 C828.8906,114.1172 829.0625,114.3359 829.1563,114.7422 C829.2188,115.1484 829.25,115.2734 829.3906,115.3984 C829.5313,115.5391 829.7656,115.6484 829.9844,115.6484 C830.25,115.6484 830.5156,115.5078 830.6875,115.2891 C830.7969,115.1328 830.8281,114.9453 830.8281,114.5234 L830.8281,113.1016 C830.8281,112.6641 830.8125,112.5391 830.7188,112.3828 C830.5625,112.1172 830.2813,111.9766 829.9844,111.9766 C829.6875,111.9766 829.4844,112.0703 829.2656,112.3828 L829.0938,112.3047 Z " fill="#000000"/><text fill="#000000" font-family="sans-serif" font-size="12" font-style="italic" lengthAdjust="spacing" textLength="86" x="870.75" y="112.6387">«Observation»</text><text fill="#000000" font-family="sans-serif" font-size="14" lengthAdjust="spacing" textLength="133" x="847.25" y="128.4639">RecistObservation</text><line style="stroke:#181818;stroke-width:0.5;" x1="737.5" x2="1057.5" y1="136.7656" y2="136.7656"/><text fill="#000000" font-family="sans-serif" font-size="14" lengthAdjust="spacing" textLength="178" x="742.5" y="153.7607">code : CodeableConcept</text><text fill="#000000" font-family="sans-serif" font-size="14" lengthAdjust="spacing" textLength="310" x="742.5" y="170.0576">valueCodeableConcept : CodeableConcept</text><text fill="#000000" font-family="sans-serif" font-size="14" lengthAdjust="spacing" textLength="219" x="742.5" y="186.3545">effectiveDateTime : dateTime</text><line style="stroke:#181818;stroke-width:0.5;" x1="737.5" x2="1057.5" y1="193.6563" y2="193.6563"/></g><!--MD5=[f2efd3b285b01053d1c0db079a7ec032]
class Laborbefund--><g id="elem_Laborbefund"><rect codeLine="82" fill="#F1F1F1" height="72.5625" id="Laborbefund" rx="2.5" ry="2.5" style="stroke:#181818;stroke-width:0.5;" width="145" x="758" y="682"/><ellipse cx="773" cy="702.1328" fill="#ADD1B2" rx="11" ry="11" style="stroke:#181818;stroke-width:1.0;"/><path d="M775.3438,697.8047 C774.4063,697.3672 773.8125,697.2266 772.9375,697.2266 C770.3125,697.2266 768.3125,699.3047 768.3125,702.0234 L768.3125,703.1484 C768.3125,705.7266 770.4219,707.6172 773.3125,707.6172 C774.5313,707.6172 775.6875,707.3203 776.4375,706.7734 C777.0156,706.3672 777.3438,705.9141 777.3438,705.5234 C777.3438,705.0703 776.9531,704.6797 776.4844,704.6797 C776.2656,704.6797 776.0625,704.7578 775.875,704.9453 C775.4219,705.4297 775.4219,705.4297 775.2344,705.5234 C774.8125,705.7891 774.125,705.9141 773.3594,705.9141 C771.3125,705.9141 770.0156,704.8203 770.0156,703.1172 L770.0156,702.0234 C770.0156,700.2422 771.2656,698.9297 773,698.9297 C773.5781,698.9297 774.1875,699.0859 774.6563,699.3359 C775.1406,699.6172 775.3125,699.8359 775.4063,700.2422 C775.4688,700.6484 775.5,700.7734 775.6406,700.8984 C775.7813,701.0391 776.0156,701.1484 776.2344,701.1484 C776.5,701.1484 776.7656,701.0078 776.9375,700.7891 C777.0469,700.6328 777.0781,700.4453 777.0781,700.0234 L777.0781,698.6016 C777.0781,698.1641 777.0625,698.0391 776.9688,697.8828 C776.8125,697.6172 776.5313,697.4766 776.2344,697.4766 C775.9375,697.4766 775.7344,697.5703 775.5156,697.8828 L775.3438,697.8047 Z " fill="#000000"/><text fill="#000000" font-family="sans-serif" font-size="12" font-style="italic" lengthAdjust="spacing" textLength="117" x="785" y="698.1387">«DiagnosticReport»</text><text fill="#000000" font-family="sans-serif" font-size="14" lengthAdjust="spacing" textLength="92" x="797.5" y="713.9639">Laborbefund</text><line style="stroke:#181818;stroke-width:0.5;" x1="759" x2="902" y1="722.2656" y2="722.2656"/><text fill="#000000" font-family="sans-serif" font-size="14" lengthAdjust="spacing" textLength="95" x="764" y="739.2607">ID : Identifier</text><line style="stroke:#181818;stroke-width:0.5;" x1="759" x2="902" y1="746.5625" y2="746.5625"/></g><!--MD5=[ebd15861f3c033e5d7a77675d8f72c41]
class Laborparameter--><g id="elem_Laborparameter"><rect codeLine="88" fill="#F1F1F1" height="121.4531" id="Laborparameter" rx="2.5" ry="2.5" style="stroke:#181818;stroke-width:0.5;" width="208" x="698.5" y="936"/><ellipse cx="739.6" cy="956.1328" fill="#ADD1B2" rx="11" ry="11" style="stroke:#181818;stroke-width:1.0;"/><path d="M741.9438,951.8047 C741.0063,951.3672 740.4125,951.2266 739.5375,951.2266 C736.9125,951.2266 734.9125,953.3047 734.9125,956.0234 L734.9125,957.1484 C734.9125,959.7266 737.0219,961.6172 739.9125,961.6172 C741.1313,961.6172 742.2875,961.3203 743.0375,960.7734 C743.6156,960.3672 743.9438,959.9141 743.9438,959.5234 C743.9438,959.0703 743.5531,958.6797 743.0844,958.6797 C742.8656,958.6797 742.6625,958.7578 742.475,958.9453 C742.0219,959.4297 742.0219,959.4297 741.8344,959.5234 C741.4125,959.7891 740.725,959.9141 739.9594,959.9141 C737.9125,959.9141 736.6156,958.8203 736.6156,957.1172 L736.6156,956.0234 C736.6156,954.2422 737.8656,952.9297 739.6,952.9297 C740.1781,952.9297 740.7875,953.0859 741.2563,953.3359 C741.7406,953.6172 741.9125,953.8359 742.0063,954.2422 C742.0688,954.6484 742.1,954.7734 742.2406,954.8984 C742.3813,955.0391 742.6156,955.1484 742.8344,955.1484 C743.1,955.1484 743.3656,955.0078 743.5375,954.7891 C743.6469,954.6328 743.6781,954.4453 743.6781,954.0234 L743.6781,952.6016 C743.6781,952.1641 743.6625,952.0391 743.5688,951.8828 C743.4125,951.6172 743.1313,951.4766 742.8344,951.4766 C742.5375,951.4766 742.3344,951.5703 742.1156,951.8828 L741.9438,951.8047 Z " fill="#000000"/><text fill="#000000" font-family="sans-serif" font-size="12" font-style="italic" lengthAdjust="spacing" textLength="86" x="775.4" y="952.1387">«Observation»</text><text fill="#000000" font-family="sans-serif" font-size="14" lengthAdjust="spacing" textLength="118" x="759.4" y="967.9639">Laborparameter</text><line style="stroke:#181818;stroke-width:0.5;" x1="699.5" x2="905.5" y1="976.2656" y2="976.2656"/><text fill="#000000" font-family="sans-serif" font-size="14" lengthAdjust="spacing" textLength="180" x="704.5" y="993.2607">Code : CodeableConcept</text><text fill="#000000" font-family="sans-serif" font-size="14" lengthAdjust="spacing" textLength="149" x="704.5" y="1009.5576">Laborwert : Quantity</text><text fill="#000000" font-family="sans-serif" font-size="14" lengthAdjust="spacing" textLength="188" x="704.5" y="1025.8545">Messzeitpunkt : dateTime</text><text fill="#000000" font-family="sans-serif" font-size="14" lengthAdjust="spacing" textLength="196" x="704.5" y="1042.1514">Referenzbereich : Quantity</text><line style="stroke:#181818;stroke-width:0.5;" x1="699.5" x2="905.5" y1="1049.4531" y2="1049.4531"/></g><!--MD5=[07843a28108f8f9fb73050ea95a4c52b]
class Probe--><g id="elem_Probe"><rect codeLine="95" fill="#F1F1F1" height="105.1563" id="Probe" rx="2.5" ry="2.5" style="stroke:#181818;stroke-width:0.5;" width="269" x="624" y="1557"/><ellipse cx="719.25" cy="1577.1328" fill="#ADD1B2" rx="11" ry="11" style="stroke:#181818;stroke-width:1.0;"/><path d="M721.5938,1572.8047 C720.6563,1572.3672 720.0625,1572.2266 719.1875,1572.2266 C716.5625,1572.2266 714.5625,1574.3047 714.5625,1577.0234 L714.5625,1578.1484 C714.5625,1580.7266 716.6719,1582.6172 719.5625,1582.6172 C720.7813,1582.6172 721.9375,1582.3203 722.6875,1581.7734 C723.2656,1581.3672 723.5938,1580.9141 723.5938,1580.5234 C723.5938,1580.0703 723.2031,1579.6797 722.7344,1579.6797 C722.5156,1579.6797 722.3125,1579.7578 722.125,1579.9453 C721.6719,1580.4297 721.6719,1580.4297 721.4844,1580.5234 C721.0625,1580.7891 720.375,1580.9141 719.6094,1580.9141 C717.5625,1580.9141 716.2656,1579.8203 716.2656,1578.1172 L716.2656,1577.0234 C716.2656,1575.2422 717.5156,1573.9297 719.25,1573.9297 C719.8281,1573.9297 720.4375,1574.0859 720.9063,1574.3359 C721.3906,1574.6172 721.5625,1574.8359 721.6563,1575.2422 C721.7188,1575.6484 721.75,1575.7734 721.8906,1575.8984 C722.0313,1576.0391 722.2656,1576.1484 722.4844,1576.1484 C722.75,1576.1484 723.0156,1576.0078 723.1875,1575.7891 C723.2969,1575.6328 723.3281,1575.4453 723.3281,1575.0234 L723.3281,1573.6016 C723.3281,1573.1641 723.3125,1573.0391 723.2188,1572.8828 C723.0625,1572.6172 722.7813,1572.4766 722.4844,1572.4766 C722.1875,1572.4766 721.9844,1572.5703 721.7656,1572.8828 L721.5938,1572.8047 Z " fill="#000000"/><text fill="#000000" font-family="sans-serif" font-size="12" font-style="italic" lengthAdjust="spacing" textLength="74" x="737.75" y="1573.1387">«Specimen»</text><text fill="#000000" font-family="sans-serif" font-size="14" lengthAdjust="spacing" textLength="43" x="753.25" y="1588.9639">Probe</text><line style="stroke:#181818;stroke-width:0.5;" x1="625" x2="892" y1="1597.2656" y2="1597.2656"/><text fill="#000000" font-family="sans-serif" font-size="14" lengthAdjust="spacing" textLength="95" x="630" y="1614.2607">ID : Identifier</text><text fill="#000000" font-family="sans-serif" font-size="14" lengthAdjust="spacing" textLength="216" x="630" y="1630.5576">Probenart : CodeableConcept</text><text fill="#000000" font-family="sans-serif" font-size="14" lengthAdjust="spacing" textLength="257" x="630" y="1646.8545">Entnahmestelle : CodeableConcept</text><line style="stroke:#181818;stroke-width:0.5;" x1="625" x2="892" y1="1654.1563" y2="1654.1563"/></g><!--MD5=[8d1280e58717f51acd6181606489346b]
class Assessment--><g id="elem_Assessment"><rect codeLine="104" fill="#F1F1F1" height="48" id="Assessment" rx="2.5" ry="2.5" style="stroke:#181818;stroke-width:0.5;" width="116" x="530.5" y="821.5"/><ellipse cx="545.5" cy="837.5" fill="#A9DCDF" rx="11" ry="11" style="stroke:#181818;stroke-width:1.0;"/><path d="M547.5781,839.3125 L547.9688,840.2969 L547.5781,840.2969 C547.125,840.2969 547.0156,840.3125 546.8594,840.4219 C546.6094,840.5781 546.4531,840.8594 546.4531,841.1563 C546.4531,841.4219 546.5938,841.6719 546.8125,841.8281 C546.9531,841.9531 547.1563,842 547.5781,842 L549.9375,842 C550.2969,842 550.5156,841.9688 550.6563,841.875 C550.9063,841.7344 551.0625,841.4375 551.0625,841.1563 C551.0625,840.875 550.9219,840.625 550.7031,840.4688 C550.5313,840.3281 550.375,840.2969 549.9063,840.2969 L546.5156,832.0938 L542.8438,832.0938 C542.3906,832.0938 542.2656,832.1094 542.1094,832.2031 C541.8594,832.375 541.7031,832.6563 541.7031,832.9375 C541.7031,833.2188 541.8438,833.4688 542.0625,833.6406 C542.2344,833.75 542.4063,833.7813 542.8438,833.7813 L543.9219,833.7813 L541.2813,840.2969 C540.8594,840.2969 540.7031,840.3125 540.5469,840.4219 C540.2969,840.5781 540.1406,840.8594 540.1406,841.1563 C540.1406,841.7188 540.5156,842 541.2656,842 L543.5313,842 C543.8906,842 544.1094,841.9688 544.2344,841.875 C544.5,841.7344 544.6406,841.4375 544.6406,841.1563 C544.6406,840.875 544.5156,840.625 544.2969,840.4531 C544.125,840.3281 543.9844,840.2969 543.5313,840.2969 L543.1406,840.2969 L543.5313,839.3125 L547.5781,839.3125 Z M546.875,837.6094 L544.2031,837.6094 L545.5469,834.3438 L546.875,837.6094 Z " fill="#000000"/><text fill="#000000" font-family="sans-serif" font-size="14" font-style="italic" lengthAdjust="spacing" textLength="84" x="559.5" y="842.3467">Assessment</text><line style="stroke:#181818;stroke-width:0.5;" x1="531.5" x2="645.5" y1="853.5" y2="853.5"/><line style="stroke:#181818;stroke-width:0.5;" x1="531.5" x2="645.5" y1="861.5" y2="861.5"/></g><!--MD5=[f27bcd0bfaa041fdac22cb69ddc6ac63]
class Staging--><g id="elem_Staging"><rect codeLine="108" fill="#F1F1F1" height="48" id="Staging" rx="2.5" ry="2.5" style="stroke:#181818;stroke-width:0.5;" width="86" x="377.5" y="1087"/><ellipse cx="392.5" cy="1103" fill="#A9DCDF" rx="11" ry="11" style="stroke:#181818;stroke-width:1.0;"/><path d="M394.5781,1104.8125 L394.9688,1105.7969 L394.5781,1105.7969 C394.125,1105.7969 394.0156,1105.8125 393.8594,1105.9219 C393.6094,1106.0781 393.4531,1106.3594 393.4531,1106.6563 C393.4531,1106.9219 393.5938,1107.1719 393.8125,1107.3281 C393.9531,1107.4531 394.1563,1107.5 394.5781,1107.5 L396.9375,1107.5 C397.2969,1107.5 397.5156,1107.4688 397.6563,1107.375 C397.9063,1107.2344 398.0625,1106.9375 398.0625,1106.6563 C398.0625,1106.375 397.9219,1106.125 397.7031,1105.9688 C397.5313,1105.8281 397.375,1105.7969 396.9063,1105.7969 L393.5156,1097.5938 L389.8438,1097.5938 C389.3906,1097.5938 389.2656,1097.6094 389.1094,1097.7031 C388.8594,1097.875 388.7031,1098.1563 388.7031,1098.4375 C388.7031,1098.7188 388.8438,1098.9688 389.0625,1099.1406 C389.2344,1099.25 389.4063,1099.2813 389.8438,1099.2813 L390.9219,1099.2813 L388.2813,1105.7969 C387.8594,1105.7969 387.7031,1105.8125 387.5469,1105.9219 C387.2969,1106.0781 387.1406,1106.3594 387.1406,1106.6563 C387.1406,1107.2188 387.5156,1107.5 388.2656,1107.5 L390.5313,1107.5 C390.8906,1107.5 391.1094,1107.4688 391.2344,1107.375 C391.5,1107.2344 391.6406,1106.9375 391.6406,1106.6563 C391.6406,1106.375 391.5156,1106.125 391.2969,1105.9531 C391.125,1105.8281 390.9844,1105.7969 390.5313,1105.7969 L390.1406,1105.7969 L390.5313,1104.8125 L394.5781,1104.8125 Z M393.875,1103.1094 L391.2031,1103.1094 L392.5469,1099.8438 L393.875,1103.1094 Z " fill="#000000"/><text fill="#000000" font-family="sans-serif" font-size="14" font-style="italic" lengthAdjust="spacing" textLength="54" x="406.5" y="1107.8467">Staging</text><line style="stroke:#181818;stroke-width:0.5;" x1="378.5" x2="462.5" y1="1119" y2="1119"/><line style="stroke:#181818;stroke-width:0.5;" x1="378.5" x2="462.5" y1="1127" y2="1127"/></g><!--MD5=[922f99bd240fc9b7dcaee70950235b23]
class Grading--><g id="elem_Grading"><rect codeLine="112" fill="#F1F1F1" height="48" id="Grading" rx="2.5" ry="2.5" style="stroke:#181818;stroke-width:0.5;" width="89" x="582" y="1087"/><ellipse cx="597" cy="1103" fill="#A9DCDF" rx="11" ry="11" style="stroke:#181818;stroke-width:1.0;"/><path d="M599.0781,1104.8125 L599.4688,1105.7969 L599.0781,1105.7969 C598.625,1105.7969 598.5156,1105.8125 598.3594,1105.9219 C598.1094,1106.0781 597.9531,1106.3594 597.9531,1106.6563 C597.9531,1106.9219 598.0938,1107.1719 598.3125,1107.3281 C598.4531,1107.4531 598.6563,1107.5 599.0781,1107.5 L601.4375,1107.5 C601.7969,1107.5 602.0156,1107.4688 602.1563,1107.375 C602.4063,1107.2344 602.5625,1106.9375 602.5625,1106.6563 C602.5625,1106.375 602.4219,1106.125 602.2031,1105.9688 C602.0313,1105.8281 601.875,1105.7969 601.4063,1105.7969 L598.0156,1097.5938 L594.3438,1097.5938 C593.8906,1097.5938 593.7656,1097.6094 593.6094,1097.7031 C593.3594,1097.875 593.2031,1098.1563 593.2031,1098.4375 C593.2031,1098.7188 593.3438,1098.9688 593.5625,1099.1406 C593.7344,1099.25 593.9063,1099.2813 594.3438,1099.2813 L595.4219,1099.2813 L592.7813,1105.7969 C592.3594,1105.7969 592.2031,1105.8125 592.0469,1105.9219 C591.7969,1106.0781 591.6406,1106.3594 591.6406,1106.6563 C591.6406,1107.2188 592.0156,1107.5 592.7656,1107.5 L595.0313,1107.5 C595.3906,1107.5 595.6094,1107.4688 595.7344,1107.375 C596,1107.2344 596.1406,1106.9375 596.1406,1106.6563 C596.1406,1106.375 596.0156,1106.125 595.7969,1105.9531 C595.625,1105.8281 595.4844,1105.7969 595.0313,1105.7969 L594.6406,1105.7969 L595.0313,1104.8125 L599.0781,1104.8125 Z M598.375,1103.1094 L595.7031,1103.1094 L597.0469,1099.8438 L598.375,1103.1094 Z " fill="#000000"/><text fill="#000000" font-family="sans-serif" font-size="14" font-style="italic" lengthAdjust="spacing" textLength="57" x="611" y="1107.8467">Grading</text><line style="stroke:#181818;stroke-width:0.5;" x1="583" x2="670" y1="1119" y2="1119"/><line style="stroke:#181818;stroke-width:0.5;" x1="583" x2="670" y1="1127" y2="1127"/></g><!--MD5=[bb18fe156cacd98fdf663dd96613203a]
class TNM--><g id="elem_TNM"><rect codeLine="116" fill="#F1F1F1" height="268.125" id="TNM" rx="2.5" ry="2.5" style="stroke:#181818;stroke-width:0.5;" width="274" x="206.5" y="1212"/><ellipse cx="298.25" cy="1232.1328" fill="#ADD1B2" rx="11" ry="11" style="stroke:#181818;stroke-width:1.0;"/><path d="M300.5938,1227.8047 C299.6563,1227.3672 299.0625,1227.2266 298.1875,1227.2266 C295.5625,1227.2266 293.5625,1229.3047 293.5625,1232.0234 L293.5625,1233.1484 C293.5625,1235.7266 295.6719,1237.6172 298.5625,1237.6172 C299.7813,1237.6172 300.9375,1237.3203 301.6875,1236.7734 C302.2656,1236.3672 302.5938,1235.9141 302.5938,1235.5234 C302.5938,1235.0703 302.2031,1234.6797 301.7344,1234.6797 C301.5156,1234.6797 301.3125,1234.7578 301.125,1234.9453 C300.6719,1235.4297 300.6719,1235.4297 300.4844,1235.5234 C300.0625,1235.7891 299.375,1235.9141 298.6094,1235.9141 C296.5625,1235.9141 295.2656,1234.8203 295.2656,1233.1172 L295.2656,1232.0234 C295.2656,1230.2422 296.5156,1228.9297 298.25,1228.9297 C298.8281,1228.9297 299.4375,1229.0859 299.9063,1229.3359 C300.3906,1229.6172 300.5625,1229.8359 300.6563,1230.2422 C300.7188,1230.6484 300.75,1230.7734 300.8906,1230.8984 C301.0313,1231.0391 301.2656,1231.1484 301.4844,1231.1484 C301.75,1231.1484 302.0156,1231.0078 302.1875,1230.7891 C302.2969,1230.6328 302.3281,1230.4453 302.3281,1230.0234 L302.3281,1228.6016 C302.3281,1228.1641 302.3125,1228.0391 302.2188,1227.8828 C302.0625,1227.6172 301.7813,1227.4766 301.4844,1227.4766 C301.1875,1227.4766 300.9844,1227.5703 300.7656,1227.8828 L300.5938,1227.8047 Z " fill="#000000"/><text fill="#000000" font-family="sans-serif" font-size="12" font-style="italic" lengthAdjust="spacing" textLength="86" x="316.75" y="1228.1387">«Observation»</text><text fill="#000000" font-family="sans-serif" font-size="14" lengthAdjust="spacing" textLength="31" x="344.25" y="1243.9639">TNM</text><line style="stroke:#181818;stroke-width:0.5;" x1="207.5" x2="479.5" y1="1252.2656" y2="1252.2656"/><text fill="#000000" font-family="sans-serif" font-size="14" lengthAdjust="spacing" textLength="151" x="212.5" y="1269.2607">y : CodeableConcept</text><text fill="#000000" font-family="sans-serif" font-size="14" lengthAdjust="spacing" textLength="149" x="212.5" y="1285.5576">r : CodeableConcept</text><text fill="#000000" font-family="sans-serif" font-size="14" lengthAdjust="spacing" textLength="151" x="212.5" y="1301.8545">a : CodeableConcept</text><text fill="#000000" font-family="sans-serif" font-size="14" lengthAdjust="spacing" textLength="152" x="212.5" y="1318.1514">T : CodeableConcept</text><text fill="#000000" font-family="sans-serif" font-size="14" lengthAdjust="spacing" textLength="157" x="212.5" y="1334.4482">m : CodeableConcept</text><text fill="#000000" font-family="sans-serif" font-size="14" lengthAdjust="spacing" textLength="153" x="212.5" y="1350.7451">N : CodeableConcept</text><text fill="#000000" font-family="sans-serif" font-size="14" lengthAdjust="spacing" textLength="155" x="212.5" y="1367.042">M : CodeableConcept</text><text fill="#000000" font-family="sans-serif" font-size="14" lengthAdjust="spacing" textLength="151" x="212.5" y="1383.3389">L : CodeableConcept</text><text fill="#000000" font-family="sans-serif" font-size="14" lengthAdjust="spacing" textLength="153" x="212.5" y="1399.6357">V : CodeableConcept</text><text fill="#000000" font-family="sans-serif" font-size="14" lengthAdjust="spacing" textLength="161" x="212.5" y="1415.9326">Pn : CodeableConcept</text><text fill="#000000" font-family="sans-serif" font-size="14" lengthAdjust="spacing" textLength="152" x="212.5" y="1432.2295">S : CodeableConcept</text><text fill="#000000" font-family="sans-serif" font-size="14" lengthAdjust="spacing" textLength="256" x="212.5" y="1448.5264">numberOfNodesAffected : Quantity</text><text fill="#000000" font-family="sans-serif" font-size="14" lengthAdjust="spacing" textLength="262" x="212.5" y="1464.8232">numberOfNodesExamined : Quantity</text><line style="stroke:#181818;stroke-width:0.5;" x1="207.5" x2="479.5" y1="1472.125" y2="1472.125"/></g><!--MD5=[16e9775567ff8f304c2991a8a0c4aed5]
class ResidualTumorClassification--><g id="elem_ResidualTumorClassification"><rect codeLine="132" fill="#F1F1F1" height="72.5625" id="ResidualTumorClassification" rx="2.5" ry="2.5" style="stroke:#181818;stroke-width:0.5;" width="232" x="227.5" y="1573"/><ellipse cx="242.5" cy="1593.1328" fill="#ADD1B2" rx="11" ry="11" style="stroke:#181818;stroke-width:1.0;"/><path d="M244.8438,1588.8047 C243.9063,1588.3672 243.3125,1588.2266 242.4375,1588.2266 C239.8125,1588.2266 237.8125,1590.3047 237.8125,1593.0234 L237.8125,1594.1484 C237.8125,1596.7266 239.9219,1598.6172 242.8125,1598.6172 C244.0313,1598.6172 245.1875,1598.3203 245.9375,1597.7734 C246.5156,1597.3672 246.8438,1596.9141 246.8438,1596.5234 C246.8438,1596.0703 246.4531,1595.6797 245.9844,1595.6797 C245.7656,1595.6797 245.5625,1595.7578 245.375,1595.9453 C244.9219,1596.4297 244.9219,1596.4297 244.7344,1596.5234 C244.3125,1596.7891 243.625,1596.9141 242.8594,1596.9141 C240.8125,1596.9141 239.5156,1595.8203 239.5156,1594.1172 L239.5156,1593.0234 C239.5156,1591.2422 240.7656,1589.9297 242.5,1589.9297 C243.0781,1589.9297 243.6875,1590.0859 244.1563,1590.3359 C244.6406,1590.6172 244.8125,1590.8359 244.9063,1591.2422 C244.9688,1591.6484 245,1591.7734 245.1406,1591.8984 C245.2813,1592.0391 245.5156,1592.1484 245.7344,1592.1484 C246,1592.1484 246.2656,1592.0078 246.4375,1591.7891 C246.5469,1591.6328 246.5781,1591.4453 246.5781,1591.0234 L246.5781,1589.6016 C246.5781,1589.1641 246.5625,1589.0391 246.4688,1588.8828 C246.3125,1588.6172 246.0313,1588.4766 245.7344,1588.4766 C245.4375,1588.4766 245.2344,1588.5703 245.0156,1588.8828 L244.8438,1588.8047 Z " fill="#000000"/><text fill="#000000" font-family="sans-serif" font-size="12" font-style="italic" lengthAdjust="spacing" textLength="86" x="313.5" y="1589.1387">«Observation»</text><text fill="#000000" font-family="sans-serif" font-size="14" lengthAdjust="spacing" textLength="200" x="256.5" y="1604.9639">ResidualTumorClassification</text><line style="stroke:#181818;stroke-width:0.5;" x1="228.5" x2="458.5" y1="1613.2656" y2="1613.2656"/><text fill="#000000" font-family="sans-serif" font-size="14" lengthAdjust="spacing" textLength="153" x="233.5" y="1630.2607">R : CodeableConcept</text><line style="stroke:#181818;stroke-width:0.5;" x1="228.5" x2="458.5" y1="1637.5625" y2="1637.5625"/></g><!--MD5=[81a5abd404470e1328f70bcb46211fff]
class HistopathologischesGrading--><g id="elem_HistopathologischesGrading"><rect codeLine="138" fill="#F1F1F1" height="72.5625" id="HistopathologischesGrading" rx="2.5" ry="2.5" style="stroke:#181818;stroke-width:0.5;" width="234" x="515.5" y="1309.5"/><ellipse cx="530.5" cy="1329.6328" fill="#ADD1B2" rx="11" ry="11" style="stroke:#181818;stroke-width:1.0;"/><path d="M532.8438,1325.3047 C531.9063,1324.8672 531.3125,1324.7266 530.4375,1324.7266 C527.8125,1324.7266 525.8125,1326.8047 525.8125,1329.5234 L525.8125,1330.6484 C525.8125,1333.2266 527.9219,1335.1172 530.8125,1335.1172 C532.0313,1335.1172 533.1875,1334.8203 533.9375,1334.2734 C534.5156,1333.8672 534.8438,1333.4141 534.8438,1333.0234 C534.8438,1332.5703 534.4531,1332.1797 533.9844,1332.1797 C533.7656,1332.1797 533.5625,1332.2578 533.375,1332.4453 C532.9219,1332.9297 532.9219,1332.9297 532.7344,1333.0234 C532.3125,1333.2891 531.625,1333.4141 530.8594,1333.4141 C528.8125,1333.4141 527.5156,1332.3203 527.5156,1330.6172 L527.5156,1329.5234 C527.5156,1327.7422 528.7656,1326.4297 530.5,1326.4297 C531.0781,1326.4297 531.6875,1326.5859 532.1563,1326.8359 C532.6406,1327.1172 532.8125,1327.3359 532.9063,1327.7422 C532.9688,1328.1484 533,1328.2734 533.1406,1328.3984 C533.2813,1328.5391 533.5156,1328.6484 533.7344,1328.6484 C534,1328.6484 534.2656,1328.5078 534.4375,1328.2891 C534.5469,1328.1328 534.5781,1327.9453 534.5781,1327.5234 L534.5781,1326.1016 C534.5781,1325.6641 534.5625,1325.5391 534.4688,1325.3828 C534.3125,1325.1172 534.0313,1324.9766 533.7344,1324.9766 C533.4375,1324.9766 533.2344,1325.0703 533.0156,1325.3828 L532.8438,1325.3047 Z " fill="#000000"/><text fill="#000000" font-family="sans-serif" font-size="12" font-style="italic" lengthAdjust="spacing" textLength="86" x="602.5" y="1325.6387">«Observation»</text><text fill="#000000" font-family="sans-serif" font-size="14" lengthAdjust="spacing" textLength="202" x="544.5" y="1341.4639">HistopathologischesGrading</text><line style="stroke:#181818;stroke-width:0.5;" x1="516.5" x2="748.5" y1="1349.7656" y2="1349.7656"/><text fill="#000000" font-family="sans-serif" font-size="14" lengthAdjust="spacing" textLength="186" x="521.5" y="1366.7607">Grade : CodeableConcept</text><line style="stroke:#181818;stroke-width:0.5;" x1="516.5" x2="748.5" y1="1374.0625" y2="1374.0625"/></g><!--MD5=[dbccef13054c92a74ecb76298de2f96e]
class Therapie--><g id="elem_Therapie"><rect codeLine="149" fill="#F1F1F1" height="48" id="Therapie" rx="2.5" ry="2.5" style="stroke:#181818;stroke-width:0.5;" width="96" x="955.5" y="486"/><ellipse cx="970.5" cy="502" fill="#A9DCDF" rx="11" ry="11" style="stroke:#181818;stroke-width:1.0;"/><path d="M972.5781,503.8125 L972.9688,504.7969 L972.5781,504.7969 C972.125,504.7969 972.0156,504.8125 971.8594,504.9219 C971.6094,505.0781 971.4531,505.3594 971.4531,505.6563 C971.4531,505.9219 971.5938,506.1719 971.8125,506.3281 C971.9531,506.4531 972.1563,506.5 972.5781,506.5 L974.9375,506.5 C975.2969,506.5 975.5156,506.4688 975.6563,506.375 C975.9063,506.2344 976.0625,505.9375 976.0625,505.6563 C976.0625,505.375 975.9219,505.125 975.7031,504.9688 C975.5313,504.8281 975.375,504.7969 974.9063,504.7969 L971.5156,496.5938 L967.8438,496.5938 C967.3906,496.5938 967.2656,496.6094 967.1094,496.7031 C966.8594,496.875 966.7031,497.1563 966.7031,497.4375 C966.7031,497.7188 966.8438,497.9688 967.0625,498.1406 C967.2344,498.25 967.4063,498.2813 967.8438,498.2813 L968.9219,498.2813 L966.2813,504.7969 C965.8594,504.7969 965.7031,504.8125 965.5469,504.9219 C965.2969,505.0781 965.1406,505.3594 965.1406,505.6563 C965.1406,506.2188 965.5156,506.5 966.2656,506.5 L968.5313,506.5 C968.8906,506.5 969.1094,506.4688 969.2344,506.375 C969.5,506.2344 969.6406,505.9375 969.6406,505.6563 C969.6406,505.375 969.5156,505.125 969.2969,504.9531 C969.125,504.8281 968.9844,504.7969 968.5313,504.7969 L968.1406,504.7969 L968.5313,503.8125 L972.5781,503.8125 Z M971.875,502.1094 L969.2031,502.1094 L970.5469,498.8438 L971.875,502.1094 Z " fill="#000000"/><text fill="#000000" font-family="sans-serif" font-size="14" font-style="italic" lengthAdjust="spacing" textLength="64" x="984.5" y="506.8467">Therapie</text><line style="stroke:#181818;stroke-width:0.5;" x1="956.5" x2="1050.5" y1="518" y2="518"/><line style="stroke:#181818;stroke-width:0.5;" x1="956.5" x2="1050.5" y1="526" y2="526"/></g><!--MD5=[cd9f3ad88d2eade7181ed8fb48b0d0c6]
class Prozedur--><g id="elem_Prozedur"><rect codeLine="153" fill="#F1F1F1" height="121.4531" id="Prozedur" rx="2.5" ry="2.5" style="stroke:#181818;stroke-width:0.5;" width="256" x="875.5" y="785"/><ellipse cx="963.75" cy="805.1328" fill="#ADD1B2" rx="11" ry="11" style="stroke:#181818;stroke-width:1.0;"/><path d="M966.0938,800.8047 C965.1563,800.3672 964.5625,800.2266 963.6875,800.2266 C961.0625,800.2266 959.0625,802.3047 959.0625,805.0234 L959.0625,806.1484 C959.0625,808.7266 961.1719,810.6172 964.0625,810.6172 C965.2813,810.6172 966.4375,810.3203 967.1875,809.7734 C967.7656,809.3672 968.0938,808.9141 968.0938,808.5234 C968.0938,808.0703 967.7031,807.6797 967.2344,807.6797 C967.0156,807.6797 966.8125,807.7578 966.625,807.9453 C966.1719,808.4297 966.1719,808.4297 965.9844,808.5234 C965.5625,808.7891 964.875,808.9141 964.1094,808.9141 C962.0625,808.9141 960.7656,807.8203 960.7656,806.1172 L960.7656,805.0234 C960.7656,803.2422 962.0156,801.9297 963.75,801.9297 C964.3281,801.9297 964.9375,802.0859 965.4063,802.3359 C965.8906,802.6172 966.0625,802.8359 966.1563,803.2422 C966.2188,803.6484 966.25,803.7734 966.3906,803.8984 C966.5313,804.0391 966.7656,804.1484 966.9844,804.1484 C967.25,804.1484 967.5156,804.0078 967.6875,803.7891 C967.7969,803.6328 967.8281,803.4453 967.8281,803.0234 L967.8281,801.6016 C967.8281,801.1641 967.8125,801.0391 967.7188,800.8828 C967.5625,800.6172 967.2813,800.4766 966.9844,800.4766 C966.6875,800.4766 966.4844,800.5703 966.2656,800.8828 L966.0938,800.8047 Z " fill="#000000"/><text fill="#000000" font-family="sans-serif" font-size="12" font-style="italic" lengthAdjust="spacing" textLength="75" x="982.25" y="801.1387">«Procedure»</text><text fill="#000000" font-family="sans-serif" font-size="14" lengthAdjust="spacing" textLength="64" x="987.75" y="816.9639">Prozedur</text><line style="stroke:#181818;stroke-width:0.5;" x1="876.5" x2="1130.5" y1="825.2656" y2="825.2656"/><text fill="#000000" font-family="sans-serif" font-size="14" lengthAdjust="spacing" textLength="176" x="881.5" y="842.2607">Code: CodeableConcept</text><text fill="#000000" font-family="sans-serif" font-size="14" lengthAdjust="spacing" textLength="228" x="881.5" y="858.5576">Durchführungsdatum: dateTime</text><text fill="#000000" font-family="sans-serif" font-size="14" lengthAdjust="spacing" textLength="244" x="881.5" y="874.8545">Dokumentationsdatum: dateTime</text><text fill="#000000" font-family="sans-serif" font-size="14" lengthAdjust="spacing" textLength="229" x="881.5" y="891.1514">Körperstelle: CodeableConcept</text><line style="stroke:#181818;stroke-width:0.5;" x1="876.5" x2="1130.5" y1="898.4531" y2="898.4531"/></g><!--MD5=[9feba865d30dc5777caa8664f24d4c03]
class MedikamentöseTherapie--><g id="elem_MedikamentöseTherapie"><rect codeLine="162" fill="#F1F1F1" height="121.4531" id="MedikamentöseTherapie" rx="2.5" ry="2.5" style="stroke:#181818;stroke-width:0.5;" width="282" x="1166.5" y="785"/><ellipse cx="1213.75" cy="805.1328" fill="#ADD1B2" rx="11" ry="11" style="stroke:#181818;stroke-width:1.0;"/><path d="M1216.0938,800.8047 C1215.1563,800.3672 1214.5625,800.2266 1213.6875,800.2266 C1211.0625,800.2266 1209.0625,802.3047 1209.0625,805.0234 L1209.0625,806.1484 C1209.0625,808.7266 1211.1719,810.6172 1214.0625,810.6172 C1215.2813,810.6172 1216.4375,810.3203 1217.1875,809.7734 C1217.7656,809.3672 1218.0938,808.9141 1218.0938,808.5234 C1218.0938,808.0703 1217.7031,807.6797 1217.2344,807.6797 C1217.0156,807.6797 1216.8125,807.7578 1216.625,807.9453 C1216.1719,808.4297 1216.1719,808.4297 1215.9844,808.5234 C1215.5625,808.7891 1214.875,808.9141 1214.1094,808.9141 C1212.0625,808.9141 1210.7656,807.8203 1210.7656,806.1172 L1210.7656,805.0234 C1210.7656,803.2422 1212.0156,801.9297 1213.75,801.9297 C1214.3281,801.9297 1214.9375,802.0859 1215.4063,802.3359 C1215.8906,802.6172 1216.0625,802.8359 1216.1563,803.2422 C1216.2188,803.6484 1216.25,803.7734 1216.3906,803.8984 C1216.5313,804.0391 1216.7656,804.1484 1216.9844,804.1484 C1217.25,804.1484 1217.5156,804.0078 1217.6875,803.7891 C1217.7969,803.6328 1217.8281,803.4453 1217.8281,803.0234 L1217.8281,801.6016 C1217.8281,801.1641 1217.8125,801.0391 1217.7188,800.8828 C1217.5625,800.6172 1217.2813,800.4766 1216.9844,800.4766 C1216.6875,800.4766 1216.4844,800.5703 1216.2656,800.8828 L1216.0938,800.8047 Z " fill="#000000"/><text fill="#000000" font-family="sans-serif" font-size="12" font-style="italic" lengthAdjust="spacing" textLength="143" x="1252.25" y="801.1387">«MedicationStatement»</text><text fill="#000000" font-family="sans-serif" font-size="14" lengthAdjust="spacing" textLength="179" x="1234.25" y="816.9639">MedikamentöseTherapie</text><line style="stroke:#181818;stroke-width:0.5;" x1="1167.5" x2="1447.5" y1="825.2656" y2="825.2656"/><text fill="#000000" font-family="sans-serif" font-size="14" lengthAdjust="spacing" textLength="207" x="1172.5" y="842.2607">Wirkstoff: CodeableConcept</text><text fill="#000000" font-family="sans-serif" font-size="14" lengthAdjust="spacing" textLength="192" x="1172.5" y="858.5576">TherapieBeginn: dateTime</text><text fill="#000000" font-family="sans-serif" font-size="14" lengthAdjust="spacing" textLength="178" x="1172.5" y="874.8545">TherapieEnde: dateTime</text><text fill="#000000" font-family="sans-serif" font-size="14" lengthAdjust="spacing" textLength="270" x="1172.5" y="891.1514">TherapieIntention: CodeableConcept</text><line style="stroke:#181818;stroke-width:0.5;" x1="1167.5" x2="1447.5" y1="898.4531" y2="898.4531"/></g><!--MD5=[0c0eec3cddb9b1bde967053c98f4a44e]
reverse link Patient to Vitalstatus--><g id="link_Patient_Vitalstatus"><path codeLine="29" d="M470.956,224.19 C410.143,264.33 335.801,316.2 273.5,368 C240.241,395.65 205.746,429.76 179.084,457.5 " fill="none" id="Patient-backto-Vitalstatus" style="stroke:#181818;stroke-width:1.0;"/><polygon fill="#181818" points="475.311,221.32,465.5953,222.934,471.1365,224.072,469.9985,229.6132,475.311,221.32" style="stroke:#181818;stroke-width:1.0;"/><text fill="#000000" font-family="sans-serif" font-size="13" lengthAdjust="spacing" textLength="46" x="332.5" y="334.0669">subject</text></g><!--MD5=[64ed3a846ee5eb45373fba01509908ae]
reverse link Patient to Körpermaße--><g id="link_Patient_Körpermaße"><path codeLine="35" d="M478.606,295.42 C461.656,319.33 444.739,344.11 429.5,368 C403.928,408.1 377.922,457.12 363.336,485.53 " fill="none" id="Patient-backto-Körpermaße" style="stroke:#181818;stroke-width:1.0;"/><polygon fill="#181818" points="481.548,291.28,473.0711,296.2941,478.6492,295.354,479.5894,300.9321,481.548,291.28" style="stroke:#181818;stroke-width:1.0;"/><text fill="#000000" font-family="sans-serif" font-size="13" lengthAdjust="spacing" textLength="46" x="459.5" y="334.0669">subject</text></g><!--MD5=[50dbf76ba147acd0a476536e0eb53d80]
reverse link Körpermaße to Körpergröße--><g id="link_Körpermaße_Körpergröße"><path codeLine="42" d="M333.51,545.92 C318.31,574.82 295.549,616.71 273.5,652 C240.732,704.446 199.468,762.236 171.24,800.676 " fill="none" id="Körpermaße-backto-Körpergröße" style="stroke:#181818;stroke-width:1.0;"/><polygon fill="#181818" points="339.538,534.39,333.2155,537.8579,333.985,545.0278,340.3074,541.5599,339.538,534.39" style="stroke:#181818;stroke-width:1.0;"/></g><!--MD5=[512e472ffa1aca4da35abbcea755677d]
reverse link Körpermaße to Körpergewicht--><g id="link_Körpermaße_Körpergewicht"><path codeLine="49" d="M353.902,547.42 C357.979,609.21 366.233,734.346 370.616,800.775 " fill="none" id="Körpermaße-backto-Körpergewicht" style="stroke:#181818;stroke-width:1.0;"/><polygon fill="#181818" points="353.03,534.19,349.4343,540.4407,353.8212,546.1639,357.4169,539.9132,353.03,534.19" style="stroke:#181818;stroke-width:1.0;"/></g><!--MD5=[f343e5ad7bd8826356d4a18a20815faa]
reverse link Patient to Diagnose--><g id="link_Patient_Diagnose"><path codeLine="71" d="M588.5,296.15 C588.5,319.83 588.5,344.31 588.5,367.86 " fill="none" id="Patient-backto-Diagnose" style="stroke:#181818;stroke-width:1.0;"/><polygon fill="#181818" points="588.5,291.11,584.5,300.11,588.5,296.11,592.5,300.11,588.5,291.11" style="stroke:#181818;stroke-width:1.0;"/><text fill="#000000" font-family="sans-serif" font-size="13" lengthAdjust="spacing" textLength="46" x="589.5" y="334.0669">subject</text></g><!--MD5=[d3851eef7b6240da8805c43e6588b08e]
reverse link Diagnose to Diagnose--><g id="link_Diagnose_Diagnose"><path codeLine="72" d="M735.321,480.82 C753.251,486.05 765,495.78 765,510 C765,525.56 750.938,535.74 730.105,540.54 " fill="none" id="Diagnose-backto-Diagnose" style="stroke:#181818;stroke-width:1.0;"/><polygon fill="#181818" points="730.105,479.46,737.8095,485.5951,734.9443,480.7176,739.8218,477.8523,730.105,479.46" style="stroke:#181818;stroke-width:1.0;"/><text fill="#000000" font-family="sans-serif" font-size="13" lengthAdjust="spacing" textLength="61" x="771" y="514.5669">relatedTo</text></g><!--MD5=[2d310f26ad94af3e1c904969977f4eb8]
reverse link Patient to Laborbefund--><g id="link_Patient_Laborbefund"><path codeLine="86" d="M705.638,279.81 C709.911,283.65 714.204,287.39 718.5,291 C767.039,331.74 808.111,312.39 838.5,368 C894.31,470.12 862.026,615.34 842.305,681.804 " fill="none" id="Patient-backto-Laborbefund" style="stroke:#181818;stroke-width:1.0;"/><polygon fill="#181818" points="701.721,276.25,705.6927,285.2625,705.4218,279.6122,711.0722,279.3412,701.721,276.25" style="stroke:#181818;stroke-width:1.0;"/><text fill="#000000" font-family="sans-serif" font-size="13" lengthAdjust="spacing" textLength="46" x="814.5" y="334.0669">subject</text></g><!--MD5=[67dea1a54840bcb16fc16574e2c05a82]
link Laborbefund to Laborparameter--><g id="link_Laborbefund_Laborparameter"><path codeLine="101" d="M823.949,755.113 C822.325,764.785 820.707,775.273 819.5,785 C813.446,833.774 809.071,889.187 806.277,930.911 " fill="none" id="Laborbefund-to-Laborparameter" style="stroke:#181818;stroke-width:1.0;"/><polygon fill="#181818" points="805.944,935.931,810.5292,927.2146,806.2739,930.9419,802.5466,926.6867,805.944,935.931" style="stroke:#181818;stroke-width:1.0;"/><text fill="#000000" font-family="sans-serif" font-size="13" lengthAdjust="spacing" textLength="36" x="820.5" y="850.0669">result</text></g><!--MD5=[11ebcbbda5b5785f5dc054d70ad60c18]
link Laborparameter to Probe--><g id="link_Laborparameter_Probe"><path codeLine="102" d="M804.308,1057.076 C806.339,1155.526 806.477,1358.084 780.5,1527 C779.264,1535.037 777.53,1543.419 775.573,1551.618 " fill="none" id="Laborparameter-to-Probe" style="stroke:#181818;stroke-width:1.0;"/><polygon fill="#181818" points="774.327,1556.695,780.3564,1548.9075,775.5185,1551.839,772.5869,1547.0011,774.327,1556.695" style="stroke:#181818;stroke-width:1.0;"/><text fill="#000000" font-family="sans-serif" font-size="13" lengthAdjust="spacing" textLength="62" x="806.5" y="1178.0669">specimen</text></g><!--MD5=[fb490bce5b72b37560dd189a139be695]
link TNM to ResidualTumorClassification--><g id="link_TNM_ResidualTumorClassification"><path codeLine="136" d="M343.5,1480.048 C343.5,1511.954 343.5,1543.677 343.5,1567.6152 " fill="none" id="TNM-to-ResidualTumorClassification" style="stroke:#181818;stroke-width:1.0;"/><polygon fill="#181818" points="343.5,1572.9097,347.5,1563.9097,343.5,1567.9097,339.5,1563.9097,343.5,1572.9097" style="stroke:#181818;stroke-width:1.0;"/><text fill="#000000" font-family="sans-serif" font-size="13" lengthAdjust="spacing" textLength="75" x="344.5" y="1523.0669">hasMember</text></g><!--MD5=[6c485deefd89ec33d33f022781c0a2ed]
reverse link Assessment to Staging--><g id="link_Assessment_Staging"><path codeLine="142" d="M566.483,881.033 C531.726,935.547 465.049,1040.127 435.375,1086.669 " fill="none" id="Assessment-backto-Staging" style="stroke:#181818;stroke-width:1.0;"/><polygon fill="#181818" points="573.591,869.884,566.9924,872.7922,567.1389,880.0019,573.7376,877.0936,573.591,869.884" style="stroke:#181818;stroke-width:1.0;"/></g><!--MD5=[64a48664fa8359ba58d25dbc334fc837]
reverse link Assessment to Grading--><g id="link_Assessment_Grading"><path codeLine="143" d="M593.73,882.763 C601.657,937.733 616.494,1040.615 623.135,1086.669 " fill="none" id="Assessment-backto-Grading" style="stroke:#181818;stroke-width:1.0;"/><polygon fill="#181818" points="591.872,869.884,588.7694,876.3935,593.5849,881.7611,596.6875,875.2516,591.872,869.884" style="stroke:#181818;stroke-width:1.0;"/></g><!--MD5=[9db3bad806de826ea0ab69f42fce83fe]
reverse link Staging to TNM--><g id="link_Staging_TNM"><path codeLine="144" d="M408.684,1147.755 C402.811,1165.528 395.307,1188.234 387.495,1211.872 " fill="none" id="Staging-backto-TNM" style="stroke:#181818;stroke-width:1.0;"/><polygon fill="#181818" points="412.835,1135.193,407.154,1139.6344,409.0688,1146.5867,414.7498,1142.1452,412.835,1135.193" style="stroke:#181818;stroke-width:1.0;"/></g><!--MD5=[73f4b93a73d39402696b90cef48ffaec]
reverse link Grading to HistopathologischesGrading--><g id="link_Grading_HistopathologischesGrading"><path codeLine="145" d="M627.436,1148.353 C628.568,1192.319 630.461,1265.837 631.584,1309.442 " fill="none" id="Grading-backto-HistopathologischesGrading" style="stroke:#181818;stroke-width:1.0;"/><polygon fill="#181818" points="627.097,1135.193,623.2533,1141.2943,627.4069,1147.189,631.2506,1141.0877,627.097,1135.193" style="stroke:#181818;stroke-width:1.0;"/></g><!--MD5=[81890c8ffcb7a6a7ef961e834f08582c]
link Diagnose to Assessment--><g id="link_Diagnose_Assessment"><path codeLine="146" d="M588.5,652.43 C588.5,713.687 588.5,779.607 588.5,816.087 " fill="none" id="Diagnose-to-Assessment" style="stroke:#181818;stroke-width:1.0;"/><polygon fill="#181818" points="588.5,821.252,592.5,812.252,588.5,816.252,584.5,812.252,588.5,821.252" style="stroke:#181818;stroke-width:1.0;"/><text fill="#000000" font-family="sans-serif" font-size="13" lengthAdjust="spacing" textLength="118" x="589.5" y="723.0669">stage.assessment</text></g><!--MD5=[b000c9f496b7b93be1ec0a94abb59dcd]
link HistopathologischesGrading to Probe--><g id="link_HistopathologischesGrading_Probe"><path codeLine="147" d="M647.153,1382.646 C662.496,1419.3 687.76,1477.814 712.5,1527 C716.627,1535.205 721.175,1543.761 725.756,1552.112 " fill="none" id="HistopathologischesGrading-to-Probe" style="stroke:#181818;stroke-width:1.0;"/><polygon fill="#181818" points="728.302,1556.727,727.4567,1546.9145,725.8867,1552.3491,720.452,1550.779,728.302,1556.727" style="stroke:#181818;stroke-width:1.0;"/><text fill="#000000" font-family="sans-serif" font-size="13" lengthAdjust="spacing" textLength="62" x="713.5" y="1523.0669">specimen</text></g><!--MD5=[47ea644df06ade88ab84eb39335fbead]
reverse link Therapie to Prozedur--><g id="link_Therapie_Prozedur"><path codeLine="160" d="M1003.5,547.5 C1003.5,604.68 1003.5,715.957 1003.5,784.882 " fill="none" id="Therapie-backto-Prozedur" style="stroke:#181818;stroke-width:1.0;"/><polygon fill="#181818" points="1003.5,534.19,999.5,540.19,1003.5,546.19,1007.5,540.19,1003.5,534.19" style="stroke:#181818;stroke-width:1.0;"/></g><!--MD5=[d7540a441ffda6a6cfad119bf4935ccb]
reverse link Therapie to MedikamentöseTherapie--><g id="link_Therapie_MedikamentöseTherapie"><path codeLine="169" d="M1033.53,543.94 C1084.58,599.95 1189,714.497 1253.16,784.882 " fill="none" id="Therapie-backto-MedikamentöseTherapie" style="stroke:#181818;stroke-width:1.0;"/><polygon fill="#181818" points="1024.64,534.19,1025.7231,541.3193,1032.7206,543.0615,1031.6375,535.9322,1024.64,534.19" style="stroke:#181818;stroke-width:1.0;"/></g><!--MD5=[ea048c0ea6e0d760f7fefb86d6a9ae33]
reverse link Patient to Therapie--><g id="link_Patient_Therapie"><path codeLine="170" d="M706.036,283.8 C710.122,286.38 714.278,288.78 718.5,291 C802.763,335.22 855.94,261.87 930.5,321 C982.486,362.23 997.508,445.43 1001.805,485.88 " fill="none" id="Patient-backto-Therapie" style="stroke:#181818;stroke-width:1.0;"/><polygon fill="#181818" points="701.632,280.95,706.999,289.208,705.8245,283.6744,711.3581,282.5,701.632,280.95" style="stroke:#181818;stroke-width:1.0;"/><text fill="#000000" font-family="sans-serif" font-size="13" lengthAdjust="spacing" textLength="46" x="947.5" y="334.0669">subject</text></g><!--MD5=[e3ed78a968d246438a41bbded01f0a04]
@startuml
skinparam groupInheritance 2

class Patient <<Patient>> {
    Name
    name : HumanName
    ..
    GeschlechtAdministrativ
    gender : code
    ..
    Geburtsdatum
    birthDate : date
    ..
    Adresse
    address : Address
    ..
    Ethnizität
    extension : CodeableConcept
    ..
    GeschlechtBiologisch
    extension : CodeableConcept
}

class Vitalstatus <<Observation>> {
    Verstorben: boolean
    Todeszeitpunkt: dateTime
    Todesursache: CodeableConcept
}

Patient <- - Vitalstatus : subject

abstract Körpermaße {

}

Patient <- - Körpermaße : subject

class Körpergröße <<Observation>> {
    Messzeitpunkt : dateTime
    Messwert : Quantity
}

Körpermaße *- - Körpergröße

class Körpergewicht <<Observation>> {
    Messzeitpunkt : dateTime
    Messwert : Quantity
}

Körpermaße *- - Körpergewicht

class Diagnose <<Condition>> {
    Diagnose ID
    id : id
    ..
    Klinischer Status
    clinicalStatus : CodeableConcept
    ..
    Diagnosesicherheit
    verificationStatus : CodeableConcept
    ..
    Diagnosecode
    code : CodeableConcept
    ..
    KlinischRelevanterZeitraum
    onset : Period
    ..
    Dokumentationsdatum
    recordedDate : dateTime
}

Patient <- - Diagnose : subject
Diagnose <- - Diagnose : "relatedTo"

class RecistObservation <<Observation>> {
    code : CodeableConcept
    valueCodeableConcept : CodeableConcept
    effectiveDateTime : dateTime
}



class Laborbefund <<DiagnosticReport>> {
    ID : Identifier
}

Patient <- - Laborbefund : subject

class Laborparameter <<Observation>> {
    Code : CodeableConcept
    Laborwert : Quantity
    Messzeitpunkt : dateTime
    Referenzbereich : Quantity
}

class Probe <<Specimen>> {
    ID : Identifier
    Probenart : CodeableConcept
    Entnahmestelle : CodeableConcept
}

Laborbefund - -> Laborparameter : result
Laborparameter - -> Probe : specimen

abstract Assessment {

}

abstract Staging {

}

abstract Grading {

}

class TNM <<Observation>> {
    y : CodeableConcept
    r : CodeableConcept
    a : CodeableConcept
    T : CodeableConcept
    m : CodeableConcept
    N : CodeableConcept
    M : CodeableConcept
    L : CodeableConcept
    V : CodeableConcept
    Pn : CodeableConcept
    S : CodeableConcept
    numberOfNodesAffected : Quantity
    numberOfNodesExamined : Quantity
}

class ResidualTumorClassification <<Observation>> {
    R : CodeableConcept
}

TNM - -> ResidualTumorClassification : hasMember

class HistopathologischesGrading <<Observation>> {
    Grade : CodeableConcept
}

Assessment *- - Staging
Assessment *- - Grading
Staging *- - TNM
Grading *- - HistopathologischesGrading
Diagnose - -> Assessment : stage.assessment
HistopathologischesGrading - -> Probe : specimen

abstract Therapie {

}

class Prozedur <<Procedure>> {
    Code: CodeableConcept
    Durchführungsdatum: dateTime
    Dokumentationsdatum: dateTime
    Körperstelle: CodeableConcept
}

Therapie *- - Prozedur

class MedikamentöseTherapie <<MedicationStatement>> {
    Wirkstoff: CodeableConcept
    TherapieBeginn: dateTime
    TherapieEnde: dateTime
    TherapieIntention: CodeableConcept
}

Therapie *- - MedikamentöseTherapie
Patient <- - Therapie : subject
@enduml

PlantUML version 1.2022.6beta1(Unknown compile time)
(GPL source distribution)
Java Runtime: Java(TM) SE Runtime Environment
JVM: Java HotSpot(TM) 64-Bit Server VM
Default Encoding: UTF-8
Language: en
Country: US
--></g></svg>